<svg width="24" height="24" viewBox="0 0 24 24" fill="none" xmlns="http://www.w3.org/2000/svg">
<g clip-path="url(#clip0_642_1575)">
<path d="M23.3602 19.7043C23.0588 20.902 22.7519 21.8991 22.7019 21.8829C22.5783 21.8434 1.01985 20.0982 1.01985 20.0982C1.01985 20.0982 0.797638 19.6472 0.560152 19.1172C0.560152 19.1172 0.560152 19.1128 0.557374 19.1114C0.246281 18.4144 -0.088422 17.5857 0.0212939 17.4671C0.0546253 17.432 0.144898 17.3749 0.276835 17.3032C0.576817 17.1377 1.08651 16.8859 1.58509 16.6121C1.76425 16.514 1.94202 16.413 2.10867 16.3134C2.15173 16.2885 2.192 16.2622 2.23228 16.2358C2.55865 16.0308 2.82252 15.8288 2.93501 15.6589C3.02945 15.5169 3.09473 15.249 3.1475 14.9181V14.9152C3.3211 13.8332 3.35166 12.0894 3.72941 11.9064C4.22244 11.6692 6.60425 11.4876 6.76118 11.2607C6.91812 11.0338 6.5112 9.96787 6.41398 9.63551C6.4112 9.62965 6.40981 9.6238 6.40842 9.61794C6.37093 9.49642 6.25704 9.18895 6.11677 8.81706C6.114 8.81267 6.11261 8.80828 6.11122 8.80535C5.80568 7.99422 5.37932 6.88588 5.36404 6.73507C5.34043 6.51106 9.00966 0.0498579 10.0388 7.75579e-05C11.0665 -0.0497028 19.2007 5.69407 19.1688 5.95323C19.0424 6.99422 18.9008 8.07768 18.7577 9.12599C18.2966 12.5081 17.823 15.5155 17.823 15.5155C17.823 15.5155 18.9785 15.4203 20.384 15.4174C21.5409 15.4159 22.8672 15.4745 23.8546 15.6985C24.2338 15.7849 23.8019 17.9576 23.3602 19.7043Z" fill="#FFF603"/>
<path d="M0.59375 19.2095C0.59375 19.2095 1.29926 21.1743 1.44092 21.3808C1.58258 21.5858 4.06438 23.6429 4.65324 23.5609C5.02822 23.5096 11.4556 22.0484 12.032 21.9972C12.2972 21.9737 13.1236 23.6516 14.0194 23.8288C14.5943 23.943 22.1481 24.186 22.4855 23.7556C22.823 23.3251 23.4424 19.3808 23.4424 19.3808L0.59375 19.2095Z" fill="url(#paint0_linear_642_1575)"/>
<path d="M23.7935 16.9547C23.7726 17.1392 23.7462 17.3413 23.7157 17.5565C23.4601 19.3954 22.9088 22.1963 22.5241 23.2417C22.4366 23.4833 22.3574 23.6312 22.2922 23.6517C22.2533 23.6634 22.188 23.6751 22.0991 23.6853C20.7728 23.8347 14.2843 23.7044 14.019 23.6517C14.001 23.6473 13.9801 23.6414 13.9593 23.6297C13.9232 23.6151 13.8843 23.5902 13.8413 23.5594C13.8288 23.5506 13.8163 23.5404 13.8038 23.5301C13.4399 23.2446 12.8746 22.5214 12.4511 22.1085C12.3525 22.0148 12.2622 21.9357 12.1844 21.883C12.1219 21.8405 12.0664 21.8142 12.0205 21.8083C11.9983 21.8054 11.9594 21.8083 11.9053 21.8142C11.8386 21.823 11.7497 21.8391 11.64 21.861C11.4136 21.905 11.1039 21.9752 10.7373 22.0631C9.00403 22.473 6.03059 23.2505 4.93482 23.4203C4.75567 23.4496 4.6279 23.4613 4.56262 23.4525C4.53901 23.4496 4.51402 23.4438 4.48624 23.435C4.4543 23.4262 4.41958 23.413 4.38208 23.3969C3.61268 23.0865 1.73501 21.5682 1.5378 21.3091C1.50308 21.2637 1.45169 21.1744 1.38781 21.0528C1.14754 20.5931 0.74479 19.6707 0.478139 18.8786C0.405921 18.6605 0.342035 18.4525 0.296205 18.2666C0.204543 17.9006 0.176767 17.6209 0.262873 17.5214L0.276761 17.5067C0.543413 17.2461 2.73495 15.9635 2.87383 15.8142C2.88078 15.8069 2.88911 15.7922 2.89744 15.7717C2.90994 15.7424 2.92383 15.7058 2.93911 15.659C3.07938 15.2388 3.36408 14.0836 3.63629 13.1641C3.66823 13.0528 3.70156 12.943 3.73351 12.8405C3.89183 12.3325 4.03904 11.9503 4.13904 11.902C4.17376 11.8859 4.26403 11.8625 4.3918 11.8361C4.4543 11.823 4.52513 11.8083 4.60429 11.7937C5.40841 11.637 6.94026 11.3911 6.97637 11.2607C6.99859 11.1831 6.66945 10.3208 6.31669 9.36031C6.31391 9.35445 6.31252 9.34859 6.31113 9.3442C6.05559 8.64581 5.78755 7.89764 5.63478 7.36177C5.54451 7.04259 5.49313 6.79954 5.50979 6.68681C5.55562 6.36909 7.67078 2.84786 9.06653 1.15972L9.06931 1.15679C9.51373 0.619457 9.88593 0.268066 10.0942 0.268066C10.1581 0.268066 10.2748 0.307598 10.4345 0.380804C10.4345 0.382268 10.4387 0.382268 10.4401 0.383733C12.165 1.17436 18.9048 5.79369 18.9354 6.13922V6.14654C18.9396 6.20218 18.9437 6.27099 18.9437 6.35299V6.39252C18.9479 8.09091 18.1882 14.4335 18.0882 15.2505C18.0882 15.2607 18.0882 15.2695 18.0855 15.2783C18.0855 15.2783 23.0157 15.514 23.806 15.8464C23.8809 15.8786 23.8671 16.3091 23.7935 16.9547Z" fill="url(#paint1_linear_642_1575)"/>
<path style="mix-blend-mode:screen" d="M18.9471 6.35743C16.8111 6.88745 13.0197 7.46724 12.0364 7.10853C10.6643 6.61073 9.85737 0.571198 10.074 0.478958C10.1823 0.432106 10.3046 0.402823 10.4379 0.385254C12.1545 1.17003 18.9082 5.79814 18.9388 6.14367C18.943 6.20077 18.9471 6.27252 18.9471 6.35743Z" fill="url(#paint2_linear_642_1575)"/>
<path style="mix-blend-mode:screen" d="M8.83933 15.0543C7.72133 15.6941 4.74512 12.7249 4.58402 12.4877C4.40903 12.23 4.36597 12.0133 4.38819 11.8361C5.09093 11.6868 6.93249 11.4042 6.97277 11.2607C6.97277 11.2607 8.95321 14.9899 8.83933 15.0543Z" fill="url(#paint3_linear_642_1575)"/>
<path style="mix-blend-mode:screen" d="M23.805 15.8464C23.6009 17.4438 21.8649 18.3984 21.2968 18.5287C20.7302 18.6605 15.2694 17.4072 14.968 17.2769C14.6667 17.1451 18.0845 15.2783 18.0845 15.2783C18.0845 15.2783 23.0148 15.514 23.805 15.8464Z" fill="url(#paint4_linear_642_1575)"/>
<g style="mix-blend-mode:overlay">
<path d="M18.8711 6.18309C18.8933 6.16991 18.91 6.15967 18.9211 6.15381C18.91 6.16113 18.8933 6.16991 18.8711 6.18309Z" fill="#FFF603"/>
</g>
<g style="mix-blend-mode:overlay">
<path d="M18.9379 6.14355C18.9379 6.14355 18.9379 6.14502 18.9336 6.14648L18.9379 6.14355Z" fill="#FFF603"/>
</g>
<path style="mix-blend-mode:screen" d="M4.77179 19.8742C4.5593 19.9489 0.85396 18.2856 0.517868 17.987C0.395653 17.8786 0.320657 17.7 0.273438 17.5067C0.540089 17.2461 2.73163 15.9635 2.87051 15.8142C2.87745 15.8069 2.88579 15.7922 2.89412 15.7717C3.6663 16.8391 5.34676 19.2681 5.37453 19.3793C5.41064 19.5199 4.98567 19.7995 4.77179 19.8742Z" fill="url(#paint5_linear_642_1575)"/>
<path d="M14.9688 17.2769C14.9688 17.2769 20.9031 18.6737 21.2976 18.5287C21.692 18.3838 22.6752 17.7879 22.9947 17.2769C23.3141 16.7659 23.8057 15.8464 23.8057 15.8464C23.8057 15.8464 23.6446 17.1642 22.935 17.6751C22.2253 18.1861 21.4809 18.498 21.3989 18.6839C21.3156 18.8713 22.2378 23.394 22.2378 23.394C22.2378 23.394 21.3864 19.0324 20.7726 18.7967C20.1573 18.5595 18.3963 18.4482 17.4867 18.1861C16.577 17.924 14.9688 17.2769 14.9688 17.2769Z" fill="#FFF603"/>
<path d="M0.313889 17.6341C0.304167 17.599 0.551375 17.9372 0.822193 18.05C1.0944 18.1627 4.34421 19.8816 4.68725 19.7439C5.03028 19.6063 5.2886 19.476 5.37748 19.3794C5.46637 19.2827 5.26638 19.7308 5.07611 19.9928C4.88724 20.2549 4.65114 23.2579 4.61503 23.2696C4.57892 23.2827 5.00528 20.1539 4.61503 20.0426C4.22477 19.9299 0.619427 18.801 0.3125 17.6341H0.313889Z" fill="#FFF603"/>
<g style="mix-blend-mode:multiply" opacity="0.5">
<path d="M12.1838 21.883C12.1213 21.8405 12.0658 21.8142 12.0199 21.8083C11.9977 21.8054 11.9588 21.8083 11.9047 21.8142C11.2269 20.678 9.6923 17.2432 8.30627 14.0367C7.53965 12.2651 6.82024 10.5638 6.31472 9.36029C6.31194 9.35443 6.31055 9.34858 6.30916 9.34418C6.13695 8.8742 5.95918 8.38079 5.81614 7.94594C5.74531 7.73511 5.68281 7.53745 5.63281 7.36175C6.08834 6.4496 9.69508 5.23145 10.1812 5.23145C10.5617 5.23145 11.2089 6.49206 11.67 7.29587C12.0908 8.0294 12.1727 19.8127 12.1838 21.883Z" fill="url(#paint6_linear_642_1575)"/>
</g>
<g style="mix-blend-mode:multiply" opacity="0.5">
<path d="M22.0968 23.6853C20.7705 23.8346 14.282 23.7043 14.0168 23.6516C13.9987 23.6472 13.9779 23.6413 13.957 23.6296C14.0292 22.268 14.3112 17.5681 14.7362 17.4715C14.9778 17.4173 16.2833 17.8976 17.6707 18.2021C19.1303 18.5227 20.6733 18.6779 20.8705 18.9649C21.208 19.4583 22.1788 22.6033 22.0968 23.6853Z" fill="url(#paint7_linear_642_1575)"/>
</g>
<g style="mix-blend-mode:multiply" opacity="0.5">
<path d="M4.48439 23.435C3.79832 23.2373 1.74288 21.5814 1.53595 21.3091C1.3318 21.0411 0.552676 19.3061 0.292969 18.2666C0.781829 18.3911 1.59428 19.0045 2.47201 19.3793C3.49973 19.8171 4.56911 20.025 4.60522 20.1802C4.68021 20.5155 4.68021 22.536 4.48439 23.435Z" fill="url(#paint8_linear_642_1575)"/>
</g>
<g style="mix-blend-mode:multiply" opacity="0.5">
<path d="M5.54846 19.246C5.41375 19.4188 3.4333 16.7511 2.9375 15.6589C3.07777 15.2387 3.36248 14.0835 3.63468 13.164C3.84717 12.7701 4.2027 12.429 4.38464 12.4817C4.91655 12.634 4.73462 13.5564 6.65534 14.716C7.07615 14.9693 6.17203 18.4349 5.54846 19.246Z" fill="url(#paint9_linear_642_1575)"/>
</g>
<g style="mix-blend-mode:multiply" opacity="0.2">
<path d="M11.6401 21.8609C10.343 22.1171 6.26128 23.2137 4.93497 23.4202C4.84747 22.5124 4.78498 20.5622 5.48632 19.6208C6.53071 18.2181 6.86263 15.2928 7.15012 15.1171C7.45704 14.9297 8.63614 15.224 8.7278 15.2782C8.80558 15.325 11.1027 20.1156 11.6401 21.8609Z" fill="#FFFC7C"/>
</g>
<g style="mix-blend-mode:multiply" opacity="0.2">
<path d="M18.9417 6.39258C18.9459 8.09097 18.1862 14.4336 18.0862 15.2506C16.9307 15.7952 14.5642 16.8889 14.3461 17.6971C14.1489 18.4263 14.035 21.8216 13.8017 23.5302C13.4378 23.2447 12.8726 22.5214 12.449 22.1085C12.3115 20.2784 11.5268 8.17735 12.5143 7.75422C13.7614 7.21981 16.0919 7.51557 16.8543 7.29595C17.4209 7.13343 18.3751 6.67076 18.9417 6.39258Z" fill="#FFFC7C"/>
</g>
<g style="mix-blend-mode:multiply" opacity="0.2">
<path d="M23.7899 16.9546C23.5885 18.7174 22.9496 22.0746 22.5205 23.2416C22.1816 22.2445 21.2886 19.1903 21.7289 18.6413C22.0483 18.243 23.0232 17.4436 23.7899 16.9546Z" fill="#FFFC7C"/>
</g>
<path d="M8.72046 15.1539C8.59824 15.11 8.13438 15.0982 7.69829 14.8464C7.12333 14.5141 4.83735 12.9958 4.69569 12.4291C4.64292 12.2198 4.61514 11.9943 4.60125 11.7937C4.52209 11.8083 4.45126 11.823 4.38876 11.8362C4.26099 11.8625 4.17072 11.8859 4.136 11.902C4.03601 11.9504 3.88879 12.3325 3.73047 12.8406C3.95129 12.5814 4.21239 12.3369 4.38321 12.3794C4.72624 12.4672 5.09428 13.4145 5.72341 13.9123C6.022 14.148 6.77335 14.5287 6.8289 15.211C6.88029 15.8288 5.73452 18.9401 5.73452 18.9401C6.01228 18.9401 7.04833 15.4365 7.48581 15.2769C7.92467 15.1158 9.04544 15.2681 8.72185 15.1524L8.72046 15.1539Z" fill="#FFF603"/>
<g style="mix-blend-mode:overlay">
<path d="M12.2493 7.65752C12.8173 7.50672 14.2409 7.21975 16.5282 7.13629C17.1379 7.11433 18.5406 6.38373 18.86 6.19047C18.4948 6.39984 17.2046 6.75562 15.956 6.94157C15.0394 7.07773 12.7229 7.28271 12.3201 7.0587C11.9188 6.83468 10.498 4.31931 10.28 2.72634C10.0619 1.13483 10.0133 0.789296 10.155 0.594567C10.2439 0.473044 10.4383 0.385197 10.4383 0.385197C10.4383 0.385197 10.4341 0.382268 10.4327 0.380804C10.273 0.307598 10.1564 0.268066 10.0925 0.268066C9.88416 0.268066 9.51196 0.619457 9.06754 1.15679C9.10087 1.12605 9.44252 0.820043 9.7425 0.96792C9.97582 1.08066 9.96332 3.74244 10.0008 4.06016C10.0383 4.37934 9.65084 4.88593 9.24114 5.14508C8.88977 5.36763 6.95933 6.23439 6.17188 6.58578C6.89406 6.26953 10.0536 5.13629 10.3036 5.18754C10.5536 5.23878 11.7118 7.04991 11.8007 7.37934C11.8952 7.73219 11.9229 17.7717 12.2729 19.3706C12.359 19.7659 11.6827 7.80687 12.2493 7.65752Z" fill="#FFF603"/>
</g>
<g style="mix-blend-mode:overlay">
<path d="M6.17064 6.58578C5.96371 6.67656 5.83594 6.73513 5.83594 6.73513C5.83594 6.73513 5.9651 6.67803 6.17064 6.58578Z" fill="#FFF603"/>
</g>
<g style="mix-blend-mode:multiply" opacity="0.5">
<path d="M23.7141 17.5565C23.4586 19.3954 22.9072 22.1963 22.5225 23.2417C22.435 23.4833 22.3559 23.6311 22.2906 23.6516C22.2517 23.6634 22.1864 23.6751 22.0975 23.6853C20.7712 23.8347 14.2827 23.7044 14.0174 23.6516C13.9994 23.6473 13.9786 23.6414 13.9577 23.6297C13.9119 23.6107 13.8591 23.5755 13.8022 23.5301C13.4383 23.2446 12.8731 22.5213 12.4495 22.1085C12.3509 22.0148 12.2606 21.9357 12.1828 21.883C12.1203 21.8405 12.0648 21.8142 12.0189 21.8083C11.9967 21.8054 11.9578 21.8083 11.9037 21.8142C11.837 21.823 11.7481 21.8391 11.6384 21.861C10.3413 22.1172 6.25956 23.2139 4.93325 23.4203C4.75409 23.4496 4.62632 23.4613 4.56105 23.4525C4.53744 23.4496 4.51244 23.4437 4.48466 23.435C3.79859 23.2373 1.74316 21.5814 1.53622 21.309C1.36818 21.0894 0.812654 19.8786 0.476562 18.8786C0.73627 19.0206 1.65844 21.0645 2.08341 21.2885C2.50978 21.5126 3.69721 21.7878 4.65132 22.1363C5.60543 22.4847 5.5471 22.8888 7.2845 22.6839C9.0219 22.4803 10.2399 21.7131 10.3107 21.3383C10.3815 20.965 9.39966 18.1934 9.41771 16.6634C9.43577 15.1333 11.3593 20.0455 11.6384 19.6209C11.9176 19.1948 11.9176 18.4789 12.0245 18.5389C12.1301 18.5975 12.6536 21.6853 13.3119 22.5345C13.9716 23.3852 19.4032 21.1231 20.6879 21.2388C21.9725 21.3544 22.4697 21.0601 22.7017 20.8508C22.9128 20.6604 23.2447 18.0762 23.7141 17.5565Z" fill="url(#paint10_linear_642_1575)"/>
</g>
<g style="mix-blend-mode:multiply" opacity="0.2">
<path d="M4.38075 23.3969C3.61135 23.0865 1.73368 21.5682 1.53647 21.309C1.50175 21.2636 1.45037 21.1743 1.38648 21.0528C1.05317 20.1816 0.800405 19.2226 1.30454 19.2373C2.22393 19.2651 4.21132 20.9898 4.21132 21.3881C4.21132 21.6253 4.40297 22.615 4.38075 23.3969Z" fill="#FFFC7C"/>
</g>
<g style="mix-blend-mode:multiply" opacity="0.2">
<path d="M11.8316 20.6107C11.4066 20.5096 6.25551 9.78343 6.80687 8.33395C7.35962 6.88446 10.9525 8.33395 11.0941 9.12897C11.2358 9.92399 12.5454 20.7805 11.8316 20.6107Z" fill="#FFFC7C"/>
</g>
<g style="mix-blend-mode:multiply" opacity="0.2">
<path d="M14.4933 23.271C14.3599 23.1626 14.6294 18.5799 15.4835 18.5389C16.339 18.4979 21.7289 22.3368 21.1845 22.9591C20.6415 23.5828 14.9391 23.6326 14.4933 23.271Z" fill="#FFFC7C"/>
</g>
<g style="mix-blend-mode:soft-light" opacity="0.4">
<path d="M17.6174 15.0558C17.3994 15.1583 13.9537 16.8113 13.1968 16.3706C12.4399 15.9299 11.7552 8.41452 13.0316 8.49652C14.3079 8.57851 18.8437 14.4789 17.6174 15.0558Z" fill="white"/>
</g>
<g style="mix-blend-mode:multiply" opacity="0.1">
<path d="M12.5164 6.83025C12.3303 6.71458 15.1871 4.93127 16.1537 5.0484C17.1203 5.16407 18.2342 5.5872 18.0314 5.93713C17.8286 6.28705 12.8303 7.02644 12.5164 6.83025Z" fill="#FFFC7C"/>
</g>
<g style="mix-blend-mode:soft-light">
<path d="M10.8075 3.57998C10.8075 3.57998 9.9562 1.07339 10.6423 0.967975C11.3283 0.862557 16.0558 3.94455 15.8906 4.24323C15.7253 4.54191 12.0227 2.25787 11.6394 2.72786C11.2561 3.19784 11.27 4.07778 10.8075 3.57998Z" fill="white"/>
</g>
<g style="mix-blend-mode:soft-light" opacity="0.5">
<path d="M8.0005 3.06455C8.0005 3.06455 9.15321 1.25049 9.40181 1.52575C9.64902 1.801 9.89761 3.32077 9.52541 3.57992C9.15321 3.83907 7.91301 3.20071 8.0005 3.06601V3.06455Z" fill="white"/>
</g>
<g style="mix-blend-mode:multiply" opacity="0.1">
<path d="M15.8943 16.9547C15.7318 17.1729 20.9787 18.4086 21.2232 18.2666C21.469 18.1246 17.7803 16.6238 17.2609 16.6634C16.7415 16.7029 16.0401 16.7571 15.8943 16.9547Z" fill="#FFFC7C"/>
</g>
<g style="mix-blend-mode:multiply" opacity="0.5">
<path d="M13.8423 23.5594C13.8298 23.5506 13.8173 23.5403 13.8048 23.5301C13.4409 23.2446 12.8757 22.5213 12.4521 22.1084C12.3535 22.0147 12.2632 21.9357 12.1854 21.8829C12.1229 21.8405 12.0674 21.8141 12.0215 21.8083C11.9993 21.8053 11.9604 21.8083 11.9063 21.8141C11.8396 21.8229 11.7507 21.839 11.641 21.861C11.4146 21.9049 11.1049 21.9752 10.7383 22.063C10.4633 21.1377 9.63139 18.227 10.0411 18.2783C10.5286 18.3397 11.1133 20.1084 11.641 20.309C12.066 20.4701 13.4187 22.552 13.8423 23.5594Z" fill="url(#paint11_linear_642_1575)"/>
</g>
<g style="mix-blend-mode:multiply" opacity="0.2">
<path d="M10.1747 17.631C10.1178 17.5124 9.27619 15.9268 8.30263 14.0366C7.53601 12.265 6.81661 10.5637 6.31108 9.36015C6.3083 9.35429 6.30692 9.34844 6.30553 9.34404C6.13331 8.87406 5.95555 8.38065 5.8125 7.9458C6.96243 8.94873 9.40951 11.3323 9.92476 13.202C10.6025 15.6691 10.315 17.9209 10.1747 17.631Z" fill="#FFFC7C"/>
</g>
<g style="mix-blend-mode:soft-light" opacity="0.5">
<path d="M0.766141 17.6561C0.731421 17.4833 2.4591 16.3427 2.85352 16.4452C3.24794 16.5477 4.92146 18.6971 4.65203 18.7161C4.3826 18.7351 0.855025 18.0968 0.766141 17.6561Z" fill="white"/>
</g>
<g style="mix-blend-mode:soft-light" opacity="0.4">
<path d="M5.3795 23.0147C5.14062 22.779 8.45293 16.2211 8.85707 16.9547C9.26122 17.6882 9.80979 20.9459 9.56259 21.3163C9.31399 21.6867 5.68365 23.3134 5.3795 23.0147Z" fill="white"/>
</g>
<g style="mix-blend-mode:soft-light" opacity="0.5">
<path d="M4.85156 12.0118C4.88351 12.2489 7.02644 12.1479 7.06255 12.0118C7.09865 11.8756 7.06949 11.5945 6.76534 11.5945C6.46119 11.5945 4.8224 11.7921 4.85295 12.0118H4.85156Z" fill="white"/>
</g>
<g style="mix-blend-mode:soft-light">
<path d="M16.2908 16.9547C16.3213 16.8537 17.7712 15.5755 18.2059 15.5199C18.6406 15.4643 23.4362 15.9401 23.4001 16.025C23.364 16.1085 19.1267 16.148 18.374 16.4467C17.6199 16.7454 16.2338 17.1436 16.2908 16.9562V16.9547Z" fill="white"/>
</g>
<path d="M5.24043 17.7541C5.08489 17.6384 4.84185 16.8273 5.24043 16.899C5.63902 16.9693 5.75429 18.1377 5.24043 17.7541Z" fill="url(#paint12_linear_642_1575)"/>
<path d="M11.955 13.558C11.7787 13.4496 11.069 10.558 11.8828 10.7542C12.6967 10.9504 12.5161 13.9035 11.955 13.558Z" fill="url(#paint13_linear_642_1575)"/>
<path d="M12.2919 14.4775C12.1877 14.3882 12.553 13.8567 12.6683 14.0192C12.7835 14.1832 12.4836 14.64 12.2919 14.4775Z" fill="url(#paint14_linear_642_1575)"/>
<path d="M22.7394 17.5008H22.7019C22.2367 17.6062 21.3145 18.2548 21.8103 18.3236C22.3061 18.3925 23.2283 17.6824 22.738 17.5008H22.7394Z" fill="url(#paint15_linear_642_1575)"/>
<g style="mix-blend-mode:multiply" opacity="0.7">
<path d="M5.13807 16.9034C5.07835 16.9254 4.91308 17.2607 5.13807 17.4393C5.37417 17.6267 5.54499 17.2563 5.49638 17.1348C5.44777 17.0132 5.28667 16.8478 5.13807 16.9034Z" fill="url(#paint16_linear_642_1575)"/>
</g>
<g style="mix-blend-mode:multiply" opacity="0.7">
<path d="M11.7227 10.7614C11.5533 10.7965 11.2866 12.574 11.9185 12.5359C12.5504 12.4978 12.4046 11.4261 12.3185 11.2606C12.2324 11.0952 12.0755 10.6867 11.7227 10.7599V10.7614Z" fill="url(#paint17_linear_642_1575)"/>
</g>
<g style="mix-blend-mode:multiply" opacity="0.7">
<path d="M12.6187 13.9899C12.5604 13.9752 12.3923 14.0807 12.359 14.211C12.3243 14.3413 12.5562 14.4599 12.6395 14.3032C12.7229 14.1451 12.6992 14.0118 12.6187 13.9899Z" fill="url(#paint18_linear_642_1575)"/>
</g>
<g style="mix-blend-mode:multiply" opacity="0.7">
<path d="M21.7471 18.066C21.6805 18.126 21.9999 18.2197 22.3957 17.9957C22.7915 17.7717 22.9234 17.6604 22.8554 17.5843C22.7887 17.5081 22.5665 17.3383 21.7471 18.066Z" fill="url(#paint19_linear_642_1575)"/>
</g>
<g style="mix-blend-mode:overlay">
<path d="M5.10686 17.5242C5.09991 17.492 5.24574 17.6003 5.33323 17.5359C5.42073 17.47 5.4735 17.2753 5.5235 17.3368C5.5735 17.3983 5.65127 17.7248 5.50128 17.7965C5.35129 17.8683 5.15408 17.7438 5.10547 17.5257L5.10686 17.5242Z" fill="#FFF603"/>
</g>
<g style="mix-blend-mode:overlay">
<path d="M11.719 12.5697C11.7565 12.5331 11.894 12.719 12.0273 12.6282C12.1606 12.5374 12.344 12.1758 12.3967 12.3339C12.4495 12.4921 12.319 13.618 12.0593 13.5565C11.7565 13.4833 11.6815 12.6063 11.7204 12.5697H11.719Z" fill="#FFF603"/>
</g>
<g style="mix-blend-mode:overlay">
<path d="M12.3248 14.2856C12.3498 14.2797 12.3567 14.3749 12.4178 14.3851C12.4789 14.3954 12.5845 14.3676 12.5623 14.4012C12.54 14.4349 12.3914 14.5799 12.2998 14.473C12.2081 14.3661 12.3081 14.29 12.3248 14.2856Z" fill="#FFF603"/>
</g>
<g style="mix-blend-mode:overlay">
<path d="M21.6933 18.164C21.7225 18.126 21.9877 18.2211 22.1614 18.1391C22.3336 18.0571 22.8544 17.7687 22.7946 17.8566C22.7349 17.9444 22.1891 18.3822 21.9058 18.328C21.6225 18.2738 21.6794 18.1831 21.6947 18.164H21.6933Z" fill="#FFF603"/>
</g>
<path d="M10.5225 5.2314C10.3323 5.12159 9.62397 3.90636 10.0378 3.75702C10.4517 3.60768 10.9183 4.64868 10.9183 4.87269C10.9183 5.0967 10.9058 5.45395 10.5225 5.23287V5.2314Z" fill="white"/>
<path d="M10.0397 2.10269C9.88 2.26081 10.1675 3.42626 10.2466 3.05876C10.3258 2.69127 10.1897 1.95335 10.0397 2.10269Z" fill="white"/>
<path d="M20.7889 18.5009C20.3681 18.6414 21.5041 19.8449 21.4805 19.4189C21.4569 18.9928 21.3666 18.3076 20.7889 18.5009Z" fill="white"/>
<path d="M1.58421 16.6121C1.57866 16.6252 1.5731 16.6384 1.56477 16.6516C1.51894 16.7468 1.45089 16.8522 1.35228 16.9678C1.12729 17.2329 0.775926 17.3222 0.513441 17.3266C0.420391 17.328 0.338451 17.3192 0.277344 17.3031C0.577326 17.1377 1.08702 16.8859 1.5856 16.6121H1.58421Z" fill="white"/>
<g style="mix-blend-mode:multiply" opacity="0.15">
<path d="M5.5863 21.6678C5.37659 21.9152 6.06683 22.5653 6.17099 22.1729C6.27515 21.7805 5.71268 21.5184 5.5863 21.6678Z" fill="#FFFC7C"/>
</g>
<g style="mix-blend-mode:multiply" opacity="0.15">
<path d="M5.86905 20.7233C5.62878 20.8448 5.68989 21.1698 5.86905 21.0176C6.0482 20.8638 6.01765 20.6486 5.86905 20.7233Z" fill="#FFFC7C"/>
</g>
<g style="mix-blend-mode:multiply" opacity="0.15">
<path d="M7.98603 15.8653C7.7416 16.1332 8.26935 16.7291 8.34018 16.366C8.41101 16.0029 8.17213 15.6603 7.98603 15.8653Z" fill="#FFFC7C"/>
</g>
<g style="mix-blend-mode:multiply" opacity="0.15">
<path d="M13.4295 21.0177C13.1531 20.8054 12.8448 20.1846 13.1281 20.0616C13.4115 19.9386 13.6781 21.2095 13.4295 21.0177Z" fill="#FFFC7C"/>
</g>
<g style="mix-blend-mode:multiply" opacity="0.15">
<path d="M17.8409 11.2608C17.584 11.3047 17.3201 11.7703 17.6131 11.6444C17.9062 11.5185 18.0326 11.2286 17.8409 11.2608Z" fill="#FFFC7C"/>
</g>
<g style="mix-blend-mode:multiply" opacity="0.15">
<path d="M17.9319 10.4247C17.7361 10.6589 17.9499 11.126 18.0291 10.8361C18.1083 10.5462 18.0652 10.2665 17.9319 10.4247Z" fill="#FFFC7C"/>
</g>
<g style="mix-blend-mode:multiply" opacity="0.15">
<path d="M20.4516 19.2549C20.0044 19.3106 19.4947 20.1246 20.0794 19.8772C20.6641 19.6312 20.6197 19.2344 20.4516 19.2549Z" fill="#FFFC7C"/>
</g>
<g style="mix-blend-mode:multiply" opacity="0.15">
<path d="M20.7686 20.0528C20.5575 20.3925 21.0852 21.0103 21.0866 20.5448C21.0866 20.0792 20.8491 19.924 20.7686 20.0528Z" fill="#FFFC7C"/>
</g>
<g style="mix-blend-mode:multiply" opacity="0.15">
<path d="M22.0117 19.2094C21.9173 19.2373 21.9298 19.5213 22.1034 19.3705C22.277 19.2197 22.1089 19.1802 22.0117 19.2094Z" fill="#FFFC7C"/>
</g>
</g>
<defs>
<linearGradient id="paint0_linear_642_1575" x1="12.1494" y1="24.0011" x2="12.1494" y2="19.2095" gradientUnits="userSpaceOnUse">
<stop stop-color="#F05754"/>
<stop offset="0.495" stop-color="#F4864D"/>
<stop offset="1" stop-color="#FBC945"/>
</linearGradient>
<linearGradient id="paint1_linear_642_1575" x1="12.1693" y1="23.7547" x2="12.1693" y2="0.268067" gradientUnits="userSpaceOnUse">
<stop stop-color="#F05754"/>
<stop offset="0.495" stop-color="#F4864D"/>
<stop offset="1" stop-color="#FBC945"/>
</linearGradient>
<linearGradient id="paint2_linear_642_1575" x1="13.3155" y1="-1.23993" x2="15.5925" y2="7.84207" gradientUnits="userSpaceOnUse">
<stop stop-color="#FFF601"/>
<stop offset="0.1" stop-color="#ECE400"/>
<stop offset="0.31" stop-color="#BDB600"/>
<stop offset="0.61" stop-color="#706C00"/>
<stop offset="0.97" stop-color="#070700"/>
<stop offset="1"/>
</linearGradient>
<linearGradient id="paint3_linear_642_1575" x1="4.02016" y1="9.2256" x2="8.93236" y2="15.8837" gradientUnits="userSpaceOnUse">
<stop stop-color="#FFF601"/>
<stop offset="0.1" stop-color="#ECE400"/>
<stop offset="0.31" stop-color="#BDB600"/>
<stop offset="0.61" stop-color="#706C00"/>
<stop offset="0.97" stop-color="#070700"/>
<stop offset="1"/>
</linearGradient>
<linearGradient id="paint4_linear_642_1575" x1="19.8455" y1="14.4892" x2="18.7116" y2="19.0274" gradientUnits="userSpaceOnUse">
<stop stop-color="#FFF601"/>
<stop offset="0.1" stop-color="#ECE400"/>
<stop offset="0.31" stop-color="#BDB600"/>
<stop offset="0.61" stop-color="#706C00"/>
<stop offset="0.97" stop-color="#070700"/>
<stop offset="1"/>
</linearGradient>
<linearGradient id="paint5_linear_642_1575" x1="-2.50557" y1="13.29" x2="7.91061" y2="21.276" gradientUnits="userSpaceOnUse">
<stop stop-color="#FFF601"/>
<stop offset="0.1" stop-color="#ECE400"/>
<stop offset="0.31" stop-color="#BDB600"/>
<stop offset="0.61" stop-color="#706C00"/>
<stop offset="0.97" stop-color="#070700"/>
<stop offset="1"/>
</linearGradient>
<linearGradient id="paint6_linear_642_1575" x1="8.94597" y1="21.883" x2="8.94597" y2="5.23145" gradientUnits="userSpaceOnUse">
<stop stop-color="#F05754"/>
<stop offset="0.495" stop-color="#F4864D"/>
<stop offset="1" stop-color="#FBC945"/>
</linearGradient>
<linearGradient id="paint7_linear_642_1575" x1="18.0762" y1="23.7547" x2="18.0762" y2="17.4673" gradientUnits="userSpaceOnUse">
<stop stop-color="#F05754"/>
<stop offset="0.495" stop-color="#F4864D"/>
<stop offset="1" stop-color="#FBC945"/>
</linearGradient>
<linearGradient id="paint8_linear_642_1575" x1="2.49733" y1="23.435" x2="2.49733" y2="18.2666" gradientUnits="userSpaceOnUse">
<stop stop-color="#F05754"/>
<stop offset="0.495" stop-color="#F4864D"/>
<stop offset="1" stop-color="#FBC945"/>
</linearGradient>
<linearGradient id="paint9_linear_642_1575" x1="4.87232" y1="19.254" x2="4.87232" y2="12.4763" gradientUnits="userSpaceOnUse">
<stop stop-color="#F05754"/>
<stop offset="0.495" stop-color="#F4864D"/>
<stop offset="1" stop-color="#FBC945"/>
</linearGradient>
<linearGradient id="paint10_linear_642_1575" x1="12.2289" y1="23.7547" x2="12.2289" y2="16.3669" gradientUnits="userSpaceOnUse">
<stop stop-color="#F05754"/>
<stop offset="0.495" stop-color="#F4864D"/>
<stop offset="1" stop-color="#FBC945"/>
</linearGradient>
<linearGradient id="paint11_linear_642_1575" x1="11.9085" y1="23.5594" x2="11.9085" y2="18.2776" gradientUnits="userSpaceOnUse">
<stop stop-color="#F05754"/>
<stop offset="0.495" stop-color="#F4864D"/>
<stop offset="1" stop-color="#FBC945"/>
</linearGradient>
<linearGradient id="paint12_linear_642_1575" x1="5.30692" y1="17.8312" x2="5.30692" y2="16.8945" gradientUnits="userSpaceOnUse">
<stop stop-color="#F05754"/>
<stop offset="0.495" stop-color="#F4864D"/>
<stop offset="1" stop-color="#FBC945"/>
</linearGradient>
<linearGradient id="paint13_linear_642_1575" x1="11.973" y1="13.5861" x2="11.973" y2="10.7446" gradientUnits="userSpaceOnUse">
<stop stop-color="#F05754"/>
<stop offset="0.495" stop-color="#F4864D"/>
<stop offset="1" stop-color="#FBC945"/>
</linearGradient>
<linearGradient id="paint14_linear_642_1575" x1="12.4861" y1="14.5119" x2="12.4861" y2="13.9885" gradientUnits="userSpaceOnUse">
<stop stop-color="#F05754"/>
<stop offset="0.495" stop-color="#F4864D"/>
<stop offset="1" stop-color="#FBC945"/>
</linearGradient>
<linearGradient id="paint15_linear_642_1575" x1="22.2796" y1="18.3283" x2="22.2796" y2="17.5008" gradientUnits="userSpaceOnUse">
<stop stop-color="#F05754"/>
<stop offset="0.495" stop-color="#F4864D"/>
<stop offset="1" stop-color="#FBC945"/>
</linearGradient>
<linearGradient id="paint16_linear_642_1575" x1="5.26683" y1="17.4913" x2="5.26683" y2="16.8923" gradientUnits="userSpaceOnUse">
<stop stop-color="#F05754"/>
<stop offset="0.495" stop-color="#F4864D"/>
<stop offset="1" stop-color="#FBC945"/>
</linearGradient>
<linearGradient id="paint17_linear_642_1575" x1="11.9633" y1="12.5365" x2="11.9633" y2="10.7512" gradientUnits="userSpaceOnUse">
<stop stop-color="#F05754"/>
<stop offset="0.495" stop-color="#F4864D"/>
<stop offset="1" stop-color="#FBC945"/>
</linearGradient>
<linearGradient id="paint18_linear_642_1575" x1="12.5255" y1="14.3779" x2="12.5255" y2="13.9885" gradientUnits="userSpaceOnUse">
<stop stop-color="#F05754"/>
<stop offset="0.495" stop-color="#F4864D"/>
<stop offset="1" stop-color="#FBC945"/>
</linearGradient>
<linearGradient id="paint19_linear_642_1575" x1="22.3119" y1="18.1375" x2="22.3119" y2="17.5112" gradientUnits="userSpaceOnUse">
<stop stop-color="#F05754"/>
<stop offset="0.495" stop-color="#F4864D"/>
<stop offset="1" stop-color="#FBC945"/>
</linearGradient>
<clipPath id="clip0_642_1575">
<rect width="24" height="24" fill="white"/>
</clipPath>
</defs>
</svg>
