<svg width="24" height="24" viewBox="0 0 24 24" fill="none" xmlns="http://www.w3.org/2000/svg">
<g clip-path="url(#clip0_206_123306)">
<path d="M16.9565 13.0435C15.6597 13.0435 14.6086 14.0945 14.6086 15.3913C14.6086 16.688 15.6597 17.7391 16.9565 17.7391H24V13.0435H16.9565ZM16.9565 16.1739C16.5243 16.1739 16.1738 15.8235 16.1738 15.3912C16.1738 14.959 16.5242 14.6086 16.9565 14.6086C17.3887 14.6086 17.7391 14.959 17.7391 15.3912C17.7391 15.8235 17.3887 16.1739 16.9565 16.1739Z" fill="url(#paint0_linear_206_123306)"/>
<path d="M16.9565 11.4782H20.8695V9.13042C20.8695 7.83578 19.8164 6.78259 18.5217 6.78259H0.782625C0.350578 6.78259 0 7.13312 0 7.56517V23.2173C0 23.6494 0.350578 24 0.782625 24H18.5217C19.8164 24 20.8695 22.9468 20.8695 21.6521V19.3043H16.9565C14.7988 19.3043 13.0435 17.549 13.0435 15.3913C13.0435 13.2335 14.7988 11.4782 16.9565 11.4782Z" fill="url(#paint1_linear_206_123306)"/>
<path d="M21.6522 6.78259H21.6448C22.1383 7.43758 22.4348 8.24894 22.4348 9.13042V11.4782H24V9.13042C24 7.83578 22.9468 6.78259 21.6522 6.78259Z" fill="url(#paint2_linear_206_123306)"/>
<path d="M22.4348 19.3043V21.6521C22.4348 22.5336 22.1384 23.345 21.6448 24H21.6522C22.9468 24 24 22.9468 24 21.6521V19.3043H22.4348Z" fill="url(#paint3_linear_206_123306)"/>
<path d="M12.8143 0.229254C12.5086 -0.076418 12.0133 -0.076418 11.7076 0.229254L11.0198 0.917098L15.3201 5.21732H17.8024L12.8143 0.229254Z" fill="url(#paint4_linear_206_123306)"/>
<path d="M8.11842 0.229289C7.81274 -0.0764297 7.31751 -0.0764297 7.01179 0.229289L2.02368 5.21735H13.1066L8.11842 0.229289Z" fill="url(#paint5_linear_206_123306)"/>
</g>
<defs>
<linearGradient id="paint0_linear_206_123306" x1="19.3583" y1="17.7391" x2="19.3583" y2="13.0435" gradientUnits="userSpaceOnUse">
<stop stop-color="#F05754"/>
<stop offset="0.495" stop-color="#F4864D"/>
<stop offset="1" stop-color="#FBC945"/>
</linearGradient>
<linearGradient id="paint1_linear_206_123306" x1="10.5547" y1="24" x2="10.5547" y2="6.78259" gradientUnits="userSpaceOnUse">
<stop stop-color="#F05754"/>
<stop offset="0.495" stop-color="#F4864D"/>
<stop offset="1" stop-color="#FBC945"/>
</linearGradient>
<linearGradient id="paint2_linear_206_123306" x1="22.8359" y1="11.4782" x2="22.8359" y2="6.78259" gradientUnits="userSpaceOnUse">
<stop stop-color="#F05754"/>
<stop offset="0.495" stop-color="#F4864D"/>
<stop offset="1" stop-color="#FBC945"/>
</linearGradient>
<linearGradient id="paint3_linear_206_123306" x1="22.8359" y1="24" x2="22.8359" y2="19.3043" gradientUnits="userSpaceOnUse">
<stop stop-color="#F05754"/>
<stop offset="0.495" stop-color="#F4864D"/>
<stop offset="1" stop-color="#FBC945"/>
</linearGradient>
<linearGradient id="paint4_linear_206_123306" x1="14.4501" y1="5.21732" x2="14.4501" y2="1.39453e-07" gradientUnits="userSpaceOnUse">
<stop stop-color="#F05754"/>
<stop offset="0.495" stop-color="#F4864D"/>
<stop offset="1" stop-color="#FBC945"/>
</linearGradient>
<linearGradient id="paint5_linear_206_123306" x1="7.62882" y1="5.21735" x2="7.62882" y2="1.39454e-07" gradientUnits="userSpaceOnUse">
<stop stop-color="#F05754"/>
<stop offset="0.495" stop-color="#F4864D"/>
<stop offset="1" stop-color="#FBC945"/>
</linearGradient>
<clipPath id="clip0_206_123306">
<rect width="24" height="24" fill="white"/>
</clipPath>
</defs>
</svg>
