<svg width="26" height="26" viewBox="0 0 26 26" fill="none" xmlns="http://www.w3.org/2000/svg">
<path d="M9.32455 6.53456C8.60629 6.13187 7.71101 6.33094 6.97679 6.69868C6.24257 7.06794 5.5809 7.59524 4.81185 7.87636C3.84547 8.2289 2.58017 8.09366 2.19855 6.89319C2.14486 6.72451 2.11729 6.54672 2.11584 6.36893C2.11294 6.13643 2.14486 5.91305 2.20581 5.70031C2.2682 5.47997 1.98815 5.33713 1.85466 5.51796C1.54559 5.93888 1.29891 6.40844 1.1393 6.93725C0.931804 7.62867 0.946315 8.3839 1.25248 9.03277C1.93011 10.4688 3.50593 10.5873 4.82781 10.3047C5.90738 10.0752 6.96082 9.62845 8.06216 9.64212L9.3231 6.53456H9.32455Z" fill="url(#paint0_linear_642_1846)"/>
<path d="M16.6754 6.53456C17.3937 6.13187 18.289 6.33094 19.0232 6.69868C19.7574 7.06794 20.4191 7.59524 21.1881 7.87636C22.1545 8.2289 23.4198 8.09366 23.8014 6.89319C23.8551 6.72451 23.8827 6.54672 23.8842 6.36893C23.8871 6.13643 23.8551 5.91305 23.7942 5.70031C23.7318 5.47997 24.0118 5.33713 24.1453 5.51796C24.4544 5.93888 24.7011 6.40844 24.8607 6.93725C25.0682 7.62867 25.0537 8.3839 24.7475 9.03277C24.0699 10.4688 22.4941 10.5873 21.1722 10.3047C20.0926 10.0752 19.0392 9.62845 17.9378 9.64212L16.6769 6.53456H16.6754Z" fill="url(#paint1_linear_642_1846)"/>
<g style="mix-blend-mode:multiply" opacity="0.51">
<path d="M4.37509 9.48105C3.67715 9.77433 2.83845 9.48105 2.14051 9.04188C1.40049 8.61184 1.09867 7.77607 1.14365 6.92358C1.1422 6.92814 1.14075 6.9327 1.1393 6.93877C0.931804 7.63019 0.946315 8.38542 1.25248 9.03429C1.93011 10.4703 3.50593 10.5888 4.82781 10.3062C5.90738 10.0767 6.96082 9.62997 8.06216 9.64364L8.53229 8.48572C7.15236 8.44924 5.74051 8.89297 4.37364 9.48257L4.37509 9.48105Z" fill="url(#paint2_linear_642_1846)"/>
<path d="M24.8607 6.93725C24.7911 6.70628 24.704 6.48594 24.6024 6.27623C24.7403 7.09833 24.6082 7.89004 23.9291 8.60272C22.288 10.3214 19.8489 8.21675 17.5388 8.66047L17.9379 9.64212C19.0392 9.62845 20.0926 10.0752 21.1722 10.3047C22.4941 10.5858 24.0713 10.4688 24.7475 9.03277C25.0537 8.38238 25.0682 7.62867 24.8607 6.93725Z" fill="url(#paint3_linear_642_1846)"/>
</g>
<path d="M19.5514 11.2316V18.6138L17.0034 20.4251H8.76157L6.21356 18.6138V11.2316C6.21356 7.73048 9.0155 4.87061 12.54 4.69586C12.6532 4.68978 12.7679 4.68674 12.8839 4.68674C13 4.68674 13.1132 4.68978 13.2278 4.69586C13.2815 4.6989 13.3352 4.70194 13.386 4.7065C15.0286 4.82503 16.5028 5.5286 17.5998 6.60447C18.807 7.78974 19.5529 9.42482 19.5529 11.2331L19.5514 11.2316Z" fill="url(#paint4_linear_642_1846)"/>
<path d="M19.5512 11.6708V18.6138L17.0032 20.4251L15.5188 21.4812C15.5362 21.1287 15.5521 20.7761 15.5667 20.4251C15.6436 18.6259 15.6987 16.8298 15.8061 15.0321C16.5592 15.0017 17.2992 14.6993 17.8723 14.1903C18.4469 13.6797 18.7517 12.97 18.9055 12.1966C18.1756 11.42 16.9248 11.3623 16.0121 11.8835C15.098 12.4047 14.4973 13.3985 14.1954 14.441C13.8936 15.4834 13.8515 16.5866 13.8138 17.6747C13.7819 18.591 13.75 19.5058 13.718 20.4221C13.7064 20.7746 13.6934 21.1272 13.6818 21.4782H12.0842C12.0726 21.1272 12.0595 20.7746 12.0479 20.4221C12.016 19.5058 11.9841 18.591 11.9521 17.6747C11.9144 16.5851 11.8738 15.4819 11.572 14.441C11.2687 13.397 10.668 12.4047 9.75529 11.8835C8.84114 11.3623 7.59181 11.4185 6.86194 12.1966C7.0143 12.9685 7.31901 13.6797 7.89362 14.1903C8.46823 14.6993 9.2068 15.0017 9.95989 15.0321C10.0673 16.8298 10.1224 18.6259 10.2008 20.4251C10.2153 20.7761 10.2312 21.1287 10.2486 21.4812L8.76279 20.4251L6.21478 18.6138V11.6708C6.21478 7.93562 9.01672 4.88429 12.5413 4.69586C12.6544 4.68978 12.7691 4.68674 12.8852 4.68674C13.0012 4.68674 13.1144 4.68978 13.2291 4.69586C13.2827 4.6989 13.3364 4.70194 13.3872 4.7065C15.0298 4.83414 16.504 5.58482 17.601 6.73211C18.8083 7.99641 19.5541 9.7409 19.5541 11.6708H19.5512Z" fill="url(#paint5_linear_642_1846)"/>
<path style="mix-blend-mode:overlay" d="M17.2747 6.27319C17.2428 7.19407 16.5347 7.91435 15.6917 7.88396C14.8486 7.85357 14.1913 7.08162 14.2232 6.16226C14.2551 5.24139 14.9632 4.52111 15.8063 4.5515C16.6493 4.58189 17.3067 5.35384 17.2747 6.27319Z" fill="url(#paint6_radial_642_1846)"/>
<path style="mix-blend-mode:overlay" d="M15.6394 9.43394C15.3144 9.42178 15.0997 7.97209 15.1606 6.1957C15.2201 4.4193 15.5335 2.98784 15.86 3C16.185 3.01216 16.3998 4.46184 16.3388 6.23824C16.2779 8.01464 15.9645 9.4461 15.6394 9.43394Z" fill="url(#paint7_radial_642_1846)"/>
<path style="mix-blend-mode:overlay" d="M18.8114 6.32942C18.7998 6.67133 17.4199 6.89926 15.728 6.83696C14.0375 6.77466 12.675 6.44795 12.6866 6.10604C12.6982 5.76413 14.0781 5.53771 15.77 5.5985C17.4605 5.6608 18.823 5.98751 18.8114 6.33094V6.32942Z" fill="url(#paint8_radial_642_1846)"/>
<path style="mix-blend-mode:hard-light" d="M18.6648 6.32486C18.659 6.50417 17.3487 6.60294 15.7381 6.54368C14.1275 6.48442 12.8273 6.29143 12.8331 6.11212C12.839 5.93281 14.1492 5.83403 15.7599 5.8933C17.3705 5.95256 18.6706 6.14555 18.6648 6.32486Z" fill="url(#paint9_radial_642_1846)"/>
<path style="mix-blend-mode:hard-light" d="M17.1935 6.27015C17.1674 7.02539 16.4999 7.61347 15.7018 7.5846C14.9038 7.55573 14.2784 6.91902 14.3045 6.16378C14.3306 5.40855 14.9981 4.82047 15.7962 4.84934C16.5942 4.87821 17.2196 5.51492 17.1935 6.27015Z" fill="url(#paint10_radial_642_1846)"/>
<path style="mix-blend-mode:hard-light" d="M15.6452 9.28046C15.474 9.27438 15.3826 7.89763 15.4406 6.20633C15.4987 4.51503 15.6844 3.14892 15.8556 3.155C16.0269 3.16108 16.1183 4.53782 16.0602 6.22913C16.0022 7.92043 15.8165 9.28654 15.6452 9.28046Z" fill="url(#paint11_radial_642_1846)"/>
<path style="mix-blend-mode:overlay" d="M8.46843 10.2332C8.43651 11.1541 7.7284 11.8744 6.88536 11.844C6.04231 11.8136 5.38499 11.0417 5.41692 10.1223C5.44884 9.20144 6.15694 8.48116 6.99999 8.51155C7.84304 8.54194 8.50035 9.31389 8.46843 10.2332Z" fill="url(#paint12_radial_642_1846)"/>
<path style="mix-blend-mode:overlay" d="M6.83314 13.3955C6.50811 13.3834 6.29336 11.9337 6.3543 10.1573C6.41525 8.38086 6.72867 6.94941 7.0537 6.96157C7.37873 6.97372 7.59348 8.42341 7.53254 10.1998C7.47159 11.9762 7.15817 13.4077 6.83314 13.3955Z" fill="url(#paint13_radial_642_1846)"/>
<path style="mix-blend-mode:overlay" d="M10.0051 10.291C9.99347 10.6329 8.61355 10.8593 6.92165 10.7985C5.2312 10.7362 3.86868 10.4095 3.88029 10.0661C3.8919 9.72418 5.27183 9.49776 6.96373 9.55855C8.65417 9.62085 10.0167 9.94756 10.0051 10.291Z" fill="url(#paint14_radial_642_1846)"/>
<path style="mix-blend-mode:hard-light" d="M9.85853 10.2849C9.85272 10.4642 8.54244 10.563 6.9318 10.5037C5.32116 10.4445 4.02104 10.2515 4.02684 10.0722C4.03265 9.89285 5.34293 9.79408 6.95357 9.85334C8.56421 9.91261 9.86433 10.1056 9.85853 10.2849Z" fill="url(#paint15_radial_642_1846)"/>
<path style="mix-blend-mode:hard-light" d="M8.38719 10.2302C8.36107 10.9854 7.6936 11.5735 6.89554 11.5446C6.09747 11.5158 5.47208 10.8791 5.4982 10.1238C5.52431 9.3686 6.19179 8.78052 6.98985 8.80939C7.78792 8.83826 8.41331 9.47497 8.38719 10.2302Z" fill="url(#paint16_radial_642_1846)"/>
<path style="mix-blend-mode:hard-light" d="M6.83893 13.2405C6.66771 13.2344 6.57629 11.8577 6.63434 10.1664C6.69238 8.47508 6.87811 7.10897 7.04933 7.11505C7.22055 7.12113 7.31197 8.49787 7.25392 10.1892C7.19588 11.8805 7.01015 13.2466 6.83893 13.2405Z" fill="url(#paint17_radial_642_1846)"/>
<path style="mix-blend-mode:overlay" d="M17.9901 19.0377C17.9581 19.9586 17.25 20.6789 16.407 20.6485C15.5639 20.6181 14.9066 19.8462 14.9386 18.9268C14.9705 18.0059 15.6786 17.2857 16.5216 17.316C17.3647 17.3464 18.022 18.1184 17.9901 19.0377Z" fill="url(#paint18_radial_642_1846)"/>
<path style="mix-blend-mode:overlay" d="M16.3533 22.1985C16.0283 22.1863 15.8135 20.7366 15.8745 18.9602C15.9354 17.1838 16.2488 15.7524 16.5739 15.7645C16.8989 15.7767 17.1137 17.2264 17.0527 19.0028C16.9918 20.7792 16.6783 22.2106 16.3533 22.1985Z" fill="url(#paint19_radial_642_1846)"/>
<path style="mix-blend-mode:overlay" d="M19.5267 19.094C19.5151 19.4359 18.1352 19.6638 16.4433 19.6015C14.7528 19.5392 13.3903 19.2125 13.4019 18.8691C13.4135 18.5272 14.7935 18.3007 16.4854 18.3615C18.1758 18.4238 19.5383 18.7505 19.5267 19.0924V19.094Z" fill="url(#paint20_radial_642_1846)"/>
<path style="mix-blend-mode:hard-light" d="M19.3802 19.0894C19.3744 19.2687 18.0641 19.3675 16.4534 19.3082C14.8428 19.249 13.5427 19.056 13.5485 18.8767C13.5543 18.6974 14.8646 18.5986 16.4752 18.6578C18.0858 18.7171 19.386 18.9101 19.3802 19.0894Z" fill="url(#paint21_radial_642_1846)"/>
<path style="mix-blend-mode:hard-light" d="M17.9088 19.0347C17.8827 19.7899 17.2152 20.378 16.4172 20.3491C15.6191 20.3203 14.9937 19.6836 15.0198 18.9283C15.046 18.1731 15.7134 17.585 16.5115 17.6139C17.3096 17.6428 17.9349 18.2795 17.9088 19.0347Z" fill="url(#paint22_radial_642_1846)"/>
<path style="mix-blend-mode:hard-light" d="M16.3591 22.045C16.1879 22.0389 16.0965 20.6622 16.1545 18.9709C16.2126 17.2796 16.3983 15.9135 16.5695 15.9195C16.7408 15.9256 16.8322 17.3024 16.7741 18.9937C16.7161 20.685 16.5304 22.0511 16.3591 22.045Z" fill="url(#paint23_radial_642_1846)"/>
<path d="M12.839 11.7224C12.2107 11.7224 11.7014 10.8304 11.7014 9.72874C11.7014 10.8912 12.2107 11.8318 12.839 11.8318C13.4673 11.8318 13.9766 10.8897 13.9766 9.72874C13.9766 10.8289 13.4673 11.7224 12.839 11.7224Z" fill="url(#paint24_radial_642_1846)"/>
<path d="M12.839 7.73656C13.4673 7.73656 13.9766 8.62856 13.9766 9.73026C13.9766 8.56777 13.4673 7.62715 12.839 7.62715C12.2107 7.62715 11.7014 8.56929 11.7014 9.73026C11.7014 8.63008 12.2107 7.73656 12.839 7.73656Z" fill="url(#paint25_radial_642_1846)"/>
<path d="M12.839 11.7224C13.4672 11.7224 13.9766 10.8298 13.9766 9.72874C13.9766 8.62765 13.4672 7.73504 12.839 7.73504C12.2107 7.73504 11.7014 8.62765 11.7014 9.72874C11.7014 10.8298 12.2107 11.7224 12.839 11.7224Z" fill="url(#paint26_radial_642_1846)"/>
<path d="M12.839 11.7224C13.4672 11.7224 13.9766 10.8298 13.9766 9.72874C13.9766 8.62765 13.4672 7.73504 12.839 7.73504C12.2107 7.73504 11.7014 8.62765 11.7014 9.72874C11.7014 10.8298 12.2107 11.7224 12.839 11.7224Z" fill="url(#paint27_radial_642_1846)"/>
<path style="mix-blend-mode:multiply" d="M12.839 11.221C13.3094 11.221 13.6907 10.5529 13.6907 9.72874C13.6907 8.9046 13.3094 8.2365 12.839 8.2365C12.3686 8.2365 11.9872 8.9046 11.9872 9.72874C11.9872 10.5529 12.3686 11.221 12.839 11.221Z" fill="url(#paint28_radial_642_1846)"/>
<path style="mix-blend-mode:multiply" d="M12.839 11.3957C13.3091 11.3957 13.6907 10.7271 13.6907 9.90349C13.6907 9.07987 13.3091 10.1861 12.839 10.1861C12.3688 10.1861 11.9872 9.07987 11.9872 9.90349C11.9872 10.7271 12.3688 11.3957 12.839 11.3957Z" fill="url(#paint29_radial_642_1846)"/>
<path d="M12.4545 8.10734C12.0612 8.56017 11.8552 9.14826 11.8856 9.76065C11.8944 9.93996 12.1628 9.94148 12.1526 9.76065C12.1251 9.22272 12.2948 8.70454 12.6431 8.3064C12.7592 8.17268 12.5705 7.97513 12.4545 8.10886V8.10734Z" fill="url(#paint30_linear_642_1846)"/>
<path d="M12.839 10.6116C13.1176 10.6116 13.3425 10.2165 13.3425 9.73026C13.3425 9.24399 13.1176 8.8489 12.839 8.8489C12.5604 8.8489 12.3354 9.24399 12.3354 9.73026C12.3354 10.2165 12.5604 10.6116 12.839 10.6116Z" fill="url(#paint31_radial_642_1846)"/>
<path style="mix-blend-mode:overlay" d="M12.9608 8.20459C12.9536 8.43253 12.778 8.61032 12.5691 8.60272C12.3601 8.59513 12.1976 8.40366 12.2049 8.17572C12.2121 7.94778 12.3877 7.76999 12.5966 7.77759C12.8056 7.78519 12.9681 7.97665 12.9608 8.20459Z" fill="url(#paint32_radial_642_1846)"/>
<path style="mix-blend-mode:overlay" d="M12.556 8.98718C12.4747 8.98414 12.4225 8.62552 12.437 8.18484C12.4515 7.74568 12.5299 7.39009 12.6097 7.39313C12.6909 7.39617 12.7432 7.75479 12.7287 8.19547C12.7142 8.63464 12.6358 8.99022 12.556 8.98718Z" fill="url(#paint33_radial_642_1846)"/>
<path style="mix-blend-mode:overlay" d="M13.3425 8.21827C13.3396 8.30336 12.9986 8.35959 12.5792 8.34439C12.1599 8.3292 11.8232 8.24866 11.8261 8.16356C11.829 8.07847 12.1715 8.02224 12.5894 8.03744C13.0087 8.05263 13.3454 8.13317 13.3425 8.21827Z" fill="url(#paint34_radial_642_1846)"/>
<path style="mix-blend-mode:hard-light" d="M13.3062 8.21675C13.3047 8.26082 12.9797 8.28513 12.5821 8.27145C12.1831 8.25626 11.8609 8.20915 11.8639 8.16508C11.8653 8.12101 12.1903 8.0967 12.5879 8.11038C12.9869 8.12557 13.3091 8.17268 13.3062 8.21675Z" fill="url(#paint35_radial_642_1846)"/>
<path style="mix-blend-mode:hard-light" d="M12.942 8.20459C12.9362 8.3915 12.7707 8.53738 12.5734 8.52978C12.3761 8.52219 12.2208 8.36567 12.2281 8.17876C12.2339 7.99185 12.3993 7.84597 12.5966 7.85357C12.794 7.86116 12.9492 8.01768 12.942 8.20459Z" fill="url(#paint36_radial_642_1846)"/>
<path style="mix-blend-mode:hard-light" d="M12.5574 8.94919C12.5154 8.94767 12.4921 8.60728 12.5066 8.18788C12.5212 7.76847 12.5676 7.43112 12.6097 7.43264C12.6518 7.43416 12.675 7.77455 12.6605 8.19396C12.6459 8.61336 12.5995 8.95071 12.5574 8.94919Z" fill="url(#paint37_radial_642_1846)"/>
<path style="mix-blend-mode:overlay" d="M13.6602 9.74241C13.653 9.97035 13.4774 10.1481 13.2685 10.1405C13.0595 10.1329 12.897 9.94148 12.9043 9.71354C12.9115 9.4856 13.0871 9.30781 13.296 9.31541C13.505 9.32301 13.6675 9.51448 13.6602 9.74241Z" fill="url(#paint38_radial_642_1846)"/>
<path style="mix-blend-mode:overlay" d="M13.2554 10.525C13.1741 10.522 13.1219 10.1633 13.1364 9.72266C13.1509 9.2835 13.2293 8.92792 13.3091 8.93095C13.3903 8.93399 13.4426 9.29262 13.4281 9.7333C13.4136 10.1725 13.3352 10.528 13.2554 10.525Z" fill="url(#paint39_radial_642_1846)"/>
<path style="mix-blend-mode:overlay" d="M14.0419 9.75609C14.039 9.84119 13.698 9.89741 13.2786 9.88222C12.8593 9.86702 12.5226 9.78648 12.5255 9.70138C12.5284 9.61629 12.8694 9.56006 13.2888 9.57526C13.7081 9.59046 14.0448 9.67099 14.0419 9.75609Z" fill="url(#paint40_radial_642_1846)"/>
<path style="mix-blend-mode:hard-light" d="M14.0056 9.75609C14.0041 9.80016 13.6791 9.82447 13.2815 9.8108C12.8825 9.7956 12.5603 9.74849 12.5633 9.70442C12.5647 9.66036 12.8897 9.63604 13.2873 9.64972C13.6863 9.66491 14.0085 9.71202 14.0056 9.75609Z" fill="url(#paint41_radial_642_1846)"/>
<path style="mix-blend-mode:hard-light" d="M13.6414 9.74241C13.6356 9.92932 13.4701 10.0752 13.2728 10.0676C13.0755 10.06 12.9202 9.90349 12.9275 9.71658C12.9333 9.52967 13.0987 9.38379 13.296 9.39139C13.4934 9.39899 13.6486 9.5555 13.6414 9.74241Z" fill="url(#paint42_radial_642_1846)"/>
<path style="mix-blend-mode:hard-light" d="M13.2568 10.487C13.2148 10.4855 13.1915 10.1451 13.2061 9.7257C13.2206 9.30629 13.267 8.96894 13.3091 8.97046C13.3512 8.97198 13.3744 9.31237 13.3599 9.73178C13.3454 10.1512 13.2989 10.4885 13.2568 10.487Z" fill="url(#paint43_radial_642_1846)"/>
<defs>
<linearGradient id="paint0_linear_642_1846" x1="1.71681" y1="6.413" x2="6.87977" y2="8.61365" gradientUnits="userSpaceOnUse">
<stop offset="0.01" stop-color="#F8C297"/>
<stop offset="0.37" stop-color="#A96847"/>
<stop offset="0.5" stop-color="#A96C48"/>
<stop offset="0.69" stop-color="#DFA37A"/>
<stop offset="0.81" stop-color="#8A5438"/>
<stop offset="0.96" stop-color="#A96847"/>
</linearGradient>
<linearGradient id="paint1_linear_642_1846" x1="24.2832" y1="6.413" x2="19.1202" y2="8.61365" gradientUnits="userSpaceOnUse">
<stop offset="0.01" stop-color="#F8C297"/>
<stop offset="0.37" stop-color="#A96847"/>
<stop offset="0.5" stop-color="#A96C48"/>
<stop offset="0.69" stop-color="#DFA37A"/>
<stop offset="0.81" stop-color="#8A5438"/>
<stop offset="0.96" stop-color="#A96847"/>
</linearGradient>
<linearGradient id="paint2_linear_642_1846" x1="4.76687" y1="3.3571" x2="4.76687" y2="13.9502" gradientUnits="userSpaceOnUse">
<stop offset="0.01" stop-color="#F8C297"/>
<stop offset="0.37" stop-color="#A96847"/>
<stop offset="0.5" stop-color="#A96C48"/>
<stop offset="0.69" stop-color="#DFA37A"/>
<stop offset="0.81" stop-color="#8A5438"/>
<stop offset="0.96" stop-color="#A96847"/>
</linearGradient>
<linearGradient id="paint3_linear_642_1846" x1="21.2694" y1="3.3571" x2="21.2694" y2="13.9502" gradientUnits="userSpaceOnUse">
<stop offset="0.01" stop-color="#F8C297"/>
<stop offset="0.37" stop-color="#A96847"/>
<stop offset="0.5" stop-color="#A96C48"/>
<stop offset="0.69" stop-color="#DFA37A"/>
<stop offset="0.81" stop-color="#8A5438"/>
<stop offset="0.96" stop-color="#A96847"/>
</linearGradient>
<linearGradient id="paint4_linear_642_1846" x1="6.08877" y1="12.5567" x2="27.3812" y2="12.5567" gradientUnits="userSpaceOnUse">
<stop stop-color="#A75113"/>
<stop offset="0.18" stop-color="#B59E52"/>
<stop offset="0.33" stop-color="#B1692A"/>
<stop offset="0.37" stop-color="#B48943"/>
<stop offset="0.39" stop-color="#B38941"/>
<stop offset="0.43" stop-color="#A95012"/>
<stop offset="0.53" stop-color="#A95113"/>
<stop offset="0.57" stop-color="#AA5819"/>
<stop offset="0.59" stop-color="#AD6423"/>
<stop offset="0.62" stop-color="#B27B36"/>
<stop offset="0.77" stop-color="#B07531"/>
<stop offset="0.78" stop-color="#AC6524"/>
<stop offset="0.79" stop-color="#A9591A"/>
<stop offset="0.8" stop-color="#A75214"/>
<stop offset="0.85" stop-color="#A75113"/>
<stop offset="1" stop-color="#902400"/>
</linearGradient>
<linearGradient id="paint5_linear_642_1846" x1="6.08854" y1="13.084" x2="27.3809" y2="13.084" gradientUnits="userSpaceOnUse">
<stop stop-color="#F1C155"/>
<stop offset="0.18" stop-color="#FFFFB0"/>
<stop offset="0.33" stop-color="#FBD777"/>
<stop offset="0.37" stop-color="#FEEF9B"/>
<stop offset="0.39" stop-color="#FDEF99"/>
<stop offset="0.43" stop-color="#F3C154"/>
<stop offset="0.53" stop-color="#F3C255"/>
<stop offset="0.56" stop-color="#F4C65C"/>
<stop offset="0.59" stop-color="#F6CE68"/>
<stop offset="0.61" stop-color="#F9D979"/>
<stop offset="0.62" stop-color="#FCE489"/>
<stop offset="0.77" stop-color="#F8D97A"/>
<stop offset="0.78" stop-color="#F5CE69"/>
<stop offset="0.79" stop-color="#F2C65D"/>
<stop offset="0.81" stop-color="#F1C256"/>
<stop offset="0.85" stop-color="#F1C155"/>
<stop offset="1" stop-color="#DA9234"/>
</linearGradient>
<radialGradient id="paint6_radial_642_1846" cx="0" cy="0" r="1" gradientUnits="userSpaceOnUse" gradientTransform="translate(15.8728 6.2378) rotate(2.10489) scale(1.52672 1.66972)">
<stop stop-color="white"/>
<stop offset="0.14" stop-color="#FFF4E1" stop-opacity="0.82"/>
<stop offset="0.38" stop-color="#FFE3B1" stop-opacity="0.53"/>
<stop offset="0.59" stop-color="#FFD68C" stop-opacity="0.3"/>
<stop offset="0.77" stop-color="#FFCD71" stop-opacity="0.14"/>
<stop offset="0.92" stop-color="#FFC761" stop-opacity="0.04"/>
<stop offset="1" stop-color="#FFC55B" stop-opacity="0"/>
</radialGradient>
<radialGradient id="paint7_radial_642_1846" cx="0" cy="0" r="1" gradientUnits="userSpaceOnUse" gradientTransform="translate(16.3999 5.70582) rotate(91.9576) scale(3.22271 0.591298)">
<stop stop-color="white"/>
<stop offset="0.14" stop-color="#FFF4E1" stop-opacity="0.82"/>
<stop offset="0.38" stop-color="#FFE3B1" stop-opacity="0.53"/>
<stop offset="0.59" stop-color="#FFD68C" stop-opacity="0.3"/>
<stop offset="0.77" stop-color="#FFCD71" stop-opacity="0.14"/>
<stop offset="0.92" stop-color="#FFC761" stop-opacity="0.04"/>
<stop offset="1" stop-color="#FFC55B" stop-opacity="0"/>
</radialGradient>
<radialGradient id="paint8_radial_642_1846" cx="0" cy="0" r="1" gradientUnits="userSpaceOnUse" gradientTransform="translate(16.5187 6.01843) rotate(2.10489) scale(3.06313 0.619165)">
<stop stop-color="white"/>
<stop offset="0.14" stop-color="#FFF4E1" stop-opacity="0.82"/>
<stop offset="0.38" stop-color="#FFE3B1" stop-opacity="0.53"/>
<stop offset="0.59" stop-color="#FFD68C" stop-opacity="0.3"/>
<stop offset="0.77" stop-color="#FFCD71" stop-opacity="0.14"/>
<stop offset="0.92" stop-color="#FFC761" stop-opacity="0.04"/>
<stop offset="1" stop-color="#FFC55B" stop-opacity="0"/>
</radialGradient>
<radialGradient id="paint9_radial_642_1846" cx="0" cy="0" r="1" gradientUnits="userSpaceOnUse" gradientTransform="translate(15.9635 5.60972) rotate(2.10489) scale(2.91836 0.324322)">
<stop stop-color="white"/>
<stop offset="0.04" stop-color="#FFFBF4" stop-opacity="0.94"/>
<stop offset="0.19" stop-color="#FFEDCC" stop-opacity="0.69"/>
<stop offset="0.35" stop-color="#FFE0A9" stop-opacity="0.48"/>
<stop offset="0.5" stop-color="#FFD68D" stop-opacity="0.31"/>
<stop offset="0.64" stop-color="#FFCF77" stop-opacity="0.17"/>
<stop offset="0.77" stop-color="#FFC967" stop-opacity="0.08"/>
<stop offset="0.9" stop-color="#FFC65E" stop-opacity="0.02"/>
<stop offset="1" stop-color="#FFC55B" stop-opacity="0"/>
</radialGradient>
<radialGradient id="paint10_radial_642_1846" cx="0" cy="0" r="1" gradientUnits="userSpaceOnUse" gradientTransform="translate(15.7154 6.18543) rotate(2.10489) scale(1.44749 1.36892)">
<stop stop-color="white"/>
<stop offset="0.04" stop-color="#FFFBF4" stop-opacity="0.94"/>
<stop offset="0.19" stop-color="#FFEDCC" stop-opacity="0.69"/>
<stop offset="0.35" stop-color="#FFE0A9" stop-opacity="0.48"/>
<stop offset="0.5" stop-color="#FFD68D" stop-opacity="0.31"/>
<stop offset="0.64" stop-color="#FFCF77" stop-opacity="0.17"/>
<stop offset="0.77" stop-color="#FFC967" stop-opacity="0.08"/>
<stop offset="0.9" stop-color="#FFC65E" stop-opacity="0.02"/>
<stop offset="1" stop-color="#FFC55B" stop-opacity="0"/>
</radialGradient>
<radialGradient id="paint11_radial_642_1846" cx="0" cy="0" r="1" gradientUnits="userSpaceOnUse" gradientTransform="translate(15.4623 5.78513) rotate(91.9576) scale(3.06709 0.309725)">
<stop stop-color="white"/>
<stop offset="0.06" stop-color="#FFF7E9" stop-opacity="0.87"/>
<stop offset="0.16" stop-color="#FFEBC8" stop-opacity="0.67"/>
<stop offset="0.26" stop-color="#FFE1AB" stop-opacity="0.49"/>
<stop offset="0.37" stop-color="#FFD892" stop-opacity="0.34"/>
<stop offset="0.48" stop-color="#FFD17E" stop-opacity="0.22"/>
<stop offset="0.59" stop-color="#FFCB6E" stop-opacity="0.12"/>
<stop offset="0.71" stop-color="#FFC863" stop-opacity="0.05"/>
<stop offset="0.84" stop-color="#FFC55D" stop-opacity="0.01"/>
<stop offset="1" stop-color="#FFC55B" stop-opacity="0"/>
</radialGradient>
<radialGradient id="paint12_radial_642_1846" cx="0" cy="0" r="1" gradientUnits="userSpaceOnUse" gradientTransform="translate(7.07305 10.2015) rotate(2.10489) scale(1.52672 1.66972)">
<stop stop-color="white"/>
<stop offset="0.14" stop-color="#FFF4E1" stop-opacity="0.82"/>
<stop offset="0.38" stop-color="#FFE3B1" stop-opacity="0.53"/>
<stop offset="0.59" stop-color="#FFD68C" stop-opacity="0.3"/>
<stop offset="0.77" stop-color="#FFCD71" stop-opacity="0.14"/>
<stop offset="0.92" stop-color="#FFC761" stop-opacity="0.04"/>
<stop offset="1" stop-color="#FFC55B" stop-opacity="0"/>
</radialGradient>
<radialGradient id="paint13_radial_642_1846" cx="0" cy="0" r="1" gradientUnits="userSpaceOnUse" gradientTransform="translate(7.57774 9.66219) rotate(91.9576) scale(3.22271 0.591298)">
<stop stop-color="white"/>
<stop offset="0.14" stop-color="#FFF4E1" stop-opacity="0.82"/>
<stop offset="0.38" stop-color="#FFE3B1" stop-opacity="0.53"/>
<stop offset="0.59" stop-color="#FFD68C" stop-opacity="0.3"/>
<stop offset="0.77" stop-color="#FFCD71" stop-opacity="0.14"/>
<stop offset="0.92" stop-color="#FFC761" stop-opacity="0.04"/>
<stop offset="1" stop-color="#FFC55B" stop-opacity="0"/>
</radialGradient>
<radialGradient id="paint14_radial_642_1846" cx="0" cy="0" r="1" gradientUnits="userSpaceOnUse" gradientTransform="translate(7.72377 9.97476) rotate(2.10489) scale(3.06313 0.619165)">
<stop stop-color="white"/>
<stop offset="0.14" stop-color="#FFF4E1" stop-opacity="0.82"/>
<stop offset="0.38" stop-color="#FFE3B1" stop-opacity="0.53"/>
<stop offset="0.59" stop-color="#FFD68C" stop-opacity="0.3"/>
<stop offset="0.77" stop-color="#FFCD71" stop-opacity="0.14"/>
<stop offset="0.92" stop-color="#FFC761" stop-opacity="0.04"/>
<stop offset="1" stop-color="#FFC55B" stop-opacity="0"/>
</radialGradient>
<radialGradient id="paint15_radial_642_1846" cx="0" cy="0" r="1" gradientUnits="userSpaceOnUse" gradientTransform="translate(7.15075 9.55247) rotate(2.10489) scale(2.91836 0.324322)">
<stop stop-color="white"/>
<stop offset="0.04" stop-color="#FFFBF4" stop-opacity="0.94"/>
<stop offset="0.19" stop-color="#FFEDCC" stop-opacity="0.69"/>
<stop offset="0.35" stop-color="#FFE0A9" stop-opacity="0.48"/>
<stop offset="0.5" stop-color="#FFD68D" stop-opacity="0.31"/>
<stop offset="0.64" stop-color="#FFCF77" stop-opacity="0.17"/>
<stop offset="0.77" stop-color="#FFC967" stop-opacity="0.08"/>
<stop offset="0.9" stop-color="#FFC65E" stop-opacity="0.02"/>
<stop offset="1" stop-color="#FFC55B" stop-opacity="0"/>
</radialGradient>
<radialGradient id="paint16_radial_642_1846" cx="0" cy="0" r="1" gradientUnits="userSpaceOnUse" gradientTransform="translate(6.90662 10.1473) rotate(2.10489) scale(1.44749 1.36892)">
<stop stop-color="white"/>
<stop offset="0.04" stop-color="#FFFBF4" stop-opacity="0.94"/>
<stop offset="0.19" stop-color="#FFEDCC" stop-opacity="0.69"/>
<stop offset="0.35" stop-color="#FFE0A9" stop-opacity="0.48"/>
<stop offset="0.5" stop-color="#FFD68D" stop-opacity="0.31"/>
<stop offset="0.64" stop-color="#FFCF77" stop-opacity="0.17"/>
<stop offset="0.77" stop-color="#FFC967" stop-opacity="0.08"/>
<stop offset="0.9" stop-color="#FFC65E" stop-opacity="0.02"/>
<stop offset="1" stop-color="#FFC55B" stop-opacity="0"/>
</radialGradient>
<radialGradient id="paint17_radial_642_1846" cx="0" cy="0" r="1" gradientUnits="userSpaceOnUse" gradientTransform="translate(6.66316 9.74219) rotate(91.9576) scale(3.06709 0.309725)">
<stop stop-color="white"/>
<stop offset="0.06" stop-color="#FFF7E9" stop-opacity="0.87"/>
<stop offset="0.16" stop-color="#FFEBC8" stop-opacity="0.67"/>
<stop offset="0.26" stop-color="#FFE1AB" stop-opacity="0.49"/>
<stop offset="0.37" stop-color="#FFD892" stop-opacity="0.34"/>
<stop offset="0.48" stop-color="#FFD17E" stop-opacity="0.22"/>
<stop offset="0.59" stop-color="#FFCB6E" stop-opacity="0.12"/>
<stop offset="0.71" stop-color="#FFC863" stop-opacity="0.05"/>
<stop offset="0.84" stop-color="#FFC55D" stop-opacity="0.01"/>
<stop offset="1" stop-color="#FFC55B" stop-opacity="0"/>
</radialGradient>
<radialGradient id="paint18_radial_642_1846" cx="0" cy="0" r="1" gradientUnits="userSpaceOnUse" gradientTransform="translate(16.5971 19.0159) rotate(2.10489) scale(1.52672 1.66972)">
<stop stop-color="white"/>
<stop offset="0.14" stop-color="#FFF4E1" stop-opacity="0.82"/>
<stop offset="0.38" stop-color="#FFE3B1" stop-opacity="0.53"/>
<stop offset="0.59" stop-color="#FFD68C" stop-opacity="0.3"/>
<stop offset="0.77" stop-color="#FFCD71" stop-opacity="0.14"/>
<stop offset="0.92" stop-color="#FFC761" stop-opacity="0.04"/>
<stop offset="1" stop-color="#FFC55B" stop-opacity="0"/>
</radialGradient>
<radialGradient id="paint19_radial_642_1846" cx="0" cy="0" r="1" gradientUnits="userSpaceOnUse" gradientTransform="translate(17.1165 18.478) rotate(91.9576) scale(3.22271 0.591298)">
<stop stop-color="white"/>
<stop offset="0.14" stop-color="#FFF4E1" stop-opacity="0.82"/>
<stop offset="0.38" stop-color="#FFE3B1" stop-opacity="0.53"/>
<stop offset="0.59" stop-color="#FFD68C" stop-opacity="0.3"/>
<stop offset="0.77" stop-color="#FFCD71" stop-opacity="0.14"/>
<stop offset="0.92" stop-color="#FFC761" stop-opacity="0.04"/>
<stop offset="1" stop-color="#FFC55B" stop-opacity="0"/>
</radialGradient>
<radialGradient id="paint20_radial_642_1846" cx="0" cy="0" r="1" gradientUnits="userSpaceOnUse" gradientTransform="translate(17.2476 18.7671) rotate(2.10489) scale(3.06313 0.619165)">
<stop stop-color="white"/>
<stop offset="0.14" stop-color="#FFF4E1" stop-opacity="0.82"/>
<stop offset="0.38" stop-color="#FFE3B1" stop-opacity="0.53"/>
<stop offset="0.59" stop-color="#FFD68C" stop-opacity="0.3"/>
<stop offset="0.77" stop-color="#FFCD71" stop-opacity="0.14"/>
<stop offset="0.92" stop-color="#FFC761" stop-opacity="0.04"/>
<stop offset="1" stop-color="#FFC55B" stop-opacity="0"/>
</radialGradient>
<radialGradient id="paint21_radial_642_1846" cx="0" cy="0" r="1" gradientUnits="userSpaceOnUse" gradientTransform="translate(16.68 18.3249) rotate(2.10489) scale(2.91836 0.324322)">
<stop stop-color="white"/>
<stop offset="0.04" stop-color="#FFFBF4" stop-opacity="0.94"/>
<stop offset="0.19" stop-color="#FFEDCC" stop-opacity="0.69"/>
<stop offset="0.35" stop-color="#FFE0A9" stop-opacity="0.48"/>
<stop offset="0.5" stop-color="#FFD68D" stop-opacity="0.31"/>
<stop offset="0.64" stop-color="#FFCF77" stop-opacity="0.17"/>
<stop offset="0.77" stop-color="#FFC967" stop-opacity="0.08"/>
<stop offset="0.9" stop-color="#FFC65E" stop-opacity="0.02"/>
<stop offset="1" stop-color="#FFC55B" stop-opacity="0"/>
</radialGradient>
<radialGradient id="paint22_radial_642_1846" cx="0" cy="0" r="1" gradientUnits="userSpaceOnUse" gradientTransform="translate(16.4395 18.945) rotate(2.10489) scale(1.44749 1.36892)">
<stop stop-color="white"/>
<stop offset="0.04" stop-color="#FFFBF4" stop-opacity="0.94"/>
<stop offset="0.19" stop-color="#FFEDCC" stop-opacity="0.69"/>
<stop offset="0.35" stop-color="#FFE0A9" stop-opacity="0.48"/>
<stop offset="0.5" stop-color="#FFD68D" stop-opacity="0.31"/>
<stop offset="0.64" stop-color="#FFCF77" stop-opacity="0.17"/>
<stop offset="0.77" stop-color="#FFC967" stop-opacity="0.08"/>
<stop offset="0.9" stop-color="#FFC65E" stop-opacity="0.02"/>
<stop offset="1" stop-color="#FFC55B" stop-opacity="0"/>
</radialGradient>
<radialGradient id="paint23_radial_642_1846" cx="0" cy="0" r="1" gradientUnits="userSpaceOnUse" gradientTransform="translate(16.1762 18.5558) rotate(91.9576) scale(3.06709 0.309725)">
<stop stop-color="white"/>
<stop offset="0.06" stop-color="#FFF7E9" stop-opacity="0.87"/>
<stop offset="0.16" stop-color="#FFEBC8" stop-opacity="0.67"/>
<stop offset="0.26" stop-color="#FFE1AB" stop-opacity="0.49"/>
<stop offset="0.37" stop-color="#FFD892" stop-opacity="0.34"/>
<stop offset="0.48" stop-color="#FFD17E" stop-opacity="0.22"/>
<stop offset="0.59" stop-color="#FFCB6E" stop-opacity="0.12"/>
<stop offset="0.71" stop-color="#FFC863" stop-opacity="0.05"/>
<stop offset="0.84" stop-color="#FFC55D" stop-opacity="0.01"/>
<stop offset="1" stop-color="#FFC55B" stop-opacity="0"/>
</radialGradient>
<radialGradient id="paint24_radial_642_1846" cx="0" cy="0" r="1" gradientUnits="userSpaceOnUse" gradientTransform="translate(12.8578 8.32312) scale(2.83386 2.96776)">
<stop stop-color="#DE5789"/>
<stop offset="1" stop-color="#9E002B"/>
</radialGradient>
<radialGradient id="paint25_radial_642_1846" cx="0" cy="0" r="1" gradientUnits="userSpaceOnUse" gradientTransform="translate(12.8578 8.32312) scale(2.83386 2.96776)">
<stop stop-color="#FFD4E4"/>
<stop offset="1" stop-color="#FF6F96"/>
</radialGradient>
<radialGradient id="paint26_radial_642_1846" cx="0" cy="0" r="1" gradientUnits="userSpaceOnUse" gradientTransform="translate(12.8578 8.32312) scale(2.83386 2.96776)">
<stop stop-color="#FF649D"/>
<stop offset="1" stop-color="#C40035"/>
</radialGradient>
<radialGradient id="paint27_radial_642_1846" cx="0" cy="0" r="1" gradientUnits="userSpaceOnUse" gradientTransform="translate(1.07258 8.41346) scale(2.83386 2.81937)">
<stop stop-color="#FF649D"/>
<stop offset="1" stop-color="#C40035"/>
</radialGradient>
<radialGradient id="paint28_radial_642_1846" cx="0" cy="0" r="1" gradientUnits="userSpaceOnUse" gradientTransform="translate(12.8535 8.74982) scale(2.12285 2.112)">
<stop stop-color="#FF649D"/>
<stop offset="1" stop-color="#C40035"/>
</radialGradient>
<radialGradient id="paint29_radial_642_1846" cx="0" cy="0" r="1" gradientUnits="userSpaceOnUse" gradientTransform="translate(12.8535 9.9177) scale(1.38573 1.37865)">
<stop stop-color="#FF649D"/>
<stop offset="1" stop-color="#C40035"/>
</radialGradient>
<linearGradient id="paint30_linear_642_1846" x1="12.2687" y1="9.89893" x2="12.2958" y2="8.06026" gradientUnits="userSpaceOnUse">
<stop stop-color="#E7E9FF" stop-opacity="0"/>
<stop offset="1" stop-color="#E7E9FF"/>
</linearGradient>
<radialGradient id="paint31_radial_642_1846" cx="0" cy="0" r="1" gradientUnits="userSpaceOnUse" gradientTransform="translate(12.8477 9.15836) scale(1.25369 1.24728)">
<stop stop-color="#FF649D"/>
<stop offset="1" stop-color="#C40035"/>
</radialGradient>
<radialGradient id="paint32_radial_642_1846" cx="0" cy="0" r="1" gradientUnits="userSpaceOnUse" gradientTransform="translate(12.7103 8.21262) rotate(2.10489) scale(0.379394 0.414929)">
<stop stop-color="white"/>
<stop offset="0.14" stop-color="#FFF4E1" stop-opacity="0.82"/>
<stop offset="0.38" stop-color="#FFE3B1" stop-opacity="0.53"/>
<stop offset="0.59" stop-color="#FFD68C" stop-opacity="0.3"/>
<stop offset="0.77" stop-color="#FFCD71" stop-opacity="0.14"/>
<stop offset="0.92" stop-color="#FFC761" stop-opacity="0.04"/>
<stop offset="1" stop-color="#FFC55B" stop-opacity="0"/>
</radialGradient>
<radialGradient id="paint33_radial_642_1846" cx="0" cy="0" r="1" gradientUnits="userSpaceOnUse" gradientTransform="translate(13.2292 7.67257) rotate(91.9576) scale(0.800854 0.14694)">
<stop stop-color="white"/>
<stop offset="0.14" stop-color="#FFF4E1" stop-opacity="0.82"/>
<stop offset="0.38" stop-color="#FFE3B1" stop-opacity="0.53"/>
<stop offset="0.59" stop-color="#FFD68C" stop-opacity="0.3"/>
<stop offset="0.77" stop-color="#FFCD71" stop-opacity="0.14"/>
<stop offset="0.92" stop-color="#FFC761" stop-opacity="0.04"/>
<stop offset="1" stop-color="#FFC55B" stop-opacity="0"/>
</radialGradient>
<radialGradient id="paint34_radial_642_1846" cx="0" cy="0" r="1" gradientUnits="userSpaceOnUse" gradientTransform="translate(13.3602 7.98926) rotate(2.10489) scale(0.761196 0.153864)">
<stop stop-color="white"/>
<stop offset="0.14" stop-color="#FFF4E1" stop-opacity="0.82"/>
<stop offset="0.38" stop-color="#FFE3B1" stop-opacity="0.53"/>
<stop offset="0.59" stop-color="#FFD68C" stop-opacity="0.3"/>
<stop offset="0.77" stop-color="#FFCD71" stop-opacity="0.14"/>
<stop offset="0.92" stop-color="#FFC761" stop-opacity="0.04"/>
<stop offset="1" stop-color="#FFC55B" stop-opacity="0"/>
</radialGradient>
<radialGradient id="paint35_radial_642_1846" cx="0" cy="0" r="1" gradientUnits="userSpaceOnUse" gradientTransform="translate(12.7872 7.57428) rotate(2.10489) scale(0.729591 0.0810803)">
<stop stop-color="white"/>
<stop offset="0.04" stop-color="#FFFBF4" stop-opacity="0.94"/>
<stop offset="0.19" stop-color="#FFEDCC" stop-opacity="0.69"/>
<stop offset="0.35" stop-color="#FFE0A9" stop-opacity="0.48"/>
<stop offset="0.5" stop-color="#FFD68D" stop-opacity="0.31"/>
<stop offset="0.64" stop-color="#FFCF77" stop-opacity="0.17"/>
<stop offset="0.77" stop-color="#FFC967" stop-opacity="0.08"/>
<stop offset="0.9" stop-color="#FFC65E" stop-opacity="0.02"/>
<stop offset="1" stop-color="#FFC55B" stop-opacity="0"/>
</radialGradient>
<radialGradient id="paint36_radial_642_1846" cx="0" cy="0" r="1" gradientUnits="userSpaceOnUse" gradientTransform="translate(12.5458 8.15631) rotate(2.10489) scale(0.358426 0.33897)">
<stop stop-color="white"/>
<stop offset="0.04" stop-color="#FFFBF4" stop-opacity="0.94"/>
<stop offset="0.19" stop-color="#FFEDCC" stop-opacity="0.69"/>
<stop offset="0.35" stop-color="#FFE0A9" stop-opacity="0.48"/>
<stop offset="0.5" stop-color="#FFD68D" stop-opacity="0.31"/>
<stop offset="0.64" stop-color="#FFCF77" stop-opacity="0.17"/>
<stop offset="0.77" stop-color="#FFC967" stop-opacity="0.08"/>
<stop offset="0.9" stop-color="#FFC65E" stop-opacity="0.02"/>
<stop offset="1" stop-color="#FFC55B" stop-opacity="0"/>
</radialGradient>
<radialGradient id="paint37_radial_642_1846" cx="0" cy="0" r="1" gradientUnits="userSpaceOnUse" gradientTransform="translate(12.2988 7.7683) rotate(91.9576) scale(0.766772 0.0774311)">
<stop stop-color="white"/>
<stop offset="0.06" stop-color="#FFF7E9" stop-opacity="0.87"/>
<stop offset="0.16" stop-color="#FFEBC8" stop-opacity="0.67"/>
<stop offset="0.26" stop-color="#FFE1AB" stop-opacity="0.49"/>
<stop offset="0.37" stop-color="#FFD892" stop-opacity="0.34"/>
<stop offset="0.48" stop-color="#FFD17E" stop-opacity="0.22"/>
<stop offset="0.59" stop-color="#FFCB6E" stop-opacity="0.12"/>
<stop offset="0.71" stop-color="#FFC863" stop-opacity="0.05"/>
<stop offset="0.84" stop-color="#FFC55D" stop-opacity="0.01"/>
<stop offset="1" stop-color="#FFC55B" stop-opacity="0"/>
</radialGradient>
<radialGradient id="paint38_radial_642_1846" cx="0" cy="0" r="1" gradientUnits="userSpaceOnUse" gradientTransform="translate(13.4133 9.75422) rotate(2.10489) scale(0.379394 0.414929)">
<stop stop-color="white"/>
<stop offset="0.14" stop-color="#FFF4E1" stop-opacity="0.82"/>
<stop offset="0.38" stop-color="#FFE3B1" stop-opacity="0.53"/>
<stop offset="0.59" stop-color="#FFD68C" stop-opacity="0.3"/>
<stop offset="0.77" stop-color="#FFCD71" stop-opacity="0.14"/>
<stop offset="0.92" stop-color="#FFC761" stop-opacity="0.04"/>
<stop offset="1" stop-color="#FFC55B" stop-opacity="0"/>
</radialGradient>
<radialGradient id="paint39_radial_642_1846" cx="0" cy="0" r="1" gradientUnits="userSpaceOnUse" gradientTransform="translate(13.9293 9.21474) rotate(91.9576) scale(0.800854 0.14694)">
<stop stop-color="white"/>
<stop offset="0.14" stop-color="#FFF4E1" stop-opacity="0.82"/>
<stop offset="0.38" stop-color="#FFE3B1" stop-opacity="0.53"/>
<stop offset="0.59" stop-color="#FFD68C" stop-opacity="0.3"/>
<stop offset="0.77" stop-color="#FFCD71" stop-opacity="0.14"/>
<stop offset="0.92" stop-color="#FFC761" stop-opacity="0.04"/>
<stop offset="1" stop-color="#FFC55B" stop-opacity="0"/>
</radialGradient>
<radialGradient id="paint40_radial_642_1846" cx="0" cy="0" r="1" gradientUnits="userSpaceOnUse" gradientTransform="translate(14.0612 9.52688) rotate(2.10489) scale(0.761196 0.153864)">
<stop stop-color="white"/>
<stop offset="0.14" stop-color="#FFF4E1" stop-opacity="0.82"/>
<stop offset="0.38" stop-color="#FFE3B1" stop-opacity="0.53"/>
<stop offset="0.59" stop-color="#FFD68C" stop-opacity="0.3"/>
<stop offset="0.77" stop-color="#FFCD71" stop-opacity="0.14"/>
<stop offset="0.92" stop-color="#FFC761" stop-opacity="0.04"/>
<stop offset="1" stop-color="#FFC55B" stop-opacity="0"/>
</radialGradient>
<radialGradient id="paint41_radial_642_1846" cx="0" cy="0" r="1" gradientUnits="userSpaceOnUse" gradientTransform="translate(13.4976 9.10667) rotate(2.10489) scale(0.729591 0.0810805)">
<stop stop-color="white"/>
<stop offset="0.04" stop-color="#FFFBF4" stop-opacity="0.94"/>
<stop offset="0.19" stop-color="#FFEDCC" stop-opacity="0.69"/>
<stop offset="0.35" stop-color="#FFE0A9" stop-opacity="0.48"/>
<stop offset="0.5" stop-color="#FFD68D" stop-opacity="0.31"/>
<stop offset="0.64" stop-color="#FFCF77" stop-opacity="0.17"/>
<stop offset="0.77" stop-color="#FFC967" stop-opacity="0.08"/>
<stop offset="0.9" stop-color="#FFC65E" stop-opacity="0.02"/>
<stop offset="1" stop-color="#FFC55B" stop-opacity="0"/>
</radialGradient>
<radialGradient id="paint42_radial_642_1846" cx="0" cy="0" r="1" gradientUnits="userSpaceOnUse" gradientTransform="translate(13.246 9.69539) rotate(2.10488) scale(0.358426 0.338969)">
<stop stop-color="white"/>
<stop offset="0.04" stop-color="#FFFBF4" stop-opacity="0.94"/>
<stop offset="0.19" stop-color="#FFEDCC" stop-opacity="0.69"/>
<stop offset="0.35" stop-color="#FFE0A9" stop-opacity="0.48"/>
<stop offset="0.5" stop-color="#FFD68D" stop-opacity="0.31"/>
<stop offset="0.64" stop-color="#FFCF77" stop-opacity="0.17"/>
<stop offset="0.77" stop-color="#FFC967" stop-opacity="0.08"/>
<stop offset="0.9" stop-color="#FFC65E" stop-opacity="0.02"/>
<stop offset="1" stop-color="#FFC55B" stop-opacity="0"/>
</radialGradient>
<radialGradient id="paint43_radial_642_1846" cx="0" cy="0" r="1" gradientUnits="userSpaceOnUse" gradientTransform="translate(12.9978 9.29575) rotate(91.9576) scale(0.766771 0.0774311)">
<stop stop-color="white"/>
<stop offset="0.06" stop-color="#FFF7E9" stop-opacity="0.87"/>
<stop offset="0.16" stop-color="#FFEBC8" stop-opacity="0.67"/>
<stop offset="0.26" stop-color="#FFE1AB" stop-opacity="0.49"/>
<stop offset="0.37" stop-color="#FFD892" stop-opacity="0.34"/>
<stop offset="0.48" stop-color="#FFD17E" stop-opacity="0.22"/>
<stop offset="0.59" stop-color="#FFCB6E" stop-opacity="0.12"/>
<stop offset="0.71" stop-color="#FFC863" stop-opacity="0.05"/>
<stop offset="0.84" stop-color="#FFC55D" stop-opacity="0.01"/>
<stop offset="1" stop-color="#FFC55B" stop-opacity="0"/>
</radialGradient>
</defs>
</svg>
