<svg width="30" height="30" viewBox="0 0 30 30" fill="none" xmlns="http://www.w3.org/2000/svg">
<path fill-rule="evenodd" clip-rule="evenodd" d="M9.47591 9.39964C9.58009 9.49629 9.66386 9.61214 9.72244 9.74059C9.78102 9.86905 9.81325 10.0076 9.8173 10.1483C9.82136 10.289 9.79715 10.4291 9.74606 10.5605C9.69496 10.692 9.61799 10.8124 9.51954 10.9146L6.62213 13.9286L25.9091 13.9286C26.1984 13.9286 26.4759 14.0415 26.6805 14.2424C26.8851 14.4433 27 14.7158 27 15C27 15.2842 26.8851 15.5567 26.6805 15.7576C26.4759 15.9585 26.1984 16.0714 25.9091 16.0714L6.62213 16.0714L9.52063 19.0854C9.61905 19.1876 9.69599 19.308 9.74706 19.4395C9.79814 19.571 9.82234 19.7111 9.81828 19.8517C9.81423 19.9924 9.78201 20.1309 9.72345 20.2594C9.66489 20.3878 9.58115 20.5037 9.477 20.6004C9.37285 20.697 9.25034 20.7726 9.11645 20.8227C8.98257 20.8729 8.83994 20.8967 8.6967 20.8927C8.55347 20.8887 8.41243 20.8571 8.28165 20.7996C8.15086 20.742 8.0329 20.6598 7.93448 20.5575L3.29819 15.7361C3.1067 15.5371 3 15.2738 3 15C3 14.7262 3.1067 14.4629 3.29819 14.2639L7.93448 9.4425C8.13317 9.23618 8.40713 9.11577 8.69616 9.10773C8.9852 9.09969 9.26565 9.20469 9.47591 9.39964ZM12.8184 8.57143C12.8184 8.28727 12.9333 8.01475 13.1379 7.81381C13.3425 7.61288 13.62 7.5 13.9093 7.5L25.9091 7.5C26.1984 7.5 26.4759 7.61288 26.6805 7.81381C26.8851 8.01475 27 8.28727 27 8.57143C27 8.85559 26.8851 9.12811 26.6805 9.32904C26.4759 9.52997 26.1984 9.64286 25.9091 9.64286L13.9093 9.64286C13.62 9.64286 13.3425 9.52997 13.1379 9.32904C12.9333 9.12811 12.8184 8.85559 12.8184 8.57143ZM12.8184 21.4286C12.8184 21.1444 12.9333 20.8719 13.1379 20.671C13.3425 20.47 13.62 20.3571 13.9093 20.3571L25.9091 20.3571C26.1984 20.3571 26.4759 20.47 26.6805 20.671C26.8851 20.8719 27 21.1444 27 21.4286C27 21.7127 26.8851 21.9853 26.6805 22.1862C26.4759 22.3871 26.1984 22.5 25.9091 22.5L13.9093 22.5C13.62 22.5 13.3425 22.3871 13.1379 22.1862C12.9333 21.9853 12.8184 21.7127 12.8184 21.4286Z" fill="white"/>
</svg>
