<svg width="24" height="24" viewBox="0 0 24 24" fill="none" xmlns="http://www.w3.org/2000/svg">
<path d="M15.3401 17.44C15.6042 17.229 15.8455 16.9911 16.0601 16.73C16.2019 16.5528 16.3629 16.3918 16.5401 16.25C16.7303 16.1226 16.9351 16.0185 17.1501 15.94C17.4965 15.8049 17.8311 15.641 18.1501 15.45C18.3831 15.294 18.5863 15.0975 18.7501 14.87C19.0625 14.3886 19.2419 13.8331 19.2701 13.26C19.2701 13.2 19.2701 13.15 19.2701 13.09C19.2813 12.8573 19.3148 12.6262 19.3701 12.4C19.458 12.1956 19.5617 11.9983 19.6801 11.81C20.0536 11.2803 20.2718 10.6569 20.3101 10.01C20.2718 9.363 20.0536 8.73959 19.6801 8.20996C19.5617 8.02158 19.458 7.82433 19.3701 7.61996C19.3148 7.39367 19.2813 7.16262 19.2701 6.92996C19.2533 6.29576 19.0668 5.67765 18.7301 5.13995C18.3205 4.64874 17.7846 4.27875 17.1801 4.06996C16.9651 3.99141 16.7603 3.88733 16.5701 3.75996C16.3953 3.61548 16.2346 3.45476 16.0901 3.27996C15.7043 2.76704 15.1856 2.36937 14.5901 2.12996C13.9848 1.96254 13.3454 1.96254 12.7401 2.12996C12.2731 2.23982 11.787 2.23982 11.3201 2.12996C10.7148 1.96254 10.0754 1.96254 9.47008 2.12996C8.87459 2.36937 8.35588 2.76704 7.97008 3.27996C7.82825 3.45715 7.66727 3.61813 7.49008 3.75996C7.29988 3.88733 7.09508 3.99141 6.88008 4.06996C6.26587 4.27109 5.71911 4.6379 5.30008 5.12996C4.96337 5.66765 4.7769 6.28576 4.76008 6.91996C4.74884 7.15262 4.71535 7.38367 4.66008 7.60996C4.57213 7.81433 4.46848 8.01158 4.35008 8.19995C3.97657 8.72959 3.75837 9.353 3.72008 9.99996C3.75837 10.6469 3.97657 11.2703 4.35008 11.8C4.46848 11.9883 4.57213 12.1856 4.66008 12.39C4.71535 12.6162 4.74884 12.8473 4.76008 13.08C4.76008 13.13 4.76008 13.19 4.76008 13.25C4.7879 13.8263 4.96727 14.3851 5.28008 14.87C5.44387 15.0975 5.64708 15.294 5.88008 15.45C6.18306 15.6386 6.50076 15.8024 6.83008 15.94C7.04508 16.0185 7.24988 16.1226 7.44008 16.25C7.61488 16.3944 7.7756 16.5552 7.92008 16.73C8.13468 16.9911 8.37599 17.229 8.64008 17.44C8.86859 17.6365 9.13365 17.7861 9.42008 17.88C9.80933 17.9945 10.2191 18.0218 10.6201 17.96C10.8391 17.9292 11.0561 17.8858 11.2701 17.83C11.737 17.7201 12.2231 17.7201 12.6901 17.83C12.9041 17.8858 13.1211 17.9292 13.3401 17.96C13.4899 17.9702 13.6403 17.9702 13.7901 17.96C14.041 17.9619 14.2906 17.9248 14.5301 17.85C14.8247 17.7687 15.1001 17.6293 15.3401 17.44ZM12.0001 14C11.209 14 10.4356 13.7654 9.7778 13.3258C9.12 12.8863 8.60731 12.2616 8.30456 11.5307C8.00181 10.7998 7.9226 9.99552 8.07694 9.21959C8.23128 8.44367 8.61224 7.73094 9.17165 7.17153C9.73106 6.61212 10.4438 6.23115 11.2197 6.07681C11.9956 5.92247 12.7999 6.00169 13.5308 6.30444C14.2617 6.60719 14.8864 7.11988 15.326 7.77767C15.7655 8.43547 16.0001 9.20883 16.0001 9.99996C16.0001 11.0608 15.5786 12.0782 14.8285 12.8284C14.0784 13.5785 13.0609 14 12.0001 14ZM9.14008 18.84C9.46515 18.9335 9.80181 18.9806 10.1401 18.98L8.89008 21.45C8.81868 21.5924 8.71427 21.7157 8.58555 21.8097C8.45683 21.9036 8.30752 21.9654 8.15008 21.99H8.00008C7.86609 21.9907 7.73331 21.9646 7.60962 21.913C7.48594 21.8615 7.37387 21.7856 7.28008 21.69L5.60008 20H3.00008C2.83032 19.9927 2.6645 19.9465 2.5154 19.865C2.3663 19.7835 2.23789 19.6689 2.14008 19.53C2.05231 19.3779 2.0061 19.2055 2.0061 19.03C2.0061 18.8544 2.05231 18.682 2.14008 18.53L4.14008 14.65C4.24081 14.9273 4.37874 15.1897 4.55008 15.43C4.79163 15.7561 5.08562 16.04 5.42008 16.27C5.77645 16.4854 6.14734 16.6759 6.53008 16.84C6.61008 16.84 6.85008 16.98 6.95008 17.04C7.05008 17.1 7.13008 17.23 7.25008 17.36C7.47248 17.6634 7.72365 17.9447 8.00008 18.2C8.33495 18.4852 8.72215 18.7026 9.14008 18.84ZM21.8501 19.53C21.7567 19.671 21.6307 19.7873 21.4827 19.8691C21.3347 19.951 21.1691 19.9959 21.0001 20H18.4001L16.7201 21.7C16.6263 21.7956 16.5142 21.8715 16.3905 21.923C16.2668 21.9746 16.1341 22.0007 16.0001 22H15.8501C15.6926 21.9754 15.5433 21.9136 15.4146 21.8197C15.2859 21.7257 15.1815 21.6024 15.1101 21.46L13.8801 19C14.2194 18.9948 14.5561 18.9409 14.8801 18.84C15.272 18.7155 15.6356 18.515 15.9501 18.25C16.2721 17.9942 16.567 17.706 16.8301 17.39C16.9262 17.2639 17.037 17.1498 17.1601 17.05L17.6001 16.85C17.9693 16.6884 18.3268 16.5012 18.6701 16.29C18.9978 16.0667 19.2852 15.7895 19.5201 15.47C19.6968 15.2242 19.8381 14.9549 19.9401 14.67L21.9401 18.56C22.009 18.7159 22.0369 18.8869 22.0212 19.0567C22.0054 19.2264 21.9465 19.3894 21.8501 19.53Z" fill="url(#paint0_linear_206_123338)"/>
<defs>
<linearGradient id="paint0_linear_206_123338" x1="12.1308" y1="22" x2="12.1308" y2="2.0044" gradientUnits="userSpaceOnUse">
<stop stop-color="#F05754"/>
<stop offset="0.495" stop-color="#F4864D"/>
<stop offset="1" stop-color="#FBC945"/>
</linearGradient>
</defs>
</svg>
