<svg width="24" height="24" viewBox="0 0 24 24" fill="none" xmlns="http://www.w3.org/2000/svg">
<path d="M21 13V17C21 17.2626 20.9483 17.5227 20.8478 17.7654C20.7472 18.008 20.5999 18.2285 20.4142 18.4142C20.2285 18.5999 20.008 18.7473 19.7654 18.8478C19.5227 18.9483 19.2626 19 19 19V20C19 20.7957 18.6839 21.5587 18.1213 22.1213C17.5587 22.6839 16.7956 23 16 23H13C12.7348 23 12.4804 22.8946 12.2929 22.7071C12.1054 22.5196 12 22.2652 12 22V21.5C12 21.3674 12.0527 21.2402 12.1464 21.1464C12.2402 21.0527 12.3674 21 12.5 21H16C16.2652 21 16.5196 20.8946 16.7071 20.7071C16.8946 20.5196 17 20.2652 17 20V19C16.7348 19 16.4804 18.8946 16.2929 18.7071C16.1054 18.5196 16 18.2652 16 18V12C16 11.7348 16.1054 11.4804 16.2929 11.2929C16.4804 11.1054 16.7348 11 17 11V8C17 6.67392 16.4732 5.40215 15.5355 4.46447C14.5979 3.52678 13.3261 3 12 3C10.6739 3 9.40215 3.52678 8.46447 4.46447C7.52678 5.40215 7 6.67392 7 8V11C7.26522 11 7.51957 11.1054 7.70711 11.2929C7.89464 11.4804 8 11.7348 8 12V18C8 18.2652 7.89464 18.5196 7.70711 18.7071C7.51957 18.8946 7.26522 19 7 19H5C4.73736 19 4.47728 18.9483 4.23463 18.8478C3.99198 18.7473 3.7715 18.5999 3.58579 18.4142C3.40007 18.2285 3.25275 18.008 3.15224 17.7654C3.05173 17.5227 3 17.2626 3 17V13C3 12.7374 3.05173 12.4773 3.15224 12.2346C3.25275 11.992 3.40007 11.7715 3.58579 11.5858C3.7715 11.4001 3.99198 11.2528 4.23463 11.1522C4.47728 11.0517 4.73736 11 5 11V8C5 6.14349 5.7375 4.36301 7.05025 3.05025C8.36301 1.7375 10.1435 1 12 1C13.8565 1 15.637 1.7375 16.9497 3.05025C18.2625 4.36301 19 6.14349 19 8V11C19.2626 11 19.5227 11.0517 19.7654 11.1522C20.008 11.2528 20.2285 11.4001 20.4142 11.5858C20.5999 11.7715 20.7472 11.992 20.8478 12.2346C20.9483 12.4773 21 12.7374 21 13Z" fill="white"/>
</svg>
