<svg width="46" height="46" viewBox="0 0 46 46" fill="none" xmlns="http://www.w3.org/2000/svg">
<path d="M23.3176 31.6493C23.9657 31.6493 24.4792 30.2942 24.7361 28.9254C24.2231 28.7158 23.7553 28.4306 23.3176 28.1152C22.8804 28.4303 22.4128 28.7151 21.9004 28.9247C22.1586 30.2936 22.6724 31.6493 23.3176 31.6493Z" fill="#595D6B"/>
<path d="M23.3176 31.6493C23.9657 31.6493 24.4792 30.2942 24.7361 28.9254C24.2231 28.7158 23.7553 28.4306 23.3176 28.1152C22.8804 28.4303 22.4128 28.7151 21.9004 28.9247C22.1586 30.2936 22.6724 31.6493 23.3176 31.6493Z" fill="url(#paint0_linear_2369_30539)"/>
<path d="M16.875 25.3203L18.7206 36.5H27.9276L29.7732 25.3203H28.8613V26.9023C28.8613 28.1319 27.9007 29.3269 26.297 29.2561C25.9932 30.9211 25.2305 33.2305 23.3242 33.2305C21.4179 33.2305 20.6552 30.9211 20.3514 29.2561C18.7761 29.3257 17.7871 28.1555 17.7871 26.9023V25.3203H16.875ZM15.2913 25.4401C13.5999 25.8432 12.25 27.3979 12.25 29.2754V35.709C12.25 36.1462 12.6038 36.5 13.041 36.5H17.1169L15.2913 25.4401ZM31.3568 25.4401L29.5313 36.5H33.6074C34.0446 36.5 34.3984 36.1462 34.3984 35.709V29.2754C34.3984 27.3818 33.0382 25.8406 31.3568 25.4401ZM16.2051 23.7383H18.2403C17.4473 22.5662 16.9961 21.1979 16.9961 19.7832V16.6191C16.9961 15.3106 18.0606 14.2461 19.3691 14.2461C21.4355 14.2461 22.4305 13.3632 22.4722 13.3253C22.9017 12.909 23.505 12.6641 24.1152 12.6641C27.1681 12.6641 29.6523 15.1483 29.6523 18.2012V19.7832C29.6523 21.1972 29.2009 22.5655 28.4073 23.7383H30.4434C31.0077 23.7383 31.5519 23.8367 32.075 23.9991C31.2514 21.0848 31.2344 17.4579 31.2344 17.4102C31.2344 13.0488 27.6856 9.5 23.3242 9.5C18.9628 9.5 15.4141 13.0488 15.4141 17.4102C15.4141 17.4579 15.397 21.0845 14.5734 23.9989C15.0964 23.8367 15.6407 23.7383 16.2051 23.7383Z" fill="#595D6B"/>
<path d="M16.875 25.3203L18.7206 36.5H27.9276L29.7732 25.3203H28.8613V26.9023C28.8613 28.1319 27.9007 29.3269 26.297 29.2561C25.9932 30.9211 25.2305 33.2305 23.3242 33.2305C21.4179 33.2305 20.6552 30.9211 20.3514 29.2561C18.7761 29.3257 17.7871 28.1555 17.7871 26.9023V25.3203H16.875ZM15.2913 25.4401C13.5999 25.8432 12.25 27.3979 12.25 29.2754V35.709C12.25 36.1462 12.6038 36.5 13.041 36.5H17.1169L15.2913 25.4401ZM31.3568 25.4401L29.5313 36.5H33.6074C34.0446 36.5 34.3984 36.1462 34.3984 35.709V29.2754C34.3984 27.3818 33.0382 25.8406 31.3568 25.4401ZM16.2051 23.7383H18.2403C17.4473 22.5662 16.9961 21.1979 16.9961 19.7832V16.6191C16.9961 15.3106 18.0606 14.2461 19.3691 14.2461C21.4355 14.2461 22.4305 13.3632 22.4722 13.3253C22.9017 12.909 23.505 12.6641 24.1152 12.6641C27.1681 12.6641 29.6523 15.1483 29.6523 18.2012V19.7832C29.6523 21.1972 29.2009 22.5655 28.4073 23.7383H30.4434C31.0077 23.7383 31.5519 23.8367 32.075 23.9991C31.2514 21.0848 31.2344 17.4579 31.2344 17.4102C31.2344 13.0488 27.6856 9.5 23.3242 9.5C18.9628 9.5 15.4141 13.0488 15.4141 17.4102C15.4141 17.4579 15.397 21.0845 14.5734 23.9989C15.0964 23.8367 15.6407 23.7383 16.2051 23.7383Z" fill="url(#paint1_linear_2369_30539)"/>
<path d="M27.2793 26.9023C27.2793 27.3392 26.9251 27.6934 26.4883 27.6934C25.1082 27.6934 24.1634 26.7168 23.3242 26.1129C22.5018 26.7047 21.5553 27.6934 20.1602 27.6934C19.7233 27.6934 19.3691 27.3392 19.3691 26.9023V25.3203C19.3691 24.8835 19.7233 24.5293 20.1602 24.5293C21.4284 24.5293 22.3795 25.3786 23.3234 26.1136C24.2439 25.41 25.2006 24.5293 26.4883 24.5293C26.9251 24.5293 27.2793 24.8835 27.2793 25.3203V26.9023ZM22.2922 23.4779C22.6591 23.6571 23.0029 23.8796 23.3258 24.1144C23.6781 23.8595 24.0125 23.6463 24.3733 23.4702C25.7231 22.7931 26.6745 22.9791 27.0349 22.9472C27.6941 22.0148 28.0703 20.9174 28.0703 19.7832V18.2012C28.0703 16.0204 26.296 14.2461 24.1152 14.2461C23.9098 14.2461 23.7081 14.3303 23.5606 14.4732C23.5034 14.5288 22.1307 15.8281 19.3691 15.8281C18.9319 15.8281 18.5781 16.1819 18.5781 16.6191V19.7832C18.5781 20.9176 18.9544 22.0153 19.6129 22.9473C19.9958 22.9812 20.9162 22.7914 22.2922 23.4779Z" fill="#595D6B"/>
<path d="M27.2793 26.9023C27.2793 27.3392 26.9251 27.6934 26.4883 27.6934C25.1082 27.6934 24.1634 26.7168 23.3242 26.1129C22.5018 26.7047 21.5553 27.6934 20.1602 27.6934C19.7233 27.6934 19.3691 27.3392 19.3691 26.9023V25.3203C19.3691 24.8835 19.7233 24.5293 20.1602 24.5293C21.4284 24.5293 22.3795 25.3786 23.3234 26.1136C24.2439 25.41 25.2006 24.5293 26.4883 24.5293C26.9251 24.5293 27.2793 24.8835 27.2793 25.3203V26.9023ZM22.2922 23.4779C22.6591 23.6571 23.0029 23.8796 23.3258 24.1144C23.6781 23.8595 24.0125 23.6463 24.3733 23.4702C25.7231 22.7931 26.6745 22.9791 27.0349 22.9472C27.6941 22.0148 28.0703 20.9174 28.0703 19.7832V18.2012C28.0703 16.0204 26.296 14.2461 24.1152 14.2461C23.9098 14.2461 23.7081 14.3303 23.5606 14.4732C23.5034 14.5288 22.1307 15.8281 19.3691 15.8281C18.9319 15.8281 18.5781 16.1819 18.5781 16.6191V19.7832C18.5781 20.9176 18.9544 22.0153 19.6129 22.9473C19.9958 22.9812 20.9162 22.7914 22.2922 23.4779Z" fill="url(#paint2_linear_2369_30539)"/>
<defs>
<linearGradient id="paint0_linear_2369_30539" x1="23.3346" y1="31.6493" x2="23.3346" y2="28.1152" gradientUnits="userSpaceOnUse">
<stop stop-color="#F05754"/>
<stop offset="0.495" stop-color="#F4864D"/>
<stop offset="1" stop-color="#FBC945"/>
</linearGradient>
<linearGradient id="paint1_linear_2369_30539" x1="23.4515" y1="36.5" x2="23.4515" y2="9.5" gradientUnits="userSpaceOnUse">
<stop stop-color="#F05754"/>
<stop offset="0.495" stop-color="#F4864D"/>
<stop offset="1" stop-color="#FBC945"/>
</linearGradient>
<linearGradient id="paint2_linear_2369_30539" x1="23.3788" y1="27.6934" x2="23.3788" y2="14.2461" gradientUnits="userSpaceOnUse">
<stop stop-color="#F05754"/>
<stop offset="0.495" stop-color="#F4864D"/>
<stop offset="1" stop-color="#FBC945"/>
</linearGradient>
</defs>
</svg>
