<svg width="49" height="46" viewBox="0 0 49 46" fill="none" xmlns="http://www.w3.org/2000/svg">
<path d="M13.422 14.993C13.6868 13.1178 14.5487 12.4101 16.3503 12.4101H32.5856C32.8528 12.4221 33.105 12.5362 33.2898 12.7286C33.4745 12.9211 33.5775 13.1771 33.5772 13.4432V14.993H13.422ZM35.654 15.0395V13.4432C35.6541 12.6292 35.3323 11.8478 34.7582 11.2678C34.184 10.6879 33.4036 10.356 32.5856 10.3438H16.3503C11.8333 10.3438 11.3192 14.0063 11.2518 15.9073C11.2494 15.9262 11.2494 15.9453 11.2518 15.9642V32.5568C11.2518 33.3788 11.58 34.1672 12.1642 34.7484C12.7484 35.3297 13.5407 35.6563 14.3669 35.6563H35.1348C35.961 35.6563 36.7534 35.3297 37.3376 34.7484C37.9218 34.1672 38.25 33.3788 38.25 32.5568V18.0925C38.2493 17.3605 37.9882 16.6525 37.5131 16.0937C37.0379 15.5349 36.3794 15.1615 35.654 15.0395ZM32.2792 27.9075C31.8171 27.9075 31.3654 27.7712 30.9812 27.5158C30.597 27.2603 30.2975 26.8973 30.1207 26.4725C29.9439 26.0477 29.8976 25.5803 29.9877 25.1294C30.0779 24.6785 30.3004 24.2643 30.6272 23.9392C30.9539 23.6141 31.3702 23.3927 31.8234 23.303C32.2766 23.2133 32.7464 23.2593 33.1733 23.4352C33.6002 23.6112 33.9651 23.9091 34.2219 24.2914C34.4786 24.6737 34.6156 25.1231 34.6156 25.5829C34.6163 25.8884 34.5563 26.191 34.4392 26.4733C34.322 26.7556 34.1499 27.0122 33.9328 27.2282C33.7157 27.4442 33.4579 27.6154 33.1741 27.732C32.8904 27.8485 32.5862 27.9082 32.2792 27.9075Z" fill="#595D6B"/>
<path d="M13.422 14.993C13.6868 13.1178 14.5487 12.4101 16.3503 12.4101H32.5856C32.8528 12.4221 33.105 12.5362 33.2898 12.7286C33.4745 12.9211 33.5775 13.1771 33.5772 13.4432V14.993H13.422ZM35.654 15.0395V13.4432C35.6541 12.6292 35.3323 11.8478 34.7582 11.2678C34.184 10.6879 33.4036 10.356 32.5856 10.3438H16.3503C11.8333 10.3438 11.3192 14.0063 11.2518 15.9073C11.2494 15.9262 11.2494 15.9453 11.2518 15.9642V32.5568C11.2518 33.3788 11.58 34.1672 12.1642 34.7484C12.7484 35.3297 13.5407 35.6563 14.3669 35.6563H35.1348C35.961 35.6563 36.7534 35.3297 37.3376 34.7484C37.9218 34.1672 38.25 33.3788 38.25 32.5568V18.0925C38.2493 17.3605 37.9882 16.6525 37.5131 16.0937C37.0379 15.5349 36.3794 15.1615 35.654 15.0395ZM32.2792 27.9075C31.8171 27.9075 31.3654 27.7712 30.9812 27.5158C30.597 27.2603 30.2975 26.8973 30.1207 26.4725C29.9439 26.0477 29.8976 25.5803 29.9877 25.1294C30.0779 24.6785 30.3004 24.2643 30.6272 23.9392C30.9539 23.6141 31.3702 23.3927 31.8234 23.303C32.2766 23.2133 32.7464 23.2593 33.1733 23.4352C33.6002 23.6112 33.9651 23.9091 34.2219 24.2914C34.4786 24.6737 34.6156 25.1231 34.6156 25.5829C34.6163 25.8884 34.5563 26.191 34.4392 26.4733C34.322 26.7556 34.1499 27.0122 33.9328 27.2282C33.7157 27.4442 33.4579 27.6154 33.1741 27.732C32.8904 27.8485 32.5862 27.9082 32.2792 27.9075Z" fill="url(#paint0_linear_2369_30554)"/>
<defs>
<linearGradient id="paint0_linear_2369_30554" x1="24.9052" y1="35.6563" x2="24.9052" y2="10.3438" gradientUnits="userSpaceOnUse">
<stop stop-color="#F05754"/>
<stop offset="0.495" stop-color="#F4864D"/>
<stop offset="1" stop-color="#FBC945"/>
</linearGradient>
</defs>
</svg>
