<svg width="45" height="46" viewBox="0 0 45 46" fill="none" xmlns="http://www.w3.org/2000/svg">
<path d="M29.215 27.7549C27.4147 29.3183 25.0659 30.2657 22.5 30.2657C19.9341 30.2657 17.5853 29.3183 15.785 27.7549C14.8598 28.4277 14.0348 29.2418 13.3345 30.181C11.8558 32.1642 11.0742 34.5236 11.0742 37.004V37.1212C11.0742 37.6066 11.4677 38.0001 11.9531 38.0001H33.0469C33.5323 38.0001 33.9258 37.6066 33.9258 37.1212V37.004C33.9258 34.5236 33.1442 32.1642 31.6655 30.181C30.9652 29.2418 30.1402 28.4277 29.215 27.7549Z" fill="#595D6B"/>
<path d="M29.215 27.7549C27.4147 29.3183 25.0659 30.2657 22.5 30.2657C19.9341 30.2657 17.5853 29.3183 15.785 27.7549C14.8598 28.4277 14.0348 29.2418 13.3345 30.181C11.8558 32.1642 11.0742 34.5236 11.0742 37.004V37.1212C11.0742 37.6066 11.4677 38.0001 11.9531 38.0001H33.0469C33.5323 38.0001 33.9258 37.6066 33.9258 37.1212V37.004C33.9258 34.5236 33.1442 32.1642 31.6655 30.181C30.9652 29.2418 30.1402 28.4277 29.215 27.7549Z" fill="url(#paint0_linear_2369_30560)"/>
<path d="M24.083 24.3638C24.1053 23.891 24.5125 23.5273 24.9858 23.5273H30.234C30.7232 22.4554 30.9961 21.2649 30.9961 20.0117C30.9961 15.327 27.1847 11.5156 22.5 11.5156C17.8153 11.5156 14.0039 15.327 14.0039 20.0117C14.0039 24.6965 17.8153 28.5078 22.5 28.5078C25.194 28.5078 27.5989 27.2472 29.1565 25.2852H24.9609C24.4614 25.2852 24.0592 24.8685 24.083 24.3638Z" fill="#595D6B"/>
<path d="M24.083 24.3638C24.1053 23.891 24.5125 23.5273 24.9858 23.5273H30.234C30.7232 22.4554 30.9961 21.2649 30.9961 20.0117C30.9961 15.327 27.1847 11.5156 22.5 11.5156C17.8153 11.5156 14.0039 15.327 14.0039 20.0117C14.0039 24.6965 17.8153 28.5078 22.5 28.5078C25.194 28.5078 27.5989 27.2472 29.1565 25.2852H24.9609C24.4614 25.2852 24.0592 24.8685 24.083 24.3638Z" fill="url(#paint1_linear_2369_30560)"/>
<path d="M34.2188 16.4961H33.9871C33.2808 14.1929 31.8751 12.1227 29.9774 10.6111C27.8329 8.90293 25.2472 8 22.5 8C19.7528 8 17.1671 8.90293 15.0226 10.6111C13.1249 12.1227 11.7192 14.1929 11.0129 16.4961H10.7812C10.2959 16.4961 9.90234 16.8896 9.90234 17.375V20.8906C9.90234 21.376 10.2959 21.7695 10.7812 21.7695H12.2461V20.0117C12.2461 18.7773 12.4654 17.5931 12.8671 16.4961H12.8641C14.3206 12.4776 18.1354 9.75781 22.5 9.75781C26.8646 9.75781 30.6794 12.4776 32.1359 16.4961H32.1329C32.5346 17.5931 32.7539 18.7773 32.7539 20.0117V23.5273H30.2339L29.1565 25.2852H33.6328C34.1182 25.2852 34.5117 24.8916 34.5117 24.4062V21.7184C34.8529 21.5977 35.0977 21.2731 35.0977 20.8906V17.375C35.0977 16.8896 34.7041 16.4961 34.2188 16.4961Z" fill="#595D6B"/>
<path d="M34.2188 16.4961H33.9871C33.2808 14.1929 31.8751 12.1227 29.9774 10.6111C27.8329 8.90293 25.2472 8 22.5 8C19.7528 8 17.1671 8.90293 15.0226 10.6111C13.1249 12.1227 11.7192 14.1929 11.0129 16.4961H10.7812C10.2959 16.4961 9.90234 16.8896 9.90234 17.375V20.8906C9.90234 21.376 10.2959 21.7695 10.7812 21.7695H12.2461V20.0117C12.2461 18.7773 12.4654 17.5931 12.8671 16.4961H12.8641C14.3206 12.4776 18.1354 9.75781 22.5 9.75781C26.8646 9.75781 30.6794 12.4776 32.1359 16.4961H32.1329C32.5346 17.5931 32.7539 18.7773 32.7539 20.0117V23.5273H30.2339L29.1565 25.2852H33.6328C34.1182 25.2852 34.5117 24.8916 34.5117 24.4062V21.7184C34.8529 21.5977 35.0977 21.2731 35.0977 20.8906V17.375C35.0977 16.8896 34.7041 16.4961 34.2188 16.4961Z" fill="url(#paint2_linear_2369_30560)"/>
<defs>
<linearGradient id="paint0_linear_2369_30560" x1="22.6313" y1="38.0001" x2="22.6313" y2="27.7549" gradientUnits="userSpaceOnUse">
<stop stop-color="#F05754"/>
<stop offset="0.495" stop-color="#F4864D"/>
<stop offset="1" stop-color="#FBC945"/>
</linearGradient>
<linearGradient id="paint1_linear_2369_30560" x1="22.5977" y1="28.5078" x2="22.5977" y2="11.5156" gradientUnits="userSpaceOnUse">
<stop stop-color="#F05754"/>
<stop offset="0.495" stop-color="#F4864D"/>
<stop offset="1" stop-color="#FBC945"/>
</linearGradient>
<linearGradient id="paint2_linear_2369_30560" x1="22.6448" y1="25.2852" x2="22.6448" y2="8" gradientUnits="userSpaceOnUse">
<stop stop-color="#F05754"/>
<stop offset="0.495" stop-color="#F4864D"/>
<stop offset="1" stop-color="#FBC945"/>
</linearGradient>
</defs>
</svg>
