<svg width="45" height="46" viewBox="0 0 45 46" fill="none" xmlns="http://www.w3.org/2000/svg">
<path d="M18.6429 9.5H10.9286C9.86349 9.5 9 10.3635 9 11.4286V19.1429C9 20.2079 9.86349 21.0714 10.9286 21.0714H18.6429C19.7079 21.0714 20.5714 20.2079 20.5714 19.1429V11.4286C20.5714 10.3635 19.7079 9.5 18.6429 9.5ZM18.6429 24.9286H10.9286C9.86349 24.9286 9 25.7921 9 26.8571V34.5714C9 35.6365 9.86349 36.5 10.9286 36.5H18.6429C19.7079 36.5 20.5714 35.6365 20.5714 34.5714V26.8571C20.5714 25.7921 19.7079 24.9286 18.6429 24.9286ZM34.0714 9.5H26.3571C25.2921 9.5 24.4286 10.3635 24.4286 11.4286V19.1429C24.4286 20.2079 25.2921 21.0714 26.3571 21.0714H34.0714C35.1365 21.0714 36 20.2079 36 19.1429V11.4286C36 10.3635 35.1365 9.5 34.0714 9.5ZM34.0714 24.9286H26.3571C25.2921 24.9286 24.4286 25.7921 24.4286 26.8571V34.5714C24.4286 35.6365 25.2921 36.5 26.3571 36.5H34.0714C35.1365 36.5 36 35.6365 36 34.5714V26.8571C36 25.7921 35.1365 24.9286 34.0714 24.9286Z" fill="url(#paint0_linear_2369_30533)"/>
<defs>
<linearGradient id="paint0_linear_2369_30533" x1="22.6552" y1="36.5" x2="22.6552" y2="9.5" gradientUnits="userSpaceOnUse">
<stop stop-color="#F05754"/>
<stop offset="0.495" stop-color="#F4864D"/>
<stop offset="1" stop-color="#FBC945"/>
</linearGradient>
</defs>
</svg>
