<svg width="48" height="46" viewBox="0 0 48 46" fill="none" xmlns="http://www.w3.org/2000/svg">
<path d="M17.6719 17.4102C18.88 17.4102 19.9442 17.0804 20.823 16.6595C19.9308 18.3382 19.3962 20.2813 19.2902 22.2852C15.723 22.6681 12.9258 25.6608 12.9258 29.3281C12.9258 33.2537 16.1193 36.5 20.0449 36.5C21.2543 36.5 22.4128 36.1593 23.4518 35.5893C21.84 34.0091 20.8359 31.7584 20.8359 29.3281C20.8359 26.8978 21.84 24.6998 23.4518 23.1197C22.6518 22.6807 21.78 22.3822 20.8697 22.2663C21.2137 16.6752 25.4362 12.0634 30.8804 11.2219C29.4939 13.1685 28.7461 15.4913 28.7461 17.9301V22.289C25.1962 22.6883 22.418 25.6731 22.418 29.3281C22.418 33.2537 25.6115 36.5 29.5371 36.5C33.4627 36.5 36.6562 33.2537 36.6562 29.3281C36.6562 25.6732 33.878 22.6883 30.3281 22.2889V17.9301C30.3281 15.2557 31.3694 12.7413 33.2604 10.8503L34.6107 9.5H32.7012C28.9859 9.5 25.6187 11.0151 23.1824 13.459C22.5428 12.8449 20.4919 11.082 17.6719 11.082C14.3348 11.082 12.0513 13.5686 11.9409 13.6745L11.3438 14.2461L11.9409 14.8177C12.0513 14.9236 14.3348 17.4102 17.6719 17.4102ZM29.5371 26.9551C28.2286 26.9551 27.1641 28.0197 27.1641 29.3281H25.582C25.582 27.1475 27.3564 25.373 29.5371 25.373V26.9551ZM20.0449 26.9551C18.7364 26.9551 17.6719 28.0197 17.6719 29.3281H16.0898C16.0898 27.1475 17.8642 25.373 20.0449 25.373V26.9551Z" fill="#595D6B"/>
<path d="M17.6719 17.4102C18.88 17.4102 19.9442 17.0804 20.823 16.6595C19.9308 18.3382 19.3962 20.2813 19.2902 22.2852C15.723 22.6681 12.9258 25.6608 12.9258 29.3281C12.9258 33.2537 16.1193 36.5 20.0449 36.5C21.2543 36.5 22.4128 36.1593 23.4518 35.5893C21.84 34.0091 20.8359 31.7584 20.8359 29.3281C20.8359 26.8978 21.84 24.6998 23.4518 23.1197C22.6518 22.6807 21.78 22.3822 20.8697 22.2663C21.2137 16.6752 25.4362 12.0634 30.8804 11.2219C29.4939 13.1685 28.7461 15.4913 28.7461 17.9301V22.289C25.1962 22.6883 22.418 25.6731 22.418 29.3281C22.418 33.2537 25.6115 36.5 29.5371 36.5C33.4627 36.5 36.6562 33.2537 36.6562 29.3281C36.6562 25.6732 33.878 22.6883 30.3281 22.2889V17.9301C30.3281 15.2557 31.3694 12.7413 33.2604 10.8503L34.6107 9.5H32.7012C28.9859 9.5 25.6187 11.0151 23.1824 13.459C22.5428 12.8449 20.4919 11.082 17.6719 11.082C14.3348 11.082 12.0513 13.5686 11.9409 13.6745L11.3438 14.2461L11.9409 14.8177C12.0513 14.9236 14.3348 17.4102 17.6719 17.4102ZM29.5371 26.9551C28.2286 26.9551 27.1641 28.0197 27.1641 29.3281H25.582C25.582 27.1475 27.3564 25.373 29.5371 25.373V26.9551ZM20.0449 26.9551C18.7364 26.9551 17.6719 28.0197 17.6719 29.3281H16.0898C16.0898 27.1475 17.8642 25.373 20.0449 25.373V26.9551Z" fill="url(#paint0_linear_2369_30548)"/>
<defs>
<linearGradient id="paint0_linear_2369_30548" x1="24.1455" y1="36.5" x2="24.1455" y2="9.5" gradientUnits="userSpaceOnUse">
<stop stop-color="#F05754"/>
<stop offset="0.495" stop-color="#F4864D"/>
<stop offset="1" stop-color="#FBC945"/>
</linearGradient>
</defs>
</svg>
