<svg width="66" height="75" viewBox="0 0 66 75" fill="none" xmlns="http://www.w3.org/2000/svg">
<g clip-path="url(#clip0_665_1354)">
<path d="M17.7571 37.02C17.7571 37.02 14.9792 35.0662 14.6167 31.0676C14.4197 28.9045 15.1093 26.5263 15.915 24.5645C16.5987 22.9027 16.5849 19.2831 16.973 18.6062C17.2784 19.5535 18.0625 20.2956 18.1945 19.9936C18.7737 18.6673 19.0633 17.1378 18.6673 16.0681C18.1807 14.7537 17.8083 12.2629 18.3875 11.2248C18.9667 10.1867 20.2414 8.22491 20.2414 8.22491C20.2414 8.22491 19.5952 10.6031 20.3084 11.7103C21.0216 12.8175 23.2813 15.101 23.299 16.6917C23.3167 18.2825 24.8712 22.7744 24.8712 22.7744C24.8712 22.7744 24.9756 19.666 24.8712 18.0753C24.7667 16.4845 25.8168 10.5143 25.8168 10.5143C25.8168 10.5143 25.6474 16.1372 26.5359 17.3825C27.4244 18.6279 28.2479 18.4641 28.1987 20.864C28.1494 23.2639 28.3051 25.5474 30.1904 26.4454C32.0758 27.3434 32.198 31.3577 32.198 31.3577C32.198 31.3577 32.3044 35.5438 31.3745 36.5286C30.4446 37.5134 29.4536 38.1411 29.4536 38.1411L17.7551 37.02H17.7571Z" fill="url(#paint0_linear_665_1354)"/>
<path d="M23.4074 40.0298C27.7368 40.0298 31.2465 37.2172 31.2465 33.7477C31.2465 30.2783 27.7368 27.4657 23.4074 27.4657C19.078 27.4657 15.5684 30.2783 15.5684 33.7477C15.5684 37.2172 19.078 40.0298 23.4074 40.0298Z" fill="url(#paint1_linear_665_1354)"/>
<g style="mix-blend-mode:screen">
<path d="M17.834 36.6746C16.7702 35.822 16.3013 35.4549 15.9467 32.1432C15.8383 31.1307 16.0314 30.0926 16.3742 29.1078C16.5574 28.5808 16.185 26.9407 16.2067 26.3782C16.2461 25.4092 17.5976 22.7764 17.8872 22.3205C18.1433 23.2422 18.9944 24.4776 19.286 24.0494C20.1154 22.8277 20.5587 21.5172 20.0819 20.4297C19.6052 19.3403 20.409 15.3575 20.409 15.3575C20.409 15.3575 20.9468 18.0594 21.8964 18.6081C23.372 19.4627 22.2707 21.1896 22.2865 22.506C22.3042 23.8244 24.6565 25.4171 24.6565 25.4171C24.6565 25.4171 25.6514 22.9935 25.549 21.6771C25.4465 20.3587 26.0238 18.6081 26.0238 18.6081C26.0238 18.6081 26.3508 19.7686 27.2216 20.8008C28.0924 21.833 27.6156 22.8257 27.5664 24.8132C27.5191 26.8006 28.0215 27.7124 29.8675 28.4584C31.7134 29.2025 31.8317 32.5261 31.8317 32.5261C31.8317 32.5261 31.5342 35.5201 29.8576 37.1838C27.6984 39.3272 21.4216 39.5522 17.8321 36.6766L17.834 36.6746Z" fill="#FDB105"/>
</g>
<path d="M29.4004 22.5435C29.4004 22.5435 29.8181 20.785 29.7905 20.0054C29.7629 19.2258 28.5021 17.0923 28.5021 17.0923C28.5021 17.0923 30.7047 17.9311 30.8701 19.4863C31.0356 21.0396 29.4004 22.5435 29.4004 22.5435Z" fill="url(#paint2_linear_665_1354)"/>
<path d="M32.0542 19.6403C32.0542 19.6403 32.2216 18.5963 31.9675 18.2292C31.6602 17.7832 31.2484 17.2957 31.2484 17.2957C31.2484 17.2957 32.5802 17.0055 32.6787 17.9371C32.7772 18.8686 32.0542 19.6384 32.0542 19.6384V19.6403Z" fill="url(#paint3_linear_665_1354)"/>
<path style="mix-blend-mode:screen" opacity="0.15" d="M14.1124 18.0278C14.1124 17.2088 14.6916 16.5457 15.4068 16.5457C16.1219 16.5457 16.7011 17.2088 16.7011 18.0278C16.7011 18.8469 16.1219 19.51 15.4068 19.51C14.6916 19.51 14.1124 18.8469 14.1124 18.0278Z" fill="url(#paint4_radial_665_1354)"/>
<path d="M15.5565 18.0278C15.5565 18.1226 15.4896 18.1995 15.4068 18.1995C15.3241 18.1995 15.2571 18.1226 15.2571 18.0278C15.2571 17.9331 15.3241 17.8561 15.4068 17.8561C15.4896 17.8561 15.5565 17.9331 15.5565 18.0278Z" fill="#F24E06"/>
<path style="mix-blend-mode:screen" opacity="0.15" d="M28.5021 16.4312C29.217 16.4312 29.7965 15.7676 29.7965 14.949C29.7965 14.1305 29.217 13.4669 28.5021 13.4669C27.7873 13.4669 27.2078 14.1305 27.2078 14.949C27.2078 15.7676 27.7873 16.4312 28.5021 16.4312Z" fill="url(#paint5_radial_665_1354)"/>
<path d="M28.6519 14.949C28.6519 15.0438 28.5849 15.1208 28.5021 15.1208C28.4194 15.1208 28.3524 15.0438 28.3524 14.949C28.3524 14.8543 28.4194 14.7773 28.5021 14.7773C28.5849 14.7773 28.6519 14.8543 28.6519 14.949Z" fill="#F24E06"/>
<path style="mix-blend-mode:screen" opacity="0.15" d="M13.2889 37.3299C13.2889 36.5109 13.8682 35.8477 14.5833 35.8477C15.2985 35.8477 15.8777 36.5109 15.8777 37.3299C15.8777 38.149 15.2985 38.8121 14.5833 38.8121C13.8682 38.8121 13.2889 38.149 13.2889 37.3299Z" fill="url(#paint6_radial_665_1354)"/>
<path d="M14.5833 37.5016C14.666 37.5016 14.7331 37.4247 14.7331 37.3299C14.7331 37.2351 14.666 37.1582 14.5833 37.1582C14.5006 37.1582 14.4336 37.2351 14.4336 37.3299C14.4336 37.4247 14.5006 37.5016 14.5833 37.5016Z" fill="#F24E06"/>
<path style="mix-blend-mode:screen" opacity="0.15" d="M15.525 16.7233C16.4934 16.7233 17.2784 15.8247 17.2784 14.7162C17.2784 13.6076 16.4934 12.709 15.525 12.709C14.5566 12.709 13.7716 13.6076 13.7716 14.7162C13.7716 15.8247 14.5566 16.7233 15.525 16.7233Z" fill="url(#paint7_radial_665_1354)"/>
<path d="M15.7279 14.7162C15.7279 14.8444 15.6372 14.9491 15.5249 14.9491C15.4126 14.9491 15.322 14.8444 15.322 14.7162C15.322 14.5879 15.4126 14.4833 15.5249 14.4833C15.6372 14.4833 15.7279 14.5879 15.7279 14.7162Z" fill="#F24E06"/>
<path style="mix-blend-mode:screen" opacity="0.15" d="M21.6638 8.91173C22.531 8.91173 23.234 8.10676 23.234 7.11376C23.234 6.12077 22.531 5.3158 21.6638 5.3158C20.7966 5.3158 20.0936 6.12077 20.0936 7.11376C20.0936 8.10676 20.7966 8.91173 21.6638 8.91173Z" fill="url(#paint8_radial_665_1354)"/>
<path d="M21.845 7.11374C21.845 7.22821 21.7643 7.32295 21.6638 7.32295C21.5633 7.32295 21.4825 7.23019 21.4825 7.11374C21.4825 6.9973 21.5633 6.90454 21.6638 6.90454C21.7643 6.90454 21.845 6.9973 21.845 7.11374Z" fill="#F24E06"/>
<path d="M28.2992 43.7974C28.2992 43.7974 26.2503 73.0583 25.5903 75.1701C24.885 77.7654 24.5166 87 23.3976 87C22.2785 87 21.191 77.9529 20.7478 75.1701C20.6769 74.7399 20.5941 73.4412 20.3853 71.9018C19.1323 63.2495 18.1315 43.7955 18.1315 43.7955C18.1315 43.7955 25.2869 44.731 28.2972 43.7955L28.2992 43.7974Z" fill="url(#paint9_linear_665_1354)"/>
<path style="mix-blend-mode:multiply" d="M28.2992 43.7976C28.2992 43.7976 26.1419 73.0388 25.5903 75.1703C25.019 77.657 24.3393 87.0002 23.3976 87.0002C22.3554 87.0002 21.2521 78.1801 20.801 75.49C23.0489 84.7068 24.5205 77.9491 25.5844 68.7146C25.6829 67.9133 21.0925 66.3561 20.005 69.2751C20.0129 69.1606 19.7351 66.2377 19.743 66.1232C19.7765 65.5943 25.8701 65.4324 25.9252 64.8857C26.1912 62.2214 26.004 63.9937 26.1124 61.3628C26.1222 61.1418 26.1991 57.836 26.1991 57.4708C26.203 56.2018 26.1774 55.0532 26.1203 54.0841C25.5253 44.7706 18.4546 48.8224 18.4546 48.8224L18.1315 43.7976C21.0275 43.9634 26.2385 44.4331 28.2972 43.7976H28.2992Z" fill="url(#paint10_linear_665_1354)"/>
<path style="mix-blend-mode:multiply" opacity="0.3" d="M21.4097 57.0029C20.2553 56.7503 19.8632 58.5483 19.4475 61.9962C19.4849 62.4363 19.5716 63.433 19.613 63.8672C19.8435 60.1903 19.9597 57.295 20.9862 57.9128C23.3188 59.3871 22.6411 60.3719 22.1663 65.5033C21.9436 69.5374 21.4905 72.486 20.7872 72.2038C20.5981 72.1288 20.4936 71.8505 20.3144 71.3808C20.3873 71.815 20.4227 72.2807 20.4936 72.6656C20.6099 72.8689 20.6808 72.932 20.799 72.9814C21.5516 73.2952 21.8964 69.9736 22.3416 65.5586C23.0331 61.1357 22.7356 57.3029 21.4078 57.0049L21.4097 57.0029Z" fill="url(#paint11_linear_665_1354)"/>
<path style="mix-blend-mode:multiply" opacity="0.3" d="M23.1691 65.8191C24.4674 59.3476 24.2704 53.7406 22.1249 53.3103C20.7577 53.0439 19.942 54.3287 18.9767 57.2832C18.9984 57.7391 19.284 58.6805 19.3096 59.1404C20.1292 56.0813 20.1686 53.934 21.4748 54.1965C23.372 54.5853 24.3945 58.9963 23.1986 64.8363C22.5071 70.0742 21.591 75.1465 20.8325 75.6083C20.935 75.9004 20.9645 76.2398 21.0729 76.4964C21.7624 75.2925 22.5229 70.9861 23.1691 65.8191Z" fill="url(#paint12_linear_665_1354)"/>
<path style="mix-blend-mode:multiply" opacity="0.3" d="M23.4055 49.9591C21.7644 49.669 20.3085 49.8525 18.823 52.5584C18.823 53.1228 18.8585 53.8175 18.8663 54.4076C20.1686 51.6308 20.9862 49.9532 22.5701 50.2334C25.4603 50.7604 25.8366 58.2621 23.9177 66.3125C23.1592 71.3492 22.2037 76.157 21.6659 78.47C21.7624 78.6378 21.985 80.4081 22.0737 80.5483C22.5288 77.8661 23.2991 71.0926 24.1305 66.125C26.5655 57.0266 26.6148 50.5433 23.4094 49.9571L23.4055 49.9591Z" fill="url(#paint13_linear_665_1354)"/>
<path opacity="0.5" d="M19.7511 60.007C19.9777 65.4877 20.3106 69.6303 20.75 75.1703C19.5285 69.2771 18.1337 43.7976 18.1337 43.7976C18.1337 43.7976 19.9304 48.5856 19.7511 60.007Z" fill="#F8F8F7"/>
<path opacity="0.1" d="M19.8277 58.0115C20.3104 61.8956 21.193 65.0751 21.7899 65.1145C22.3849 65.154 22.3258 62.0219 22.2707 58.124C22.245 54.2261 21.9279 51.0466 20.8798 51.0209C19.8297 50.9953 19.3529 54.1254 19.8277 58.0115Z" fill="#F8F8F7"/>
<path opacity="0.2" d="M20.3912 57.5378C20.6532 59.095 20.5941 60.4212 21.0177 60.3758C21.4432 60.3304 21.7919 58.9213 21.6461 57.3602C21.4925 55.799 21.4275 54.5773 20.8778 54.6267C20.3301 54.676 20.1173 55.9786 20.3912 57.5358V57.5378Z" fill="#F8F8F7"/>
<path d="M18.5787 41.9817L28.179 42.0508C28.7858 42.0547 29.2724 42.5995 29.2685 43.2646L29.2626 44.4152C29.2587 45.0823 28.7642 45.6171 28.1574 45.6132L18.557 45.5441C17.9502 45.5401 17.4636 44.9954 17.4676 44.3303L17.4735 43.1797C17.4774 42.5126 17.9719 41.9778 18.5787 41.9817Z" fill="url(#paint14_linear_665_1354)"/>
<path style="mix-blend-mode:multiply" opacity="0.8" d="M23.1552 45.1671C26.9477 45.4947 29.6152 44.5355 28.177 42.0508C28.642 41.9758 29.2744 42.5994 29.2704 43.2685L29.2645 44.4112C29.2606 45.0803 28.7641 45.6171 28.1573 45.6131L18.5649 45.5441C17.9581 45.5401 17.4675 44.9954 17.4715 44.3263L17.4774 43.1836C18.0389 45.2776 21.2994 45.0072 23.1572 45.1671H23.1552Z" fill="url(#paint15_linear_665_1354)"/>
<path opacity="0.2" d="M25.7125 43.006C25.7125 43.4422 24.1068 43.7954 22.1269 43.7954C20.1469 43.7954 18.5413 43.4422 18.5413 43.006C18.5413 42.5698 20.1469 42.2166 22.1269 42.2166C24.1068 42.2166 25.7125 42.5698 25.7125 43.006Z" fill="white"/>
<path opacity="0.47" d="M20.7951 43.4738C21.9082 43.4738 22.8105 43.2484 22.8105 42.9705C22.8105 42.6925 21.9082 42.4672 20.7951 42.4672C19.682 42.4672 18.7797 42.6925 18.7797 42.9705C18.7797 43.2484 19.682 43.4738 20.7951 43.4738Z" fill="white"/>
<path d="M14.5104 30.8958L32.2631 31.0064C33.2205 31.0143 33.9928 31.8728 33.9869 32.9267L32.6866 40.5784C32.6807 41.6323 31.8986 42.479 30.9411 42.4731L15.7673 42.3626C14.8099 42.3547 14.0376 41.4962 14.0435 40.4422L12.7649 32.7905C12.7708 31.7366 13.5529 30.8899 14.5104 30.8958Z" fill="url(#paint16_linear_665_1354)"/>
<path style="mix-blend-mode:multiply" opacity="0.8" d="M23.0331 41.7646C31.8828 42.0428 34.5326 34.9319 32.2591 31.0044C32.992 30.886 33.9928 31.8728 33.9869 32.9287L32.6866 40.5685C32.6807 41.6244 31.8966 42.4751 30.9352 42.4691L15.7713 42.3586C14.8099 42.3507 14.0376 41.4902 14.0435 40.4343L12.7649 32.7944C13.3106 34.8233 13.3126 40.1343 15.9939 41.5198C16.8844 41.9797 19.8593 41.6639 23.0331 41.7646Z" fill="url(#paint17_linear_665_1354)"/>
<g style="mix-blend-mode:screen">
<path d="M17.312 31.7958C16.2954 31.7504 13.5924 31.6064 13.6574 32.2004C14.3056 38.1864 16.3821 41.9797 16.5219 40.7265C17.111 35.3957 17.8459 31.8175 17.3139 31.7939L17.312 31.7958Z" fill="#F200FF"/>
</g>
<path opacity="0.47" d="M12.7649 32.7964C12.7649 32.7964 13.1392 31.4643 14.3449 31.3833C15.5506 31.3024 30.1393 30.9965 30.1393 30.9965C30.1393 30.9965 15.4699 30.8524 14.3449 30.8959C13.22 30.9393 12.9127 31.7129 12.7649 32.7964Z" fill="white"/>
<path d="M19.1993 62.1778L27.0856 62.2389C27.5387 62.2429 27.9052 62.7185 27.9012 63.3027L27.5466 65.9415C27.5427 66.5256 27.1743 66.9954 26.7192 66.9914L19.5322 66.9302C19.0791 66.9263 18.7127 66.4506 18.7166 65.8665L18.3718 63.2277C18.3758 62.6435 18.7442 62.1738 19.1993 62.1778Z" fill="url(#paint18_linear_665_1354)"/>
<path style="mix-blend-mode:multiply" opacity="0.8" d="M22.974 66.5987C25.8129 66.8848 28.1593 64.4139 27.0817 62.2389C27.4284 62.1738 27.9032 62.7205 27.8993 63.3047L27.5447 65.9375C27.5407 66.5237 27.1703 66.9934 26.7152 66.9894L19.5342 66.9283C19.0791 66.9243 18.7127 66.4467 18.7166 65.8625L18.3718 63.2297C18.7934 65.0632 21.5831 66.4585 22.974 66.5987Z" fill="url(#paint19_linear_665_1354)"/>
<path style="mix-blend-mode:multiply" opacity="0.43" d="M20.4227 64.475C20.5074 65.1855 20.0779 65.821 19.4632 65.896C18.8486 65.971 18.2812 65.454 18.1965 64.7435C18.1117 64.0329 18.5412 63.3974 19.1559 63.3224C19.7706 63.2494 20.338 63.7645 20.4227 64.475Z" fill="url(#paint20_linear_665_1354)"/>
<path d="M19.9085 64.4494C19.9814 65.0612 19.613 65.6079 19.083 65.671C18.5551 65.7342 18.0665 65.2901 17.9936 64.6803C17.9207 64.0685 18.2891 63.5218 18.819 63.4586C19.347 63.3955 19.8356 63.8395 19.9085 64.4494Z" fill="url(#paint21_linear_665_1354)"/>
<path style="mix-blend-mode:multiply" opacity="0.8" d="M19.9086 64.4494C19.9815 65.0612 19.613 65.6079 19.0831 65.6711C18.8427 65.7007 18.6122 65.6237 18.4231 65.4757C18.7639 65.5447 19.2328 65.4579 19.4554 64.9941C19.7076 64.4691 19.6032 64.0487 19.353 63.5692C19.6426 63.733 19.8593 64.0566 19.9066 64.4474L19.9086 64.4494Z" fill="url(#paint22_linear_665_1354)"/>
<path opacity="0.2" d="M19.1776 64.2303C19.215 64.55 19.022 64.8362 18.7461 64.8697C18.4684 64.9033 18.2142 64.6704 18.1748 64.3507C18.1374 64.0309 18.3304 63.7448 18.6063 63.7112C18.8821 63.6777 19.1382 63.9106 19.1776 64.2303Z" fill="white"/>
<path opacity="0.47" d="M18.8171 64.1395C18.8368 64.3092 18.7343 64.4612 18.5866 64.479C18.4388 64.4967 18.3029 64.3724 18.2832 64.2027C18.2635 64.0329 18.3659 63.881 18.5137 63.8632C18.6614 63.8454 18.7974 63.9698 18.8171 64.1395Z" fill="white"/>
<path style="mix-blend-mode:multiply" opacity="0.43" d="M24.5599 64.6231C24.5599 65.3395 23.9452 65.9198 23.1887 65.9198C22.4322 65.9198 21.8175 65.3395 21.8175 64.6231C21.8175 63.9067 22.4322 63.3264 23.1887 63.3264C23.9452 63.3264 24.5599 63.9067 24.5599 64.6231Z" fill="url(#paint23_linear_665_1354)"/>
<path d="M24.2861 64.5343C24.2861 65.15 23.7581 65.6474 23.1079 65.6474C22.4578 65.6474 21.9298 65.1481 21.9298 64.5343C21.9298 63.9205 22.4578 63.4211 23.1079 63.4211C23.7581 63.4211 24.2861 63.9205 24.2861 64.5343Z" fill="url(#paint24_linear_665_1354)"/>
<path style="mix-blend-mode:multiply" opacity="0.8" d="M24.2861 64.5342C24.2861 65.15 23.7581 65.6474 23.108 65.6474C22.8125 65.6474 22.5426 65.5447 22.3357 65.375C22.7396 65.4855 23.3207 65.454 23.6596 65.0198C24.0418 64.5283 23.9768 64.1001 23.7443 63.5928C24.0714 63.7902 24.2881 64.1376 24.2881 64.5323L24.2861 64.5342Z" fill="url(#paint25_linear_665_1354)"/>
<path opacity="0.2" d="M23.4291 64.2303C23.4291 64.552 23.1533 64.8145 22.8124 64.8145C22.4716 64.8145 22.1958 64.554 22.1958 64.2303C22.1958 63.9066 22.4716 63.6461 22.8124 63.6461C23.1533 63.6461 23.4291 63.9066 23.4291 64.2303Z" fill="white"/>
<path opacity="0.47" d="M22.6764 64.406C22.8581 64.406 23.0054 64.2672 23.0054 64.0961C23.0054 63.925 22.8581 63.7863 22.6764 63.7863C22.4947 63.7863 22.3474 63.925 22.3474 64.0961C22.3474 64.2672 22.4947 64.406 22.6764 64.406Z" fill="white"/>
<path style="mix-blend-mode:multiply" opacity="0.43" d="M28.1436 64.6231C28.1436 65.3395 27.6491 65.9198 27.0364 65.9198C26.4237 65.9198 25.9292 65.3395 25.9292 64.6231C25.9292 63.9067 26.4237 63.3264 27.0364 63.3264C27.6491 63.3264 28.1436 63.9067 28.1436 64.6231Z" fill="url(#paint26_linear_665_1354)"/>
<path d="M28.3919 64.5343C28.3919 65.15 27.9664 65.6474 27.4403 65.6474C26.9143 65.6474 26.4888 65.1481 26.4888 64.5343C26.4888 63.9205 26.9143 63.4211 27.4403 63.4211C27.9664 63.4211 28.3919 63.9205 28.3919 64.5343Z" fill="url(#paint27_linear_665_1354)"/>
<path style="mix-blend-mode:multiply" opacity="0.8" d="M28.3919 64.5342C28.3919 65.15 27.9663 65.6474 27.4403 65.6474C27.2019 65.6474 26.9832 65.5447 26.8177 65.375C27.1428 65.4855 27.6137 65.454 27.8855 65.0198C28.1949 64.5283 28.1417 64.1001 27.9525 63.5928C28.2165 63.7902 28.3919 64.1376 28.3919 64.5323V64.5342Z" fill="url(#paint28_linear_665_1354)"/>
<path opacity="0.2" d="M27.2019 64.8145C27.4772 64.8145 27.7004 64.5529 27.7004 64.2303C27.7004 63.9077 27.4772 63.6461 27.2019 63.6461C26.9266 63.6461 26.7035 63.9077 26.7035 64.2303C26.7035 64.5529 26.9266 64.8145 27.2019 64.8145Z" fill="white"/>
<path opacity="0.47" d="M27.3576 64.0961C27.3576 64.2678 27.2394 64.406 27.0936 64.406C26.9478 64.406 26.8296 64.2678 26.8296 64.0961C26.8296 63.9244 26.9478 63.7863 27.0936 63.7863C27.2394 63.7863 27.3576 63.9244 27.3576 64.0961Z" fill="white"/>
<path style="mix-blend-mode:multiply" opacity="0.43" d="M14.4631 33.955C14.5478 34.6655 14.1183 35.301 13.5036 35.376C12.889 35.449 12.3216 34.9339 12.2369 34.2234C12.1521 33.5129 12.5816 32.8774 13.1963 32.8024C13.811 32.7274 14.3784 33.2445 14.4631 33.955Z" fill="url(#paint29_linear_665_1354)"/>
<path d="M13.9509 33.9294C14.0238 34.5412 13.6554 35.0879 13.1254 35.151C12.5974 35.2142 12.1088 34.7701 12.0359 34.1603C11.963 33.5484 12.3314 33.0018 12.8614 32.9386C13.3914 32.8754 13.878 33.3195 13.9509 33.9294Z" fill="url(#paint30_linear_665_1354)"/>
<path style="mix-blend-mode:multiply" opacity="0.8" d="M13.9509 33.9293C14.0238 34.5411 13.6554 35.0878 13.1254 35.151C12.8851 35.1806 12.6546 35.1036 12.4655 34.9556C12.8063 35.0247 13.2752 34.9378 13.4978 34.474C13.75 33.949 13.6455 33.5287 13.3953 33.0491C13.685 33.2129 13.9017 33.5366 13.9489 33.9273L13.9509 33.9293Z" fill="url(#paint31_linear_665_1354)"/>
<path opacity="0.2" d="M13.22 33.7103C13.2574 34.03 13.0643 34.3162 12.7885 34.3497C12.5127 34.3833 12.2566 34.1504 12.2172 33.8307C12.1797 33.5109 12.3728 33.2248 12.6486 33.1912C12.9244 33.1577 13.1805 33.3905 13.22 33.7103Z" fill="white"/>
<path opacity="0.47" d="M12.8594 33.6195C12.8791 33.7892 12.7767 33.9412 12.6289 33.959C12.4812 33.9767 12.3452 33.8524 12.3255 33.6826C12.3058 33.5129 12.4083 33.3609 12.556 33.3432C12.7038 33.3254 12.8397 33.4498 12.8594 33.6195Z" fill="white"/>
<path style="mix-blend-mode:multiply" opacity="0.43" d="M16.6933 35.3997C17.3755 35.3997 17.9285 34.8191 17.9285 34.103C17.9285 33.3869 17.3755 32.8063 16.6933 32.8063C16.0111 32.8063 15.458 33.3869 15.458 34.103C15.458 34.8191 16.0111 35.3997 16.6933 35.3997Z" fill="url(#paint32_linear_665_1354)"/>
<path d="M16.6184 35.1273C17.2049 35.1273 17.6803 34.6289 17.6803 34.0142C17.6803 33.3994 17.2049 32.9011 16.6184 32.9011C16.0319 32.9011 15.5565 33.3994 15.5565 34.0142C15.5565 34.6289 16.0319 35.1273 16.6184 35.1273Z" fill="url(#paint33_linear_665_1354)"/>
<path style="mix-blend-mode:multiply" opacity="0.8" d="M17.6803 34.0142C17.6803 34.6299 17.2055 35.1273 16.6184 35.1273C16.3525 35.1273 16.1101 35.0247 15.923 34.8549C16.2855 34.9655 16.8095 34.9339 17.1129 34.4997C17.4577 34.0082 17.3986 33.58 17.1878 33.0728C17.4833 33.2701 17.6783 33.6175 17.6783 34.0122L17.6803 34.0142Z" fill="url(#paint34_linear_665_1354)"/>
<path opacity="0.2" d="M16.91 33.7102C16.91 34.0319 16.6617 34.2944 16.3544 34.2944C16.0471 34.2944 15.7988 34.0339 15.7988 33.7102C15.7988 33.3866 16.0471 33.126 16.3544 33.126C16.6617 33.126 16.91 33.3866 16.91 33.7102Z" fill="white"/>
<path opacity="0.47" d="M16.5278 33.578C16.5278 33.7498 16.3958 33.8879 16.2323 33.8879C16.0688 33.8879 15.9368 33.7498 15.9368 33.578C15.9368 33.4063 16.0688 33.2682 16.2323 33.2682C16.3958 33.2682 16.5278 33.4063 16.5278 33.578Z" fill="white"/>
<path style="mix-blend-mode:multiply" opacity="0.43" d="M20.9073 35.3997C21.6646 35.3997 22.2785 34.8191 22.2785 34.103C22.2785 33.3869 21.6646 32.8063 20.9073 32.8063C20.15 32.8063 19.5361 33.3869 19.5361 34.103C19.5361 34.8191 20.15 35.3997 20.9073 35.3997Z" fill="url(#paint35_linear_665_1354)"/>
<path d="M20.8246 35.1273C21.4753 35.1273 22.0027 34.6289 22.0027 34.0142C22.0027 33.3994 21.4753 32.9011 20.8246 32.9011C20.1739 32.9011 19.6465 33.3994 19.6465 34.0142C19.6465 34.6289 20.1739 35.1273 20.8246 35.1273Z" fill="url(#paint36_linear_665_1354)"/>
<path style="mix-blend-mode:multiply" opacity="0.8" d="M22.0047 34.0142C22.0047 34.6299 21.4767 35.1273 20.8266 35.1273C20.5311 35.1273 20.2612 35.0247 20.0543 34.8549C20.4582 34.9655 21.0394 34.9339 21.3782 34.4997C21.7604 34.0082 21.6954 33.58 21.4629 33.0728C21.79 33.2701 22.0067 33.6175 22.0067 34.0122L22.0047 34.0142Z" fill="url(#paint37_linear_665_1354)"/>
<path opacity="0.2" d="M21.1477 33.7102C21.1477 34.0319 20.8719 34.2944 20.5311 34.2944C20.1902 34.2944 19.9144 34.0339 19.9144 33.7102C19.9144 33.3866 20.1902 33.126 20.5311 33.126C20.8719 33.126 21.1477 33.3866 21.1477 33.7102Z" fill="white"/>
<path opacity="0.47" d="M20.7221 33.578C20.7221 33.7498 20.5743 33.8879 20.3931 33.8879C20.2118 33.8879 20.0641 33.7498 20.0641 33.578C20.0641 33.4063 20.2118 33.2682 20.3931 33.2682C20.5743 33.2682 20.7221 33.4063 20.7221 33.578Z" fill="white"/>
<path style="mix-blend-mode:multiply" opacity="0.43" d="M25.6828 35.3997C26.4401 35.3997 27.054 34.8191 27.054 34.103C27.054 33.3869 26.4401 32.8063 25.6828 32.8063C24.9256 32.8063 24.3116 33.3869 24.3116 34.103C24.3116 34.8191 24.9256 35.3997 25.6828 35.3997Z" fill="url(#paint38_linear_665_1354)"/>
<path d="M25.6021 35.1273C26.2527 35.1273 26.7802 34.6289 26.7802 34.0142C26.7802 33.3994 26.2527 32.9011 25.6021 32.9011C24.9514 32.9011 24.424 33.3994 24.424 34.0142C24.424 34.6289 24.9514 35.1273 25.6021 35.1273Z" fill="url(#paint39_linear_665_1354)"/>
<path style="mix-blend-mode:multiply" opacity="0.8" d="M26.7802 34.0142C26.7802 34.6299 26.2523 35.1273 25.6021 35.1273C25.3066 35.1273 25.0367 35.0247 24.8298 34.8549C25.2337 34.9655 25.8149 34.9339 26.1537 34.4997C26.5359 34.0082 26.4709 33.58 26.2385 33.0728C26.5655 33.2701 26.7822 33.6175 26.7822 34.0122L26.7802 34.0142Z" fill="url(#paint40_linear_665_1354)"/>
<path opacity="0.2" d="M25.9252 33.7102C25.9252 34.0319 25.6494 34.2944 25.3085 34.2944C24.9677 34.2944 24.6919 34.0339 24.6919 33.7102C24.6919 33.3866 24.9677 33.126 25.3085 33.126C25.6494 33.126 25.9252 33.3866 25.9252 33.7102Z" fill="white"/>
<path opacity="0.47" d="M25.4996 33.578C25.4996 33.7498 25.3518 33.8879 25.1706 33.8879C24.9893 33.8879 24.8416 33.7498 24.8416 33.578C24.8416 33.4063 24.9893 33.2682 25.1706 33.2682C25.3518 33.2682 25.4996 33.4063 25.4996 33.578Z" fill="white"/>
<path style="mix-blend-mode:multiply" opacity="0.43" d="M29.9501 35.3997C30.603 35.3997 31.1322 34.8191 31.1322 34.103C31.1322 33.3869 30.603 32.8063 29.9501 32.8063C29.2973 32.8063 28.7681 33.3869 28.7681 34.103C28.7681 34.8191 29.2973 35.3997 29.9501 35.3997Z" fill="url(#paint41_linear_665_1354)"/>
<path d="M30.8958 34.0142C30.8958 34.63 30.4407 35.1273 29.8792 35.1273C29.3178 35.1273 28.8627 34.628 28.8627 34.0142C28.8627 33.4004 29.3178 32.9011 29.8792 32.9011C30.4407 32.9011 30.8958 33.4004 30.8958 34.0142Z" fill="url(#paint42_linear_665_1354)"/>
<path style="mix-blend-mode:multiply" opacity="0.8" d="M30.8957 34.0142C30.8957 34.6299 30.4406 35.1273 29.8792 35.1273C29.625 35.1273 29.3906 35.0247 29.2133 34.8549C29.562 34.9655 30.0624 34.9339 30.354 34.4997C30.6849 34.0082 30.6278 33.58 30.4268 33.0728C30.7086 33.2701 30.8957 33.6175 30.8957 34.0122V34.0142Z" fill="url(#paint43_linear_665_1354)"/>
<path opacity="0.2" d="M30.157 33.7102C30.157 34.0319 29.9186 34.2944 29.6251 34.2944C29.3315 34.2944 29.0931 34.0339 29.0931 33.7102C29.0931 33.3866 29.3315 33.126 29.6251 33.126C29.9186 33.126 30.157 33.3866 30.157 33.7102Z" fill="white"/>
<path opacity="0.47" d="M29.5068 33.8879C29.6635 33.8879 29.7905 33.7492 29.7905 33.578C29.7905 33.4069 29.6635 33.2682 29.5068 33.2682C29.3502 33.2682 29.2231 33.4069 29.2231 33.578C29.2231 33.7492 29.3502 33.8879 29.5068 33.8879Z" fill="white"/>
<path style="mix-blend-mode:multiply" opacity="0.43" d="M33.2224 35.3997C33.8339 35.3997 34.3296 34.8191 34.3296 34.103C34.3296 33.3869 33.8339 32.8063 33.2224 32.8063C32.6109 32.8063 32.1152 33.3869 32.1152 34.103C32.1152 34.8191 32.6109 35.3997 33.2224 35.3997Z" fill="url(#paint44_linear_665_1354)"/>
<path d="M33.6264 35.1273C34.1519 35.1273 34.5779 34.6289 34.5779 34.0142C34.5779 33.3994 34.1519 32.9011 33.6264 32.9011C33.1008 32.9011 32.6748 33.3994 32.6748 34.0142C32.6748 34.6289 33.1008 35.1273 33.6264 35.1273Z" fill="url(#paint45_linear_665_1354)"/>
<path style="mix-blend-mode:multiply" opacity="0.8" d="M34.5759 34.0142C34.5759 34.6299 34.1504 35.1273 33.6244 35.1273C33.386 35.1273 33.1673 35.0247 33.0018 34.8549C33.3269 34.9655 33.7978 34.9339 34.0696 34.4997C34.3789 34.0082 34.3257 33.58 34.1366 33.0728C34.4006 33.2701 34.5759 33.6175 34.5759 34.0122V34.0142Z" fill="url(#paint46_linear_665_1354)"/>
<path opacity="0.2" d="M33.8864 33.7102C33.8864 34.0319 33.6638 34.2944 33.388 34.2944C33.1121 34.2944 32.8895 34.0339 32.8895 33.7102C32.8895 33.3866 33.1121 33.126 33.388 33.126C33.6638 33.126 33.8864 33.3866 33.8864 33.7102Z" fill="white"/>
<path opacity="0.47" d="M33.5436 33.578C33.5436 33.7498 33.4254 33.8879 33.2796 33.8879C33.1338 33.8879 33.0156 33.7498 33.0156 33.578C33.0156 33.4063 33.1338 33.2682 33.2796 33.2682C33.4254 33.2682 33.5436 33.4063 33.5436 33.578Z" fill="white"/>
<path style="mix-blend-mode:multiply" opacity="0.43" d="M15.2097 38.8298C15.2885 39.5403 14.8945 40.1758 14.3311 40.2508C13.7676 40.3239 13.2475 39.8088 13.1707 39.0983C13.0919 38.3877 13.4859 37.7522 14.0493 37.6772C14.6128 37.6042 15.1329 38.1193 15.2097 38.8298Z" fill="url(#paint47_linear_665_1354)"/>
<path d="M14.7389 38.8022C14.8059 39.414 14.467 39.9607 13.9843 40.0239C13.5016 40.087 13.0544 39.643 12.9874 39.0331C12.9205 38.4213 13.2593 37.8746 13.742 37.8115C14.2247 37.7483 14.6719 38.1924 14.7389 38.8022Z" fill="url(#paint48_linear_665_1354)"/>
<path style="mix-blend-mode:multiply" opacity="0.8" d="M14.7389 38.8022C14.8059 39.4141 14.467 39.9607 13.9843 40.0239C13.7656 40.0535 13.5529 39.9765 13.3815 39.8285C13.6927 39.8976 14.1222 39.8108 14.3271 39.347C14.5576 38.822 14.4631 38.4016 14.2345 37.922C14.4985 38.0858 14.6995 38.4095 14.7408 38.8022H14.7389Z" fill="url(#paint49_linear_665_1354)"/>
<path opacity="0.2" d="M14.0691 38.5851C14.1045 38.9048 13.9272 39.191 13.6731 39.2245C13.4189 39.2581 13.1865 39.0252 13.151 38.7055C13.1155 38.3857 13.2928 38.0996 13.547 38.066C13.8011 38.0325 14.0336 38.2654 14.0691 38.5851Z" fill="white"/>
<path opacity="0.47" d="M13.74 38.4924C13.7578 38.6621 13.6652 38.8141 13.5292 38.8318C13.3953 38.8496 13.2692 38.7252 13.2514 38.5555C13.2337 38.3858 13.3263 38.2338 13.4622 38.216C13.5962 38.1983 13.7223 38.3226 13.74 38.4924Z" fill="white"/>
<path style="mix-blend-mode:multiply" opacity="0.43" d="M18.3817 38.9759C18.3817 39.6923 17.8754 40.2725 17.2508 40.2725C16.6263 40.2725 16.12 39.6923 16.12 38.9759C16.12 38.2594 16.6263 37.6792 17.2508 37.6792C17.8754 37.6792 18.3817 38.2594 18.3817 38.9759Z" fill="url(#paint50_linear_665_1354)"/>
<path d="M18.1552 38.889C18.1552 39.5048 17.7198 40.0021 17.1839 40.0021C16.648 40.0021 16.2126 39.5028 16.2126 38.889C16.2126 38.2752 16.648 37.7759 17.1839 37.7759C17.7198 37.7759 18.1552 38.2752 18.1552 38.889Z" fill="url(#paint51_linear_665_1354)"/>
<path style="mix-blend-mode:multiply" opacity="0.8" d="M18.1551 38.889C18.1551 39.5048 17.7197 40.0022 17.1838 40.0022C16.9395 40.0022 16.7169 39.8995 16.5475 39.7298C16.8804 39.8403 17.3592 39.8088 17.637 39.3746C17.9522 38.8831 17.899 38.4549 17.7059 37.9476C17.9758 38.145 18.1551 38.4924 18.1551 38.8871V38.889Z" fill="url(#paint52_linear_665_1354)"/>
<path opacity="0.2" d="M17.4479 38.5851C17.4479 38.9068 17.2193 39.1693 16.9396 39.1693C16.6598 39.1693 16.4313 38.9088 16.4313 38.5851C16.4313 38.2614 16.6598 38.0009 16.9396 38.0009C17.2193 38.0009 17.4479 38.2614 17.4479 38.5851Z" fill="white"/>
<path opacity="0.47" d="M17.0991 38.4509C17.0991 38.6226 16.979 38.7608 16.8292 38.7608C16.6795 38.7608 16.5593 38.6226 16.5593 38.4509C16.5593 38.2792 16.6795 38.1411 16.8292 38.1411C16.979 38.1411 17.0991 38.2792 17.0991 38.4509Z" fill="white"/>
<path style="mix-blend-mode:multiply" opacity="0.43" d="M22.3653 38.9759C22.3653 39.6923 21.8038 40.2725 21.1103 40.2725C20.4168 40.2725 19.8553 39.6923 19.8553 38.9759C19.8553 38.2594 20.4168 37.6792 21.1103 37.6792C21.8038 37.6792 22.3653 38.2594 22.3653 38.9759Z" fill="url(#paint53_linear_665_1354)"/>
<path d="M22.1131 38.889C22.1131 39.5048 21.6304 40.0021 21.0335 40.0021C20.4365 40.0021 19.9539 39.5028 19.9539 38.889C19.9539 38.2752 20.4365 37.7759 21.0335 37.7759C21.6304 37.7759 22.1131 38.2752 22.1131 38.889Z" fill="url(#paint54_linear_665_1354)"/>
<path style="mix-blend-mode:multiply" opacity="0.8" d="M22.1131 38.889C22.1131 39.5048 21.6304 40.0022 21.0334 40.0022C20.7635 40.0022 20.5153 39.8995 20.3262 39.7298C20.6966 39.8403 21.2285 39.8088 21.5378 39.3746C21.8885 38.8831 21.8294 38.4549 21.6146 37.9476C21.9141 38.145 22.1131 38.4924 22.1131 38.8871V38.889Z" fill="url(#paint55_linear_665_1354)"/>
<path opacity="0.2" d="M21.329 38.5851C21.329 38.9068 21.0768 39.1693 20.7635 39.1693C20.4503 39.1693 20.1981 38.9088 20.1981 38.5851C20.1981 38.2614 20.4503 38.0009 20.7635 38.0009C21.0768 38.0009 21.329 38.2614 21.329 38.5851Z" fill="white"/>
<path opacity="0.47" d="M20.9409 38.4509C20.9409 38.6226 20.8069 38.7608 20.6394 38.7608C20.472 38.7608 20.338 38.6226 20.338 38.4509C20.338 38.2792 20.472 38.1411 20.6394 38.1411C20.8069 38.1411 20.9409 38.2792 20.9409 38.4509Z" fill="white"/>
<path style="mix-blend-mode:multiply" opacity="0.43" d="M26.7388 38.9759C26.7388 39.6923 26.1773 40.2725 25.4838 40.2725C24.7904 40.2725 24.2289 39.6923 24.2289 38.9759C24.2289 38.2594 24.7904 37.6792 25.4838 37.6792C26.1773 37.6792 26.7388 38.2594 26.7388 38.9759Z" fill="url(#paint56_linear_665_1354)"/>
<path d="M26.4866 38.889C26.4866 39.5048 26.004 40.0021 25.407 40.0021C24.8101 40.0021 24.3274 39.5028 24.3274 38.889C24.3274 38.2752 24.8101 37.7759 25.407 37.7759C26.004 37.7759 26.4866 38.2752 26.4866 38.889Z" fill="url(#paint57_linear_665_1354)"/>
<path style="mix-blend-mode:multiply" opacity="0.8" d="M26.4866 38.889C26.4866 39.5048 26.0039 40.0022 25.407 40.0022C25.1371 40.0022 24.8888 39.8995 24.6997 39.7298C25.0701 39.8403 25.602 39.8088 25.9113 39.3746C26.262 38.8831 26.2029 38.4549 25.9882 37.9476C26.2876 38.145 26.4866 38.4924 26.4866 38.8871V38.889Z" fill="url(#paint58_linear_665_1354)"/>
<path opacity="0.2" d="M25.7025 38.5851C25.7025 38.9068 25.4503 39.1693 25.1371 39.1693C24.8238 39.1693 24.5717 38.9088 24.5717 38.5851C24.5717 38.2614 24.8238 38.0009 25.1371 38.0009C25.4503 38.0009 25.7025 38.2614 25.7025 38.5851Z" fill="white"/>
<path opacity="0.47" d="M25.3144 38.4509C25.3144 38.6226 25.1804 38.7608 25.013 38.7608C24.8455 38.7608 24.7115 38.6226 24.7115 38.4509C24.7115 38.2792 24.8455 38.1411 25.013 38.1411C25.1804 38.1411 25.3144 38.2792 25.3144 38.4509Z" fill="white"/>
<path style="mix-blend-mode:multiply" opacity="0.43" d="M30.4722 38.9759C30.4722 39.6923 29.9875 40.2725 29.3886 40.2725C28.7897 40.2725 28.3051 39.6923 28.3051 38.9759C28.3051 38.2594 28.7897 37.6792 29.3886 37.6792C29.9875 37.6792 30.4722 38.2594 30.4722 38.9759Z" fill="url(#paint59_linear_665_1354)"/>
<path d="M30.2554 38.889C30.2554 39.5048 29.8378 40.0021 29.3236 40.0021C28.8094 40.0021 28.3917 39.5028 28.3917 38.889C28.3917 38.2752 28.8094 37.7759 29.3236 37.7759C29.8378 37.7759 30.2554 38.2752 30.2554 38.889Z" fill="url(#paint60_linear_665_1354)"/>
<path style="mix-blend-mode:multiply" opacity="0.8" d="M30.2555 38.889C30.2555 39.5048 29.8378 40.0022 29.3236 40.0022C29.0912 40.0022 28.8764 39.8995 28.7129 39.7298C29.032 39.8403 29.4911 39.8088 29.757 39.3746C30.0604 38.8831 30.0073 38.4549 29.824 37.9476C30.0821 38.145 30.2535 38.4924 30.2535 38.8871L30.2555 38.889Z" fill="url(#paint61_linear_665_1354)"/>
<path opacity="0.2" d="M29.5778 38.5851C29.5778 38.9068 29.3591 39.1693 29.0892 39.1693C28.8193 39.1693 28.6006 38.9088 28.6006 38.5851C28.6006 38.2614 28.8193 38.0009 29.0892 38.0009C29.3591 38.0009 29.5778 38.2614 29.5778 38.5851Z" fill="white"/>
<path opacity="0.47" d="M29.2428 38.4509C29.2428 38.6226 29.1265 38.7608 28.9827 38.7608C28.8389 38.7608 28.7227 38.6226 28.7227 38.4509C28.7227 38.2792 28.8389 38.1411 28.9827 38.1411C29.1265 38.1411 29.2428 38.2792 29.2428 38.4509Z" fill="white"/>
<path style="mix-blend-mode:multiply" opacity="0.43" d="M33.3978 38.9759C33.3978 39.6923 32.9447 40.2725 32.3852 40.2725C31.8257 40.2725 31.3726 39.6923 31.3726 38.9759C31.3726 38.2594 31.8257 37.6792 32.3852 37.6792C32.9447 37.6792 33.3978 38.2594 33.3978 38.9759Z" fill="url(#paint62_linear_665_1354)"/>
<path d="M33.6263 38.889C33.6263 39.5048 33.2363 40.0021 32.7556 40.0021C32.2748 40.0021 31.8848 39.5028 31.8848 38.889C31.8848 38.2752 32.2748 37.7759 32.7556 37.7759C33.2363 37.7759 33.6263 38.2752 33.6263 38.889Z" fill="url(#paint63_linear_665_1354)"/>
<path style="mix-blend-mode:multiply" opacity="0.8" d="M33.6263 38.889C33.6263 39.5048 33.2362 40.0022 32.7555 40.0022C32.5369 40.0022 32.3379 39.8995 32.1842 39.7298C32.4817 39.8403 32.9112 39.8088 33.1614 39.3746C33.4451 38.8831 33.3958 38.4549 33.2225 37.9476C33.4648 38.145 33.6244 38.4924 33.6244 38.8871L33.6263 38.889Z" fill="url(#paint64_linear_665_1354)"/>
<path opacity="0.2" d="M32.992 38.5851C32.992 38.9068 32.7871 39.1693 32.5349 39.1693C32.2828 39.1693 32.0779 38.9088 32.0779 38.5851C32.0779 38.2614 32.2828 38.0009 32.5349 38.0009C32.7871 38.0009 32.992 38.2614 32.992 38.5851Z" fill="white"/>
<path opacity="0.47" d="M32.6787 38.4509C32.6787 38.6226 32.5704 38.7608 32.4364 38.7608C32.3024 38.7608 32.1941 38.6226 32.1941 38.4509C32.1941 38.2792 32.3024 38.1411 32.4364 38.1411C32.5704 38.1411 32.6787 38.2792 32.6787 38.4509Z" fill="white"/>
</g>
<g filter="url(#filter0_bd_665_1354)">
<circle cx="47" cy="11" r="7" fill="url(#paint65_linear_665_1354)"/>
</g>
<g filter="url(#filter1_bd_665_1354)">
<circle cx="40" cy="33" r="2" fill="url(#paint66_linear_665_1354)"/>
</g>
<g filter="url(#filter2_bd_665_1354)">
<circle cx="48" cy="59" r="4" fill="url(#paint67_linear_665_1354)"/>
</g>
<defs>
<filter id="filter0_bd_665_1354" x="24" y="-12" width="46" height="46" filterUnits="userSpaceOnUse" color-interpolation-filters="sRGB">
<feFlood flood-opacity="0" result="BackgroundImageFix"/>
<feGaussianBlur in="BackgroundImageFix" stdDeviation="8"/>
<feComposite in2="SourceAlpha" operator="in" result="effect1_backgroundBlur_665_1354"/>
<feColorMatrix in="SourceAlpha" type="matrix" values="0 0 0 0 0 0 0 0 0 0 0 0 0 0 0 0 0 0 127 0" result="hardAlpha"/>
<feOffset dy="4"/>
<feGaussianBlur stdDeviation="4"/>
<feColorMatrix type="matrix" values="0 0 0 0 0.964706 0 0 0 0 0.580392 0 0 0 0 0.298039 0 0 0 0.33 0"/>
<feBlend mode="normal" in2="effect1_backgroundBlur_665_1354" result="effect2_dropShadow_665_1354"/>
<feBlend mode="normal" in="SourceGraphic" in2="effect2_dropShadow_665_1354" result="shape"/>
</filter>
<filter id="filter1_bd_665_1354" x="22" y="15" width="36" height="36" filterUnits="userSpaceOnUse" color-interpolation-filters="sRGB">
<feFlood flood-opacity="0" result="BackgroundImageFix"/>
<feGaussianBlur in="BackgroundImageFix" stdDeviation="8"/>
<feComposite in2="SourceAlpha" operator="in" result="effect1_backgroundBlur_665_1354"/>
<feColorMatrix in="SourceAlpha" type="matrix" values="0 0 0 0 0 0 0 0 0 0 0 0 0 0 0 0 0 0 127 0" result="hardAlpha"/>
<feOffset dy="4"/>
<feGaussianBlur stdDeviation="4"/>
<feColorMatrix type="matrix" values="0 0 0 0 0.964706 0 0 0 0 0.580392 0 0 0 0 0.298039 0 0 0 0.33 0"/>
<feBlend mode="normal" in2="effect1_backgroundBlur_665_1354" result="effect2_dropShadow_665_1354"/>
<feBlend mode="normal" in="SourceGraphic" in2="effect2_dropShadow_665_1354" result="shape"/>
</filter>
<filter id="filter2_bd_665_1354" x="28" y="39" width="40" height="40" filterUnits="userSpaceOnUse" color-interpolation-filters="sRGB">
<feFlood flood-opacity="0" result="BackgroundImageFix"/>
<feGaussianBlur in="BackgroundImageFix" stdDeviation="8"/>
<feComposite in2="SourceAlpha" operator="in" result="effect1_backgroundBlur_665_1354"/>
<feColorMatrix in="SourceAlpha" type="matrix" values="0 0 0 0 0 0 0 0 0 0 0 0 0 0 0 0 0 0 127 0" result="hardAlpha"/>
<feOffset dy="4"/>
<feGaussianBlur stdDeviation="4"/>
<feColorMatrix type="matrix" values="0 0 0 0 0.964706 0 0 0 0 0.580392 0 0 0 0 0.298039 0 0 0 0.33 0"/>
<feBlend mode="normal" in2="effect1_backgroundBlur_665_1354" result="effect2_dropShadow_665_1354"/>
<feBlend mode="normal" in="SourceGraphic" in2="effect2_dropShadow_665_1354" result="shape"/>
</filter>
<linearGradient id="paint0_linear_665_1354" x1="23.1217" y1="10.086" x2="23.4934" y2="38.6641" gradientUnits="userSpaceOnUse">
<stop stop-color="#F30304"/>
<stop offset="0.53" stop-color="#F97A04"/>
<stop offset="0.79" stop-color="#FDB105"/>
</linearGradient>
<linearGradient id="paint1_linear_665_1354" x1="20.5212" y1="27.142" x2="25.7734" y2="39.115" gradientUnits="userSpaceOnUse">
<stop stop-color="#FDDEB3"/>
<stop offset="1" stop-color="#AE6865"/>
</linearGradient>
<linearGradient id="paint2_linear_665_1354" x1="29.5482" y1="9.40904" x2="29.9832" y2="36.5542" gradientUnits="userSpaceOnUse">
<stop stop-color="#F30304"/>
<stop offset="0.53" stop-color="#F97A04"/>
<stop offset="0.79" stop-color="#FDB105"/>
</linearGradient>
<linearGradient id="paint3_linear_665_1354" x1="31.9064" y1="13.8931" x2="32.0962" y2="25.7763" gradientUnits="userSpaceOnUse">
<stop stop-color="#F30304"/>
<stop offset="0.53" stop-color="#F97A04"/>
<stop offset="0.79" stop-color="#FDB105"/>
</linearGradient>
<radialGradient id="paint4_radial_665_1354" cx="0" cy="0" r="1" gradientUnits="userSpaceOnUse" gradientTransform="translate(15.4204 18.0278) scale(1.30201 1.48219)">
<stop offset="0.19" stop-color="#FDB105"/>
<stop offset="0.35" stop-color="#C98D03"/>
<stop offset="0.99"/>
</radialGradient>
<radialGradient id="paint5_radial_665_1354" cx="0" cy="0" r="1" gradientUnits="userSpaceOnUse" gradientTransform="translate(28.5913 14.949) scale(0.0866848 0.098681)">
<stop offset="0.19" stop-color="#FDB105"/>
<stop offset="0.35" stop-color="#C98D03"/>
<stop offset="0.99"/>
</radialGradient>
<radialGradient id="paint6_radial_665_1354" cx="0" cy="0" r="1" gradientUnits="userSpaceOnUse" gradientTransform="translate(14.5917 37.3299) scale(1.30201 1.48219)">
<stop offset="0.19" stop-color="#FDB105"/>
<stop offset="0.35" stop-color="#C98D03"/>
<stop offset="0.99"/>
</radialGradient>
<radialGradient id="paint7_radial_665_1354" cx="0" cy="0" r="1" gradientUnits="userSpaceOnUse" gradientTransform="translate(15.5401 14.7162) scale(1.76317 2.00717)">
<stop offset="0.19" stop-color="#FDB105"/>
<stop offset="0.35" stop-color="#C98D03"/>
<stop offset="0.99"/>
</radialGradient>
<radialGradient id="paint8_radial_665_1354" cx="0" cy="0" r="1" gradientUnits="userSpaceOnUse" gradientTransform="translate(21.7137 7.11376) scale(1.5794 1.79797)">
<stop offset="0.19" stop-color="#FDB105"/>
<stop offset="0.35" stop-color="#C98D03"/>
<stop offset="0.99"/>
</radialGradient>
<linearGradient id="paint9_linear_665_1354" x1="16.5375" y1="65.27" x2="30.9869" y2="65.4689" gradientUnits="userSpaceOnUse">
<stop stop-color="#CD4893"/>
<stop offset="0.05" stop-color="#C84B79"/>
<stop offset="0.12" stop-color="#C15156"/>
<stop offset="0.19" stop-color="#BC543C"/>
<stop offset="0.25" stop-color="#BA572D"/>
<stop offset="0.3" stop-color="#B95828"/>
<stop offset="0.61" stop-color="#CD7E44"/>
<stop offset="0.87" stop-color="#DC9B59"/>
</linearGradient>
<linearGradient id="paint10_linear_665_1354" x1="-39.3353" y1="64.4984" x2="-39.5323" y2="64.4957" gradientUnits="userSpaceOnUse">
<stop stop-color="#CD4893"/>
<stop offset="0.05" stop-color="#C84B79"/>
<stop offset="0.12" stop-color="#C15156"/>
<stop offset="0.19" stop-color="#BC543C"/>
<stop offset="0.25" stop-color="#BA572D"/>
<stop offset="0.3" stop-color="#B95828"/>
<stop offset="0.61" stop-color="#CD7E44"/>
<stop offset="0.87" stop-color="#DC9B59"/>
</linearGradient>
<linearGradient id="paint11_linear_665_1354" x1="16.8708" y1="68.7357" x2="25.302" y2="61.021" gradientUnits="userSpaceOnUse">
<stop stop-color="#74438A"/>
<stop offset="0.03" stop-color="#743F7B"/>
<stop offset="0.11" stop-color="#753658"/>
<stop offset="0.18" stop-color="#75303E"/>
<stop offset="0.25" stop-color="#752C2F"/>
<stop offset="0.3" stop-color="#762B2A"/>
<stop offset="0.55" stop-color="#86433C"/>
<stop offset="0.87" stop-color="#996052"/>
</linearGradient>
<linearGradient id="paint12_linear_665_1354" x1="15.3411" y1="70.2154" x2="27.6533" y2="58.9496" gradientUnits="userSpaceOnUse">
<stop stop-color="#74438A"/>
<stop offset="0.03" stop-color="#743F7B"/>
<stop offset="0.11" stop-color="#753658"/>
<stop offset="0.18" stop-color="#75303E"/>
<stop offset="0.25" stop-color="#752C2F"/>
<stop offset="0.3" stop-color="#762B2A"/>
<stop offset="0.55" stop-color="#86433C"/>
<stop offset="0.87" stop-color="#996052"/>
</linearGradient>
<linearGradient id="paint13_linear_665_1354" x1="14.2346" y1="71.9678" x2="30.5397" y2="57.0483" gradientUnits="userSpaceOnUse">
<stop stop-color="#74438A"/>
<stop offset="0.03" stop-color="#743F7B"/>
<stop offset="0.11" stop-color="#753658"/>
<stop offset="0.18" stop-color="#75303E"/>
<stop offset="0.25" stop-color="#752C2F"/>
<stop offset="0.3" stop-color="#762B2A"/>
<stop offset="0.55" stop-color="#86433C"/>
<stop offset="0.87" stop-color="#996052"/>
</linearGradient>
<linearGradient id="paint14_linear_665_1354" x1="16.1937" y1="43.7535" x2="33.0179" y2="43.8649" gradientUnits="userSpaceOnUse">
<stop offset="0.13" stop-color="#E6D2E8"/>
<stop offset="0.39" stop-color="#CDB5D9"/>
<stop offset="0.7" stop-color="#AB8EC5"/>
<stop offset="0.77" stop-color="#AC93C7"/>
<stop offset="0.87" stop-color="#B0A2CC"/>
<stop offset="0.98" stop-color="#B7BCD6"/>
<stop offset="1" stop-color="#B9C2D9"/>
</linearGradient>
<linearGradient id="paint15_linear_665_1354" x1="16.1937" y1="43.7534" x2="33.0179" y2="43.8648" gradientUnits="userSpaceOnUse">
<stop stop-color="#8A79A1"/>
<stop offset="0.52" stop-color="#A497B2"/>
<stop offset="1" stop-color="#C1B7C4"/>
</linearGradient>
<linearGradient id="paint16_linear_665_1354" x1="10.2368" y1="36.6008" x2="40.507" y2="36.8012" gradientUnits="userSpaceOnUse">
<stop offset="0.13" stop-color="#E6D2E8"/>
<stop offset="0.39" stop-color="#CDB5D9"/>
<stop offset="0.7" stop-color="#AB8EC5"/>
<stop offset="0.77" stop-color="#AC93C7"/>
<stop offset="0.87" stop-color="#B0A2CC"/>
<stop offset="0.98" stop-color="#B7BCD6"/>
<stop offset="1" stop-color="#B9C2D9"/>
</linearGradient>
<linearGradient id="paint17_linear_665_1354" x1="10.2368" y1="36.5968" x2="40.507" y2="36.7972" gradientUnits="userSpaceOnUse">
<stop stop-color="#8A79A1"/>
<stop offset="0.52" stop-color="#A497B2"/>
<stop offset="1" stop-color="#C1B7C4"/>
</linearGradient>
<linearGradient id="paint18_linear_665_1354" x1="17.3809" y1="64.55" x2="30.9726" y2="64.6399" gradientUnits="userSpaceOnUse">
<stop offset="0.13" stop-color="#E6D2E8"/>
<stop offset="0.39" stop-color="#CDB5D9"/>
<stop offset="0.7" stop-color="#AB8EC5"/>
<stop offset="0.77" stop-color="#AC93C7"/>
<stop offset="0.87" stop-color="#B0A2CC"/>
<stop offset="0.98" stop-color="#B7BCD6"/>
<stop offset="1" stop-color="#B9C2D9"/>
</linearGradient>
<linearGradient id="paint19_linear_665_1354" x1="17.3809" y1="64.5519" x2="30.9726" y2="64.6419" gradientUnits="userSpaceOnUse">
<stop stop-color="#8A79A1"/>
<stop offset="0.52" stop-color="#A497B2"/>
<stop offset="1" stop-color="#C1B7C4"/>
</linearGradient>
<linearGradient id="paint20_linear_665_1354" x1="17.9071" y1="64.7661" x2="21.0767" y2="64.4083" gradientUnits="userSpaceOnUse">
<stop stop-color="#8A79A1"/>
<stop offset="0.52" stop-color="#A497B2"/>
<stop offset="1" stop-color="#C1B7C4"/>
</linearGradient>
<linearGradient id="paint21_linear_665_1354" x1="17.7478" y1="64.7001" x2="20.4709" y2="64.3919" gradientUnits="userSpaceOnUse">
<stop offset="0.13" stop-color="#E6D2E8"/>
<stop offset="0.39" stop-color="#CDB5D9"/>
<stop offset="0.7" stop-color="#AB8EC5"/>
<stop offset="0.77" stop-color="#AC93C7"/>
<stop offset="0.87" stop-color="#B0A2CC"/>
<stop offset="0.98" stop-color="#B7BCD6"/>
<stop offset="1" stop-color="#B9C2D9"/>
</linearGradient>
<linearGradient id="paint22_linear_665_1354" x1="18.1363" y1="64.7405" x2="20.3838" y2="64.4873" gradientUnits="userSpaceOnUse">
<stop stop-color="#8A79A1"/>
<stop offset="0.52" stop-color="#A497B2"/>
<stop offset="1" stop-color="#C1B7C4"/>
</linearGradient>
<linearGradient id="paint23_linear_665_1354" x1="21.4649" y1="64.6112" x2="25.3657" y2="64.6368" gradientUnits="userSpaceOnUse">
<stop stop-color="#8A79A1"/>
<stop offset="0.52" stop-color="#A497B2"/>
<stop offset="1" stop-color="#C1B7C4"/>
</linearGradient>
<linearGradient id="paint24_linear_665_1354" x1="21.6264" y1="64.5244" x2="24.9776" y2="64.548" gradientUnits="userSpaceOnUse">
<stop offset="0.13" stop-color="#E6D2E8"/>
<stop offset="0.39" stop-color="#CDB5D9"/>
<stop offset="0.7" stop-color="#AB8EC5"/>
<stop offset="0.77" stop-color="#AC93C7"/>
<stop offset="0.87" stop-color="#B0A2CC"/>
<stop offset="0.98" stop-color="#B7BCD6"/>
<stop offset="1" stop-color="#B9C2D9"/>
</linearGradient>
<linearGradient id="paint25_linear_665_1354" x1="22.0894" y1="64.6132" x2="24.8574" y2="64.6309" gradientUnits="userSpaceOnUse">
<stop stop-color="#8A79A1"/>
<stop offset="0.52" stop-color="#A497B2"/>
<stop offset="1" stop-color="#C1B7C4"/>
</linearGradient>
<linearGradient id="paint26_linear_665_1354" x1="25.6475" y1="64.6132" x2="28.7937" y2="64.6329" gradientUnits="userSpaceOnUse">
<stop stop-color="#8A79A1"/>
<stop offset="0.52" stop-color="#A497B2"/>
<stop offset="1" stop-color="#C1B7C4"/>
</linearGradient>
<linearGradient id="paint27_linear_665_1354" x1="26.2464" y1="64.5264" x2="28.9514" y2="64.5441" gradientUnits="userSpaceOnUse">
<stop offset="0.13" stop-color="#E6D2E8"/>
<stop offset="0.39" stop-color="#CDB5D9"/>
<stop offset="0.7" stop-color="#AB8EC5"/>
<stop offset="0.77" stop-color="#AC93C7"/>
<stop offset="0.87" stop-color="#B0A2CC"/>
<stop offset="0.98" stop-color="#B7BCD6"/>
<stop offset="1" stop-color="#B9C2D9"/>
</linearGradient>
<linearGradient id="paint28_linear_665_1354" x1="26.6207" y1="64.6152" x2="28.8529" y2="64.6289" gradientUnits="userSpaceOnUse">
<stop stop-color="#8A79A1"/>
<stop offset="0.52" stop-color="#A497B2"/>
<stop offset="1" stop-color="#C1B7C4"/>
</linearGradient>
<linearGradient id="paint29_linear_665_1354" x1="11.951" y1="34.246" x2="15.1186" y2="33.8885" gradientUnits="userSpaceOnUse">
<stop stop-color="#8A79A1"/>
<stop offset="0.52" stop-color="#A497B2"/>
<stop offset="1" stop-color="#C1B7C4"/>
</linearGradient>
<linearGradient id="paint30_linear_665_1354" x1="11.7897" y1="34.1803" x2="14.5148" y2="33.8718" gradientUnits="userSpaceOnUse">
<stop offset="0.13" stop-color="#E6D2E8"/>
<stop offset="0.39" stop-color="#CDB5D9"/>
<stop offset="0.7" stop-color="#AB8EC5"/>
<stop offset="0.77" stop-color="#AC93C7"/>
<stop offset="0.87" stop-color="#B0A2CC"/>
<stop offset="0.98" stop-color="#B7BCD6"/>
<stop offset="1" stop-color="#B9C2D9"/>
</linearGradient>
<linearGradient id="paint31_linear_665_1354" x1="12.1782" y1="34.2207" x2="14.4257" y2="33.9674" gradientUnits="userSpaceOnUse">
<stop stop-color="#8A79A1"/>
<stop offset="0.52" stop-color="#A497B2"/>
<stop offset="1" stop-color="#C1B7C4"/>
</linearGradient>
<linearGradient id="paint32_linear_665_1354" x1="15.1428" y1="34.0912" x2="18.6516" y2="34.1148" gradientUnits="userSpaceOnUse">
<stop stop-color="#8A79A1"/>
<stop offset="0.52" stop-color="#A497B2"/>
<stop offset="1" stop-color="#C1B7C4"/>
</linearGradient>
<linearGradient id="paint33_linear_665_1354" x1="15.2866" y1="34.0063" x2="18.3029" y2="34.026" gradientUnits="userSpaceOnUse">
<stop offset="0.13" stop-color="#E6D2E8"/>
<stop offset="0.39" stop-color="#CDB5D9"/>
<stop offset="0.7" stop-color="#AB8EC5"/>
<stop offset="0.77" stop-color="#AC93C7"/>
<stop offset="0.87" stop-color="#B0A2CC"/>
<stop offset="0.98" stop-color="#B7BCD6"/>
<stop offset="1" stop-color="#B9C2D9"/>
</linearGradient>
<linearGradient id="paint34_linear_665_1354" x1="15.7043" y1="34.0951" x2="18.1945" y2="34.1108" gradientUnits="userSpaceOnUse">
<stop stop-color="#8A79A1"/>
<stop offset="0.52" stop-color="#A497B2"/>
<stop offset="1" stop-color="#C1B7C4"/>
</linearGradient>
<linearGradient id="paint35_linear_665_1354" x1="19.1835" y1="34.0912" x2="23.0843" y2="34.1167" gradientUnits="userSpaceOnUse">
<stop stop-color="#8A79A1"/>
<stop offset="0.52" stop-color="#A497B2"/>
<stop offset="1" stop-color="#C1B7C4"/>
</linearGradient>
<linearGradient id="paint36_linear_665_1354" x1="19.3431" y1="34.0043" x2="22.6962" y2="34.0279" gradientUnits="userSpaceOnUse">
<stop offset="0.13" stop-color="#E6D2E8"/>
<stop offset="0.39" stop-color="#CDB5D9"/>
<stop offset="0.7" stop-color="#AB8EC5"/>
<stop offset="0.77" stop-color="#AC93C7"/>
<stop offset="0.87" stop-color="#B0A2CC"/>
<stop offset="0.98" stop-color="#B7BCD6"/>
<stop offset="1" stop-color="#B9C2D9"/>
</linearGradient>
<linearGradient id="paint37_linear_665_1354" x1="19.8081" y1="34.0931" x2="22.5741" y2="34.1108" gradientUnits="userSpaceOnUse">
<stop stop-color="#8A79A1"/>
<stop offset="0.52" stop-color="#A497B2"/>
<stop offset="1" stop-color="#C1B7C4"/>
</linearGradient>
<linearGradient id="paint38_linear_665_1354" x1="23.961" y1="34.0912" x2="27.8598" y2="34.1167" gradientUnits="userSpaceOnUse">
<stop stop-color="#8A79A1"/>
<stop offset="0.52" stop-color="#A497B2"/>
<stop offset="1" stop-color="#C1B7C4"/>
</linearGradient>
<linearGradient id="paint39_linear_665_1354" x1="24.1206" y1="34.0043" x2="27.4737" y2="34.0279" gradientUnits="userSpaceOnUse">
<stop offset="0.13" stop-color="#E6D2E8"/>
<stop offset="0.39" stop-color="#CDB5D9"/>
<stop offset="0.7" stop-color="#AB8EC5"/>
<stop offset="0.77" stop-color="#AC93C7"/>
<stop offset="0.87" stop-color="#B0A2CC"/>
<stop offset="0.98" stop-color="#B7BCD6"/>
<stop offset="1" stop-color="#B9C2D9"/>
</linearGradient>
<linearGradient id="paint40_linear_665_1354" x1="24.5855" y1="34.0931" x2="27.3516" y2="34.1108" gradientUnits="userSpaceOnUse">
<stop stop-color="#8A79A1"/>
<stop offset="0.52" stop-color="#A497B2"/>
<stop offset="1" stop-color="#C1B7C4"/>
</linearGradient>
<linearGradient id="paint41_linear_665_1354" x1="28.4627" y1="34.0931" x2="31.8276" y2="34.1148" gradientUnits="userSpaceOnUse">
<stop stop-color="#8A79A1"/>
<stop offset="0.52" stop-color="#A497B2"/>
<stop offset="1" stop-color="#C1B7C4"/>
</linearGradient>
<linearGradient id="paint42_linear_665_1354" x1="28.6006" y1="34.0063" x2="31.4928" y2="34.026" gradientUnits="userSpaceOnUse">
<stop offset="0.13" stop-color="#E6D2E8"/>
<stop offset="0.39" stop-color="#CDB5D9"/>
<stop offset="0.7" stop-color="#AB8EC5"/>
<stop offset="0.77" stop-color="#AC93C7"/>
<stop offset="0.87" stop-color="#B0A2CC"/>
<stop offset="0.98" stop-color="#B7BCD6"/>
<stop offset="1" stop-color="#B9C2D9"/>
</linearGradient>
<linearGradient id="paint43_linear_665_1354" x1="29.0025" y1="34.0951" x2="31.3883" y2="34.1108" gradientUnits="userSpaceOnUse">
<stop stop-color="#8A79A1"/>
<stop offset="0.52" stop-color="#A497B2"/>
<stop offset="1" stop-color="#C1B7C4"/>
</linearGradient>
<linearGradient id="paint44_linear_665_1354" x1="31.8315" y1="34.0931" x2="34.9778" y2="34.1148" gradientUnits="userSpaceOnUse">
<stop stop-color="#8A79A1"/>
<stop offset="0.52" stop-color="#A497B2"/>
<stop offset="1" stop-color="#C1B7C4"/>
</linearGradient>
<linearGradient id="paint45_linear_665_1354" x1="32.4305" y1="34.0063" x2="35.1355" y2="34.024" gradientUnits="userSpaceOnUse">
<stop offset="0.13" stop-color="#E6D2E8"/>
<stop offset="0.39" stop-color="#CDB5D9"/>
<stop offset="0.7" stop-color="#AB8EC5"/>
<stop offset="0.77" stop-color="#AC93C7"/>
<stop offset="0.87" stop-color="#B0A2CC"/>
<stop offset="0.98" stop-color="#B7BCD6"/>
<stop offset="1" stop-color="#B9C2D9"/>
</linearGradient>
<linearGradient id="paint46_linear_665_1354" x1="32.8068" y1="34.0951" x2="35.037" y2="34.1108" gradientUnits="userSpaceOnUse">
<stop stop-color="#8A79A1"/>
<stop offset="0.52" stop-color="#A497B2"/>
<stop offset="1" stop-color="#C1B7C4"/>
</linearGradient>
<linearGradient id="paint47_linear_665_1354" x1="12.906" y1="39.1066" x2="15.8113" y2="38.7786" gradientUnits="userSpaceOnUse">
<stop stop-color="#8A79A1"/>
<stop offset="0.52" stop-color="#A497B2"/>
<stop offset="1" stop-color="#C1B7C4"/>
</linearGradient>
<linearGradient id="paint48_linear_665_1354" x1="12.7588" y1="39.0432" x2="15.2568" y2="38.76" gradientUnits="userSpaceOnUse">
<stop offset="0.13" stop-color="#E6D2E8"/>
<stop offset="0.39" stop-color="#CDB5D9"/>
<stop offset="0.7" stop-color="#AB8EC5"/>
<stop offset="0.77" stop-color="#AC93C7"/>
<stop offset="0.87" stop-color="#B0A2CC"/>
<stop offset="0.98" stop-color="#B7BCD6"/>
<stop offset="1" stop-color="#B9C2D9"/>
</linearGradient>
<linearGradient id="paint49_linear_665_1354" x1="13.1079" y1="39.0864" x2="15.1792" y2="38.8522" gradientUnits="userSpaceOnUse">
<stop stop-color="#8A79A1"/>
<stop offset="0.52" stop-color="#A497B2"/>
<stop offset="1" stop-color="#C1B7C4"/>
</linearGradient>
<linearGradient id="paint50_linear_665_1354" x1="15.8304" y1="38.966" x2="19.0436" y2="38.9876" gradientUnits="userSpaceOnUse">
<stop stop-color="#8A79A1"/>
<stop offset="0.52" stop-color="#A497B2"/>
<stop offset="1" stop-color="#C1B7C4"/>
</linearGradient>
<linearGradient id="paint51_linear_665_1354" x1="15.9624" y1="38.8811" x2="18.7245" y2="38.8988" gradientUnits="userSpaceOnUse">
<stop offset="0.13" stop-color="#E6D2E8"/>
<stop offset="0.39" stop-color="#CDB5D9"/>
<stop offset="0.7" stop-color="#AB8EC5"/>
<stop offset="0.77" stop-color="#AC93C7"/>
<stop offset="0.87" stop-color="#B0A2CC"/>
<stop offset="0.98" stop-color="#B7BCD6"/>
<stop offset="1" stop-color="#B9C2D9"/>
</linearGradient>
<linearGradient id="paint52_linear_665_1354" x1="16.3465" y1="38.968" x2="18.624" y2="38.9837" gradientUnits="userSpaceOnUse">
<stop stop-color="#8A79A1"/>
<stop offset="0.52" stop-color="#A497B2"/>
<stop offset="1" stop-color="#C1B7C4"/>
</linearGradient>
<linearGradient id="paint53_linear_665_1354" x1="19.5322" y1="38.966" x2="23.1021" y2="38.9896" gradientUnits="userSpaceOnUse">
<stop stop-color="#8A79A1"/>
<stop offset="0.52" stop-color="#A497B2"/>
<stop offset="1" stop-color="#C1B7C4"/>
</linearGradient>
<linearGradient id="paint54_linear_665_1354" x1="19.678" y1="38.8791" x2="22.7475" y2="38.9008" gradientUnits="userSpaceOnUse">
<stop offset="0.13" stop-color="#E6D2E8"/>
<stop offset="0.39" stop-color="#CDB5D9"/>
<stop offset="0.7" stop-color="#AB8EC5"/>
<stop offset="0.77" stop-color="#AC93C7"/>
<stop offset="0.87" stop-color="#B0A2CC"/>
<stop offset="0.98" stop-color="#B7BCD6"/>
<stop offset="1" stop-color="#B9C2D9"/>
</linearGradient>
<linearGradient id="paint55_linear_665_1354" x1="20.1035" y1="38.968" x2="22.6371" y2="38.9857" gradientUnits="userSpaceOnUse">
<stop stop-color="#8A79A1"/>
<stop offset="0.52" stop-color="#A497B2"/>
<stop offset="1" stop-color="#C1B7C4"/>
</linearGradient>
<linearGradient id="paint56_linear_665_1354" x1="23.9058" y1="38.966" x2="27.4756" y2="38.9896" gradientUnits="userSpaceOnUse">
<stop stop-color="#8A79A1"/>
<stop offset="0.52" stop-color="#A497B2"/>
<stop offset="1" stop-color="#C1B7C4"/>
</linearGradient>
<linearGradient id="paint57_linear_665_1354" x1="24.0516" y1="38.8791" x2="27.121" y2="38.9008" gradientUnits="userSpaceOnUse">
<stop offset="0.13" stop-color="#E6D2E8"/>
<stop offset="0.39" stop-color="#CDB5D9"/>
<stop offset="0.7" stop-color="#AB8EC5"/>
<stop offset="0.77" stop-color="#AC93C7"/>
<stop offset="0.87" stop-color="#B0A2CC"/>
<stop offset="0.98" stop-color="#B7BCD6"/>
<stop offset="1" stop-color="#B9C2D9"/>
</linearGradient>
<linearGradient id="paint58_linear_665_1354" x1="24.4771" y1="38.968" x2="27.0106" y2="38.9857" gradientUnits="userSpaceOnUse">
<stop stop-color="#8A79A1"/>
<stop offset="0.52" stop-color="#A497B2"/>
<stop offset="1" stop-color="#C1B7C4"/>
</linearGradient>
<linearGradient id="paint59_linear_665_1354" x1="28.0273" y1="38.968" x2="31.1085" y2="38.9876" gradientUnits="userSpaceOnUse">
<stop stop-color="#8A79A1"/>
<stop offset="0.52" stop-color="#A497B2"/>
<stop offset="1" stop-color="#C1B7C4"/>
</linearGradient>
<linearGradient id="paint60_linear_665_1354" x1="28.1533" y1="38.8811" x2="30.8012" y2="38.8988" gradientUnits="userSpaceOnUse">
<stop offset="0.13" stop-color="#E6D2E8"/>
<stop offset="0.39" stop-color="#CDB5D9"/>
<stop offset="0.7" stop-color="#AB8EC5"/>
<stop offset="0.77" stop-color="#AC93C7"/>
<stop offset="0.87" stop-color="#B0A2CC"/>
<stop offset="0.98" stop-color="#B7BCD6"/>
<stop offset="1" stop-color="#B9C2D9"/>
</linearGradient>
<linearGradient id="paint61_linear_665_1354" x1="28.5218" y1="38.97" x2="30.7047" y2="38.9837" gradientUnits="userSpaceOnUse">
<stop stop-color="#8A79A1"/>
<stop offset="0.52" stop-color="#A497B2"/>
<stop offset="1" stop-color="#C1B7C4"/>
</linearGradient>
<linearGradient id="paint62_linear_665_1354" x1="31.1125" y1="38.968" x2="33.9928" y2="38.9876" gradientUnits="userSpaceOnUse">
<stop stop-color="#8A79A1"/>
<stop offset="0.52" stop-color="#A497B2"/>
<stop offset="1" stop-color="#C1B7C4"/>
</linearGradient>
<linearGradient id="paint63_linear_665_1354" x1="31.6602" y1="38.8811" x2="34.1366" y2="38.8968" gradientUnits="userSpaceOnUse">
<stop offset="0.13" stop-color="#E6D2E8"/>
<stop offset="0.39" stop-color="#CDB5D9"/>
<stop offset="0.7" stop-color="#AB8EC5"/>
<stop offset="0.77" stop-color="#AC93C7"/>
<stop offset="0.87" stop-color="#B0A2CC"/>
<stop offset="0.98" stop-color="#B7BCD6"/>
<stop offset="1" stop-color="#B9C2D9"/>
</linearGradient>
<linearGradient id="paint64_linear_665_1354" x1="32.0049" y1="38.97" x2="34.046" y2="38.9837" gradientUnits="userSpaceOnUse">
<stop stop-color="#8A79A1"/>
<stop offset="0.52" stop-color="#A497B2"/>
<stop offset="1" stop-color="#C1B7C4"/>
</linearGradient>
<linearGradient id="paint65_linear_665_1354" x1="47.0805" y1="18" x2="47.0805" y2="4" gradientUnits="userSpaceOnUse">
<stop stop-color="#F05754"/>
<stop offset="0.495" stop-color="#F4864D"/>
<stop offset="1" stop-color="#FBC945"/>
</linearGradient>
<linearGradient id="paint66_linear_665_1354" x1="40.023" y1="35" x2="40.023" y2="31" gradientUnits="userSpaceOnUse">
<stop stop-color="#F05754"/>
<stop offset="0.495" stop-color="#F4864D"/>
<stop offset="1" stop-color="#FBC945"/>
</linearGradient>
<linearGradient id="paint67_linear_665_1354" x1="48.046" y1="63" x2="48.046" y2="55" gradientUnits="userSpaceOnUse">
<stop stop-color="#F05754"/>
<stop offset="0.495" stop-color="#F4864D"/>
<stop offset="1" stop-color="#FBC945"/>
</linearGradient>
<clipPath id="clip0_665_1354">
<rect width="26" height="61" fill="white" transform="translate(12 6)"/>
</clipPath>
</defs>
</svg>
